<svg xmlns="http://www.w3.org/2000/svg" xmlns:xlink="http://www.w3.org/1999/xlink" viewBox="0 0 547.8 182.24"><defs><style>.cls-1{fill:url(#linear-gradient);}.cls-2{fill:url(#Degradado_sin_nombre_2);}.cls-3{fill:#1d1d1b;}.cls-4{fill:url(#radial-gradient);}.cls-5{fill:url(#radial-gradient-2);}.cls-6{fill:url(#radial-gradient-3);}.cls-7{fill:url(#radial-gradient-4);}.cls-8{fill:url(#radial-gradient-5);}.cls-9{fill:url(#radial-gradient-6);}.cls-10{fill:url(#radial-gradient-7);}.cls-11{fill:url(#radial-gradient-8);}.cls-12{fill:url(#radial-gradient-9);}.cls-13{fill:url(#radial-gradient-10);}.cls-14{fill:url(#radial-gradient-11);}.cls-15{fill:url(#radial-gradient-12);}.cls-16{fill:url(#radial-gradient-13);}.cls-17{fill:url(#radial-gradient-14);}.cls-18{fill:url(#radial-gradient-15);}.cls-19{fill:url(#radial-gradient-16);}.cls-20{fill:url(#radial-gradient-17);}.cls-21{fill:#56b14b;}.cls-22{fill:url(#Degradado_sin_nombre_7);}.cls-23{fill:url(#Degradado_sin_nombre_7-2);}.cls-24{fill:url(#Degradado_sin_nombre_7-3);}.cls-25{fill:url(#Degradado_sin_nombre_7-4);}.cls-26{fill:url(#Degradado_sin_nombre_7-5);}.cls-27{fill:url(#Degradado_sin_nombre_7-6);}.cls-28{fill:url(#Degradado_sin_nombre_7-7);}.cls-29{fill:url(#Degradado_sin_nombre_7-8);}.cls-30{fill:url(#Degradado_sin_nombre_4);}.cls-31{fill:url(#Degradado_sin_nombre_4-2);}.cls-32{fill:url(#Degradado_sin_nombre_4-3);}.cls-33{fill:url(#Degradado_sin_nombre_4-4);}.cls-34{fill:url(#Degradado_sin_nombre_4-5);}.cls-35{fill:url(#Degradado_sin_nombre_4-6);}.cls-36{fill:url(#Degradado_sin_nombre_4-7);}.cls-37{fill:url(#Degradado_sin_nombre_4-8);}.cls-38{fill:url(#Degradado_sin_nombre_4-9);}.cls-39{fill:url(#Degradado_sin_nombre_4-10);}.cls-40{fill:url(#Degradado_sin_nombre_4-11);}.cls-41{fill:url(#Degradado_sin_nombre_4-12);}</style><linearGradient id="linear-gradient" x1="172.92" y1="83.91" x2="260.99" y2="83.91" gradientUnits="userSpaceOnUse"><stop offset="0" stop-color="#009fe3"/><stop offset="0.34" stop-color="#00a0df"/><stop offset="1" stop-color="#66c1bf"/></linearGradient><linearGradient id="Degradado_sin_nombre_2" x1="170.25" y1="102.74" x2="514.84" y2="102.74" gradientUnits="userSpaceOnUse"><stop offset="0" stop-color="#009fe3"/><stop offset="1" stop-color="#56b14b"/></linearGradient><radialGradient id="radial-gradient" cx="47.42" cy="44.74" r="131.72" gradientUnits="userSpaceOnUse"><stop offset="0" stop-color="#d4edfc"/><stop offset="0.68" stop-color="#00a3e5"/><stop offset="1" stop-color="#009fe3"/></radialGradient><radialGradient id="radial-gradient-2" cx="47.42" cy="44.74" r="131.73" xlink:href="#radial-gradient"/><radialGradient id="radial-gradient-3" cx="47.42" cy="44.74" r="131.72" xlink:href="#radial-gradient"/><radialGradient id="radial-gradient-4" cx="47.42" cy="44.74" r="131.73" xlink:href="#radial-gradient"/><radialGradient id="radial-gradient-5" cx="47.42" cy="44.74" r="131.73" xlink:href="#radial-gradient"/><radialGradient id="radial-gradient-6" cx="47.42" cy="44.74" r="131.72" xlink:href="#radial-gradient"/><radialGradient id="radial-gradient-7" cx="47.42" cy="44.74" r="131.74" xlink:href="#radial-gradient"/><radialGradient id="radial-gradient-8" cx="47.43" cy="44.74" r="131.72" xlink:href="#radial-gradient"/><radialGradient id="radial-gradient-9" cx="47.42" cy="44.74" r="131.73" xlink:href="#radial-gradient"/><radialGradient id="radial-gradient-10" cx="47.42" cy="44.74" r="131.73" xlink:href="#radial-gradient"/><radialGradient id="radial-gradient-11" cx="47.42" cy="44.74" r="131.72" xlink:href="#radial-gradient"/><radialGradient id="radial-gradient-12" cx="47.42" cy="44.74" r="131.72" xlink:href="#radial-gradient"/><radialGradient id="radial-gradient-13" cx="47.42" cy="44.74" r="131.73" xlink:href="#radial-gradient"/><radialGradient id="radial-gradient-14" cx="47.43" cy="44.74" r="131.72" xlink:href="#radial-gradient"/><radialGradient id="radial-gradient-15" cx="47.42" cy="44.74" r="131.73" xlink:href="#radial-gradient"/><radialGradient id="radial-gradient-16" cx="47.42" cy="44.74" r="131.72" xlink:href="#radial-gradient"/><radialGradient id="radial-gradient-17" cx="47.42" cy="44.74" r="131.73" xlink:href="#radial-gradient"/><linearGradient id="Degradado_sin_nombre_7" x1="493.81" y1="48.74" x2="190.48" y2="49.68" gradientUnits="userSpaceOnUse"><stop offset="0" stop-color="#56b14b"/><stop offset="0" stop-color="#6eab32"/><stop offset="1" stop-color="#009fe3"/></linearGradient><linearGradient id="Degradado_sin_nombre_7-2" x1="493.81" y1="48.91" x2="190.48" y2="49.85" xlink:href="#Degradado_sin_nombre_7"/><linearGradient id="Degradado_sin_nombre_7-3" x1="493.81" y1="49.09" x2="190.48" y2="50.03" xlink:href="#Degradado_sin_nombre_7"/><linearGradient id="Degradado_sin_nombre_7-4" x1="493.76" y1="33.48" x2="190.43" y2="34.42" xlink:href="#Degradado_sin_nombre_7"/><linearGradient id="Degradado_sin_nombre_7-5" x1="493.81" y1="49.53" x2="190.47" y2="50.47" xlink:href="#Degradado_sin_nombre_7"/><linearGradient id="Degradado_sin_nombre_7-6" x1="493.8" y1="47.14" x2="190.47" y2="48.08" xlink:href="#Degradado_sin_nombre_7"/><linearGradient id="Degradado_sin_nombre_7-7" x1="493.86" y1="65.14" x2="190.53" y2="66.08" xlink:href="#Degradado_sin_nombre_7"/><linearGradient id="Degradado_sin_nombre_7-8" x1="493.81" y1="48.76" x2="190.48" y2="49.7" xlink:href="#Degradado_sin_nombre_7"/><linearGradient id="Degradado_sin_nombre_4" x1="468.97" y1="138.31" x2="180.65" y2="137.37" gradientUnits="userSpaceOnUse"><stop offset="0" stop-color="#56b14b"/><stop offset="1" stop-color="#009fe3"/></linearGradient><linearGradient id="Degradado_sin_nombre_4-2" x1="468.98" y1="138.21" x2="180.65" y2="137.27" xlink:href="#Degradado_sin_nombre_4"/><linearGradient id="Degradado_sin_nombre_4-3" x1="469.01" y1="126.78" x2="180.69" y2="125.84" xlink:href="#Degradado_sin_nombre_4"/><linearGradient id="Degradado_sin_nombre_4-4" x1="468.98" y1="137.98" x2="180.65" y2="137.04" xlink:href="#Degradado_sin_nombre_4"/><linearGradient id="Degradado_sin_nombre_4-5" x1="468.97" y1="137.85" x2="180.66" y2="136.92" xlink:href="#Degradado_sin_nombre_4"/><linearGradient id="Degradado_sin_nombre_4-6" x1="468.99" y1="137.75" x2="180.63" y2="136.81" xlink:href="#Degradado_sin_nombre_4"/><linearGradient id="Degradado_sin_nombre_4-7" x1="468.98" y1="137.69" x2="180.65" y2="136.75" xlink:href="#Degradado_sin_nombre_4"/><linearGradient id="Degradado_sin_nombre_4-8" x1="468.98" y1="137.6" x2="180.64" y2="136.67" xlink:href="#Degradado_sin_nombre_4"/><linearGradient id="Degradado_sin_nombre_4-9" x1="468.98" y1="137.45" x2="180.64" y2="136.51" xlink:href="#Degradado_sin_nombre_4"/><linearGradient id="Degradado_sin_nombre_4-10" x1="468.98" y1="136.51" x2="180.66" y2="135.57" xlink:href="#Degradado_sin_nombre_4"/><linearGradient id="Degradado_sin_nombre_4-11" x1="468.94" y1="149.38" x2="180.61" y2="148.45" xlink:href="#Degradado_sin_nombre_4"/><linearGradient id="Degradado_sin_nombre_4-12" x1="468.98" y1="137.62" x2="180.66" y2="136.68" xlink:href="#Degradado_sin_nombre_4"/></defs><g id="Capa_2" data-name="Capa 2"><g id="Capa_1-2" data-name="Capa 1"><path class="cls-1" d="M177.48,75.89l-4.16.09-.2.12-.2.13v3l12.93-.11,12.92-.1.11,1.08.1,1.09v3.55l.5.61.49.62,22.84,0,22.83,0,.34,1,.34.94.5.72.5.73.76.69.77.69.9.44.9.44,1.13.23,1.12.24,1-.11,1-.1.87-.3.87-.3.74-.48.74-.47.79-.83.79-.83.41-.81.41-.81.23-.9.24-.9V83.34l-.24-.91-.24-.91-.43-.88-.43-.88-1-1-.95-1-1-.49-1-.49-.84-.17-.83-.17h-1.8l-.9.23-.9.23-.81.42-.82.41-1,1-1,1-.54,1.09-.55,1.09v.54l-2.14.1-2.15.11H201.65V76.91l-.48-.58-.49-.59-9.52,0-9.53,0-4.15.08Zm77.63,4.53.63.32.65.7.65.71.25.82.24.83v1l-.23.79-.24.79-.62.71-.62.7-.83.37-.83.36h-1.92l-.88-.43-.88-.43-.42-.5-.43-.5-.31-.71-.32-.7v-2l.36-.75.36-.75.71-.63.71-.63.73-.23.72-.23.94.06.95,0,.63.33Z"/><path class="cls-2" d="M501.78,87.9l-1,.23-.86.35-.87.34-1,.61-1,.61-1.16,1.23-1.16,1.24-.58,1.17-.58,1.16-.19.81-.19.81h-323v3.45h214.9v8.48h-20l-.6-1.2-.59-1.2-.88-.92-.89-.93-1.1-.54-1.12-.55-.84-.15-.84-.16h-1.39l-1.08.25-1.09.24-.92.6-.93.6-.66.69-.66.68-.46.79-.45.8-.24.92-.24.93v2.07l.24.92.24.92.42.79.43.78.88.89.89.88,1,.49,1,.48.83.18.83.17h1.64l.93-.24.92-.24.92-.49.93-.49.86-.94.86-.93.44-.89.45-.88.1-.43.1-.44h24.17V99.91H493.08l.2,1.06.19,1.06.72,1.48.72,1.48,1.28,1.27,1.28,1.27.89.52.88.52,1.15.41,1.16.41,2,.07,2,.07,1-.26,1-.26,1.1-.52,1.1-.53,1-.73,1-.74.71-.89.71-.9.54-1,.54-1,.35-1.24.33-1.24-.07-2-.08-2-.34-1-.35-1-.64-1.09-.64-1.1-1.12-1.1-1.12-1.1-1-.59-1-.6-1.25-.39-1.26-.4-1.57-.07-1.57-.07-1,.23Zm4.31,2.84L507,91l.79.42.8.43,1,1,1,1,.49,1,.49,1,.24,1,.23,1v1.72l-.24,1-.24,1-.5,1-.51,1-.94.94-.94.94-1,.51-1,.5-1.08.26-1.08.25-1.27-.08-1.26-.09-.93-.35-.94-.34-.63-.39-.63-.38-.68-.65-.69-.65-.61-.93-.61-.93-.31-1-.31-1V97.3l.25-.85.25-.85.48-.92.48-.91.83-.84.83-.84.75-.45.76-.44,1-.35,1-.35h2.68l.92.24ZM359.31,106l.86.33.8.86.79.87.26.88.25.88-.09.82-.08.83-.3.67-.31.68-.61.61-.61.6-.63.34-.63.33h-2.66l-.77-.39-.76-.39-.6-.68-.6-.68-.25-.73-.24-.72v-1.79l.23-.66.23-.66.48-.61.48-.6.57-.35.56-.35.57-.2.57-.2h1.63l.86.32Z"/><path class="cls-3" d="M83.88,1.06c-66.79,3.72-104.56,82.8-67.37,141C57,205.55,150,191,171,117.93a65,65,0,0,0,1.73-7.19c-.13-.13-2,1.36-5.31,4.15-6.06,5.18-14.64,12.14-22.37,18.13l-3.24,2.52-.06,1.31a20,20,0,0,1-.56,4c-.08.27-.16.57-.18.67a2.46,2.46,0,0,1-.16.5,1.48,1.48,0,0,0-.09.28.73.73,0,0,1-.09.23c0,.07,0,.11,0,.11s0,.13-.12.3a2.57,2.57,0,0,0-.2.36,4,4,0,0,1-.19.49c-.1.23-.2.45-.2.47-.08.28-.17.45-.25.45s-.07,0,0,.06-.05.2-.17.36-.2.3-.17.3,0,.1-.14.22-.17.23-.13.23,0,.06-.09.14-.15.13-.11.13,0,.11-.16.24-.2.27-.18.31,0,.08,0,.08a1.91,1.91,0,0,0-.46.53,9.22,9.22,0,0,1-.62.79,12.73,12.73,0,0,1-2.18,2.09.23.23,0,0,0-.15.12c-.07.12-.12.14-1.21.88a14.83,14.83,0,0,1-2,1.21,1.77,1.77,0,0,0-.44.21,1.42,1.42,0,0,1-.44.18.13.13,0,0,0-.14.11c0,.05,0,.07,0,.05s-.14,0-.25,0a2.29,2.29,0,0,1-.28.12l-.9.29a18.39,18.39,0,0,1-11.11,0l-1.07-.33-.24.14-2.85,1.71c-1.43.86-4.82,2.85-7.54,4.43s-5.56,3.22-6.33,3.68C95.5,165.84,90,168.73,81.5,173c-5.32,2.63-10.11,4.95-10.16,4.9s1.28-.75,2.87-1.63c8.66-4.81,22.8-13,28.4-16.42,4.52-2.77,12.17-7.72,12.17-7.87a6.14,6.14,0,0,0-.77-.53,18.09,18.09,0,0,1-5.53-24.92l.55-.84v-2.71c0-2.92,0-3.42-.43-3.87l-.24-.29-.77-.13-.76-.13-4.81,0-4.8,0,0,4.24,0,4.25H77l0-4.17c0-2.29-.08-4.21-.11-4.27s-10-.14-10.87,0-1.12.3-1.38.81l-.2.41,0,2.82,0,2.83.32.49a19.09,19.09,0,0,1,2.88,7.08l.2,1.05v2.06a17.14,17.14,0,0,1-5,12.74c-1.33,1.37-4.72,3.76-5,3.51q-.06-.06-.06,0a3,3,0,0,1-1,.51l-.45.18c-6,2.67-15.19.46-19.77-4.76A18,18,0,0,1,48,118.25l1-.11.05-1.35a13.79,13.79,0,0,0,0-1.39s-1.24.43-2.7,1-2.68,1-2.7,1,1.19-.6,2.68-1.3c3.15-1.48,2.86-1.26,3.12-2.35a8.52,8.52,0,0,1,5.91-6.61l.78-.25,4.86-.05,4.84,0,2.34-1.19L73,103.14l2.41-1.28-13.37,0c-7.36,0-13.42,0-13.48,0a2,2,0,0,0-.39.61c-7.58,15-30.28,12.23-33.86-4.17-.1-.46-.19-.84-.2-.85s-1,.37-2.17.83c-3.21,1.26-7.8,3-7.83,3S6.26,100.17,9,98.9l4.94-2.33L13.86,95A18.07,18.07,0,0,1,44.05,81a4.77,4.77,0,0,0,.82.64c.14,0,6.24-3.56,6.45-3.77a2,2,0,0,0-.25-.84c-.86-2-1-2.82-1-7.92,0-2.37-.07-4.32-.08-4.33s-.38,0-.85,0c-16.61,0-23.7-22.36-10.3-32.46C54,20.85,74.31,37.68,66,54.73l-.58,1.19,0,6.37c0,3.5.06,6.4.1,6.44s10.64-7.09,15.22-10.45l.75-.54-1.65,0-1.64,0-.31-.17a4.18,4.18,0,0,1-1.59-1.76l-.17-.49V38.73l.3-.61a2.94,2.94,0,0,1,1.64-1.52l.53-.19V31.77h3.33v4.57H83c.61,0,1.35,0,1.66.06l.55.06,0-3.45,0-3.45,1.63,0,1.63,0,0,1.49c0,.82.06,2.37.06,3.42v1.91h.61c.33,0,1.06,0,1.61.06l1,.06,0-2.32,0-2.33,1.64,0,1.64,0V32a2.09,2.09,0,0,0,0,.34s0,1,0,2.08v2l.43.18a3.36,3.36,0,0,1,1.47,1.49l.21.45,0,3.4,0,3.4,2-1.73c10.47-9,18.61-17.4,24.65-25.51a51.54,51.54,0,0,0,4.36-6.7,11.58,11.58,0,0,0-1.64-.95,83.33,83.33,0,0,0-43-9.4ZM95.58,132.5a3.64,3.64,0,0,1,1.49,1.42l.24.46,0,8.39,0,8.39-.12.36a3.17,3.17,0,0,1-1.71,1.89l-.2.05-.06,1c0,.52-.06,1.58-.06,2.33v1.38H91.88v-4.58H88.64v.52c0,.29,0,.59,0,.69s0,1.41,0,2.9l0,2.72H85.23v-6.83l-1.64,0-1.64,0,0,2.24,0,2.25-1.64,0-1.64,0v-2c0-1.09,0-2.14,0-2.31l0-.32-.58-.25a3.14,3.14,0,0,1-1.62-1.69l-.17-.48v-8.17c0-6.33,0-8.26.12-8.54a3.12,3.12,0,0,1,2-2l.41-.13,8.26,0,8.26,0,.43.19Z"/><path class="cls-3" d="M134.67,15.93a93.07,93.07,0,0,1-9.31,11.27L124,28.62h.5c5.44,0,11.55,3.59,14.61,8.58,7.26,11.85-1,27.2-14.74,27.54l-1,0-.06,1c0,.55,0,2,0,3.27l0,2.28,1.39-1.07A269.88,269.88,0,0,0,158,40c.89-1,.94-.69-.48-2.67a89.07,89.07,0,0,0-20.81-20.83c-1.74-1.24-1.58-1.2-2-.55Z"/><path class="cls-3" d="M48.42,37.07a9.72,9.72,0,0,0-8.86,9.83v1.44l.24.87A11.84,11.84,0,0,0,41,52a4.84,4.84,0,0,1,.26.45,3.18,3.18,0,0,0,.48.6c.12.12.17.21.14.21a2.19,2.19,0,0,0,.39.46,10.7,10.7,0,0,0,4.59,2.66l.88.24h3.14l.89-.24A9.85,9.85,0,0,0,59,44.86a10,10,0,0,0-10.53-7.79Z"/><path class="cls-3" d="M123,37a9.81,9.81,0,1,0,10.28,10.78A9.8,9.8,0,0,0,123,37Z"/><path class="cls-3" d="M103.59,46.88c-1.13.9-3,2.34-4.1,3.19l-2,1.56,0,2,0,2-.22.45a3.19,3.19,0,0,1-1.4,1.39l-.45.23-3.23,0-3.23.05L86.4,59.44c-1.36.92-3.06,2.05-3.77,2.52l-1.3.84,7.92,0,7.92,0,0,3.44,0,3.43h9.7l.31-.18c.81-.48.81-.48.81-7.71V55.71l-.44-.86a17,17,0,0,1-1.93-8c0-.9,0-1.63,0-1.63s-.94.73-2.07,1.64Z"/><path class="cls-3" d="M161.44,46.15c-1.94,1.47-5,4-10.24,8.33a342.82,342.82,0,0,1-27.37,21l-1.22.84-.29.7a8.1,8.1,0,0,1-7.56,5.1h-.88l-1.5,1-3.66,2.3c-1.19.73-2.18,1.35-2.2,1.37s4.26,0,9.5,0h9.54L126,86a18.1,18.1,0,0,1,33.69,12.41c0,.1-.08.34-.12.54-1.27,5.93-7.37,11.87-13.26,12.93l-1,.18a18.16,18.16,0,0,1-18.92-8.83c-.32-.53-.64-1.07-.73-1.2l-.16-.25-14.1,0-14.1,0v4.85l1.93.05c1.06,0,5.4.06,9.63.07l7.7,0,.71.13c4.35.83,7,4.6,7.12,10.22,0,.94,0,.93,1,1a18.33,18.33,0,0,1,15.59,12.34,9.41,9.41,0,0,0,.4,1.12c.16.2,9.06-7.52,14.1-12.23,5.86-5.48,18.37-18,18.87-18.91.23-.39.38-4,.39-8.8V86.78l-.16-2a93.58,93.58,0,0,0-9.24-34.39c-1-2.13-2.58-5-2.67-5s-.54.37-1.13.82Z"/><path class="cls-3" d="M74.17,67.36l-3.19,2-.62.39h6.52v-2a14.33,14.33,0,0,0-.07-2s-1.22.74-2.64,1.64Z"/><path class="cls-3" d="M80.2,82.46V99.21l1-.55c3.56-2,11.28-6.58,12.31-7.28l.37-.26V79.91c0-6.16,0-11.88-.06-12.7l-.05-1.5H80.2V82.46Z"/><path class="cls-3" d="M50.43,81.08c-1.34.69-2.82,1.44-3.3,1.67-1,.51-1,.33-.14,1.66a18.91,18.91,0,0,1,1,1.76l.31.65H62.61c11.35,0,14.27,0,14.28-.11,0-.29,0-4.43-.07-4.49s-4.32-.07-9.54-.07c-9.37,0-10.08,0-10.79-.29L56,81.7a9.39,9.39,0,0,1-2.49-1.39c-.33-.27-.62-.49-.63-.49l-2.45,1.26Z"/><path class="cls-3" d="M97.23,82.21s-.06,1.06-.06,2.28v2.22l.48,0c.26,0,1.06,0,1.79.06l1.32,0,2.71-1.76L107,82.73l.87-.58H102.6c-2.92,0-5.33,0-5.37.06Z"/><path class="cls-3" d="M30.46,84.76a9.93,9.93,0,0,0-7.61,5.52A9.09,9.09,0,0,0,22,92.79c.24.22,13.42-5.77,14.56-6.61l.16-.12-.43-.22-.59-.29a11.36,11.36,0,0,0-5.26-.79Z"/><path class="cls-3" d="M140.57,84.76a9.85,9.85,0,1,0,10.79,12l.2-.77V94.5c0-4.29-3.11-8.64-6.67-9.33a2.69,2.69,0,0,1-.38-.12,11,11,0,0,0-3.94-.29Z"/><path class="cls-3" d="M36.1,88c-2.78,1.28-6.9,3.1-10.78,4.76-1.85.79-3.4,1.47-3.44,1.51a9.35,9.35,0,0,0,.32,2.87c0,.07.11.38.2.66,2.72,9.28,16.93,8.24,18.92-1.39l.19-.93,0-1.35a9.39,9.39,0,0,0-2.62-6.39c-.72-.79-.42-.82-2.74.26Z"/><path class="cls-3" d="M92.19,95.18c-3.32,1.87-9.42,5.17-11.24,6.09l-.75.37v21.91H93.85V108.91c0-8,0-14.63,0-14.63s-.75.4-1.64.9Z"/><path class="cls-3" d="M74.63,104.47c-1.21.6-2.78,1.37-3.5,1.71l-1.3.62,2,0c1.11,0,2.71,0,3.57,0l1.55-.06v-1.58a11.23,11.23,0,0,0-.07-1.69,10.25,10.25,0,0,0-2.27,1Z"/><path class="cls-3" d="M47.73,126.3a9.83,9.83,0,1,0,11,12.57,9.87,9.87,0,0,0-11-12.57Z"/><path class="cls-3" d="M121.85,126.3c-11.16,2.11-10.64,18.22.63,19.45l.91.11.48-.34c.72-.5,4.87-3.67,7.11-5.42l2-1.56.1-.3c1.57-4.45-1.95-10.38-7-11.77l-.85-.24-1.34,0a10.35,10.35,0,0,0-2.05.1Z"/><path class="cls-4" d="M82,.12c-66.8,3.73-104.57,82.8-67.37,141C55.16,204.61,148.08,190.08,169.16,117a67.49,67.49,0,0,0,1.73-7.19c-.14-.13-2,1.37-5.31,4.15-6.07,5.18-14.65,12.14-22.37,18.14L140,134.61l-.05,1.3a20,20,0,0,1-.57,4c-.08.27-.16.58-.18.67a1.7,1.7,0,0,1-.16.51,1.22,1.22,0,0,0-.09.27.9.9,0,0,1-.08.23c0,.07,0,.12,0,.12s0,.13-.13.29a2.17,2.17,0,0,0-.19.36,3.19,3.19,0,0,1-.2.49l-.2.47c-.07.28-.17.45-.25.45s-.07,0,0,.06-.05.2-.17.36-.2.3-.16.3,0,.1-.15.22-.17.23-.12.23,0,.07-.1.14-.14.13-.11.13,0,.11-.15.24-.21.28-.18.32,0,.07,0,.07a2.34,2.34,0,0,0-.46.53,9.21,9.21,0,0,1-.62.8,12.46,12.46,0,0,1-2.18,2.08s-.1.05-.14.12-.12.15-1.22.88a14.21,14.21,0,0,1-2,1.21,1.94,1.94,0,0,0-.43.21,1.55,1.55,0,0,1-.45.19c-.07,0-.13,0-.13.1s0,.08-.06.05-.14,0-.25,0a1.12,1.12,0,0,1-.27.12l-.9.29a18.42,18.42,0,0,1-11.12,0l-1.07-.33-.24.14L112.23,154c-1.44.86-4.82,2.85-7.54,4.43s-5.57,3.22-6.34,3.68c-4.73,2.81-10.18,5.71-18.72,9.93-5.33,2.64-10.12,4.95-10.16,4.91s1.27-.75,2.86-1.64c8.66-4.81,22.8-13,28.4-16.42,4.52-2.77,12.18-7.72,12.17-7.86a4.79,4.79,0,0,0-.77-.54,18.1,18.1,0,0,1-5.52-24.92l.55-.84V122c0-2.93-.06-3.43-.44-3.88l-.24-.28-.76-.13-.77-.13-4.8,0-4.81,0,0,4.25,0,4.24H75.12L75.07,122c0-2.29-.07-4.21-.11-4.27s-9.95-.15-10.86,0-1.13.3-1.38.81l-.2.41,0,2.82,0,2.83.33.49a19.26,19.26,0,0,1,2.88,7.08l.2,1v2.07A17.15,17.15,0,0,1,60.82,148c-1.33,1.37-4.72,3.77-5,3.51,0,0-.06,0-.06,0a3.12,3.12,0,0,1-1,.52l-.44.17c-6,2.67-15.2.46-19.78-4.76a18,18,0,0,1,11.56-30.13l1-.11.06-1.35a12.17,12.17,0,0,0,0-1.39s-1.23.44-2.7,1-2.68,1-2.7,1,1.19-.61,2.68-1.31c3.16-1.48,2.86-1.26,3.12-2.34a8.55,8.55,0,0,1,5.91-6.62l.79-.25,4.85,0,4.85,0,2.33-1.2c1.29-.66,3.42-1.77,4.75-2.47l2.41-1.27-13.37,0c-7.35,0-13.41,0-13.47,0a2,2,0,0,0-.4.61c-7.58,15-30.28,12.23-33.86-4.17-.1-.46-.19-.83-.2-.84s-1,.36-2.17.82c-3.2,1.26-7.8,3-7.83,3S4.39,99.23,7.1,98L12,95.64l0-1.54A18.08,18.08,0,0,1,42.17,80a6.55,6.55,0,0,0,.82.65c.14,0,6.24-3.57,6.45-3.78.05-.05,0-.39-.24-.83-.86-2-1-2.82-1.05-7.93,0-2.37-.08-4.32-.08-4.33s-.39,0-.86,0c-16.6,0-23.7-22.36-10.3-32.45,15.16-11.42,35.52,5.41,27.17,22.45L63.5,55l0,6.37c0,3.5.06,6.4.1,6.44S74.27,60.7,78.85,57.35l.74-.55-1.64,0-1.65,0L76,56.56a4.26,4.26,0,0,1-1.58-1.75l-.17-.5V37.79l.29-.6a3,3,0,0,1,1.65-1.53l.53-.19V30.83H80v4.58h1.11c.61,0,1.36,0,1.66.06l.55.05,0-3.44,0-3.45,1.62,0,1.63,0,.06,1.5c0,.82.06,2.36.06,3.41v1.92h.6c.34,0,1.06,0,1.62.06l1,.05,0-2.32,0-2.33,1.63,0,1.64,0v.24c0,.14,0,.29,0,.34s0,1,0,2.08v2l.43.18a3.38,3.38,0,0,1,1.48,1.49l.2.45,0,3.4,0,3.41,2-1.74c10.48-9,18.62-17.4,24.65-25.5a52.12,52.12,0,0,0,4.36-6.71,13.37,13.37,0,0,0-1.64-1A83.29,83.29,0,0,0,82,.12ZM93.7,131.57A3.56,3.56,0,0,1,95.19,133l.25.46,0,8.39,0,8.39-.12.36a3.17,3.17,0,0,1-1.71,1.89l-.21.05-.06,1c0,.52-.06,1.58-.06,2.34v1.38H90v-4.59H86.77v.52c0,.29,0,.6,0,.7s0,1.4,0,2.89l0,2.72H83.35v-6.83l-1.63,0-1.64,0,0,2.24,0,2.25-1.64,0-1.64,0v-2c0-1.1,0-2.15-.06-2.32l-.05-.32-.57-.25a3.16,3.16,0,0,1-1.63-1.69l-.16-.48V142c0-6.33,0-8.25.11-8.54a3.11,3.11,0,0,1,2-2l.41-.13H85l8.26,0,.42.2Z"/><path class="cls-5" d="M132.79,15a92.11,92.11,0,0,1-9.3,11.27l-1.35,1.42h.49c5.44,0,11.56,3.59,14.61,8.58,7.27,11.85-1,27.2-14.74,27.54l-1,0-.06,1c0,.54,0,2,0,3.27l0,2.27,1.39-1.06A268.48,268.48,0,0,0,156.09,39c.89-1,.95-.69-.48-2.67a88.61,88.61,0,0,0-20.8-20.82c-1.74-1.25-1.59-1.21-2-.56Z"/><path class="cls-6" d="M46.55,36.13A9.73,9.73,0,0,0,37.69,46V47.4l.24.87A11.28,11.28,0,0,0,39.12,51a4.84,4.84,0,0,1,.26.45,2.74,2.74,0,0,0,.48.61c.11.11.17.2.14.2a1.85,1.85,0,0,0,.39.46A10.64,10.64,0,0,0,45,55.41l.88.24H49l.88-.24a9.86,9.86,0,0,0,7.2-11.49,10,10,0,0,0-10.53-7.79Z"/><path class="cls-7" d="M121.12,36.1A9.81,9.81,0,1,0,131.4,46.89,9.81,9.81,0,0,0,121.12,36.1Z"/><path class="cls-8" d="M101.71,45.94c-1.13.9-3,2.34-4.09,3.2l-2,1.55,0,2,0,2-.22.45a3.29,3.29,0,0,1-1.39,1.4l-.45.22-3.23,0-3.24,0L84.52,58.5c-1.35.92-3,2.06-3.77,2.52l-1.29.84,7.92,0,7.92,0,0,3.44,0,3.43H105l.31-.18c.82-.48.82-.48.82-7.71V54.77l-.44-.86a17,17,0,0,1-1.93-8c0-.89,0-1.63,0-1.63l-2.07,1.64Z"/><path class="cls-9" d="M159.56,45.22c-1.93,1.46-5,4-10.24,8.32a342.28,342.28,0,0,1-27.36,21l-1.22.84-.29.7a8.1,8.1,0,0,1-7.56,5.1H112l-1.51,1-3.66,2.3-2.19,1.38s4.25,0,9.5,0h9.53l.39-.78a18.09,18.09,0,0,1,33.69,12.41c0,.1-.07.35-.12.54-1.26,5.93-7.36,11.88-13.26,12.93l-1,.18a18.17,18.17,0,0,1-18.92-8.82c-.31-.53-.64-1.08-.73-1.21l-.15-.25-14.11,0-14.1,0v4.85l1.94,0c1.06,0,5.39,0,9.62.06l7.7,0,.71.14c4.36.82,7,4.59,7.13,10.22,0,.93,0,.92,1,1A18.28,18.28,0,0,1,139,129.6c.19.58.37,1.09.4,1.13.17.19,9.07-7.53,14.1-12.23,5.86-5.49,18.37-18,18.88-18.92.22-.39.38-4,.38-8.8V85.84l-.16-2a93.44,93.44,0,0,0-9.24-34.4c-1-2.13-2.58-5-2.67-5s-.54.38-1.13.83Z"/><path class="cls-10" d="M72.29,66.42l-3.18,2-.62.38H75v-2a14,14,0,0,0-.07-2s-1.22.74-2.64,1.63Z"/><path class="cls-11" d="M78.33,81.52V98.27l1-.55c3.55-2,11.28-6.58,12.3-7.28l.38-.26V79c0-6.17,0-11.89-.06-12.71l-.06-1.49H78.33V81.52Z"/><path class="cls-12" d="M48.55,80.14l-3.29,1.68c-1,.5-1,.32-.14,1.66a19.88,19.88,0,0,1,1.05,1.76l.31.64H60.74c11.34,0,14.26,0,14.27-.11,0-.29,0-4.43-.06-4.49s-4.32-.07-9.55-.07c-9.37,0-10.07,0-10.79-.29l-.49-.16a9.26,9.26,0,0,1-2.49-1.39,5.08,5.08,0,0,0-.63-.48l-2.45,1.25Z"/><path class="cls-13" d="M95.36,81.27s-.06,1.06-.06,2.28v2.22l.47,0c.26,0,1.07,0,1.79.05l1.32,0,2.71-1.76,3.58-2.34.86-.58h-5.31c-2.91,0-5.33,0-5.36.06Z"/><path class="cls-14" d="M28.59,83.82A9.91,9.91,0,0,0,21,89.34a9,9,0,0,0-.84,2.51c.24.23,13.42-5.76,14.56-6.61l.16-.12-.43-.22-.58-.29a11.38,11.38,0,0,0-5.26-.79Z"/><path class="cls-15" d="M138.7,83.82a9.85,9.85,0,1,0,10.79,12l.19-.77V93.56c0-4.28-3.11-8.64-6.66-9.33a2.08,2.08,0,0,1-.39-.12,11,11,0,0,0-3.93-.29Z"/><path class="cls-16" d="M34.23,87.07c-2.78,1.29-6.9,3.1-10.78,4.76C21.6,92.62,20,93.3,20,93.34a9.67,9.67,0,0,0,.32,2.87c0,.07.12.38.2.67,2.72,9.28,16.93,8.23,18.92-1.4l.19-.93,0-1.35A9.44,9.44,0,0,0,37,86.81c-.72-.79-.43-.82-2.74.26Z"/><path class="cls-17" d="M90.32,94.25c-3.33,1.87-9.42,5.16-11.25,6.08l-.74.37v21.92H92V108c0-8.06,0-14.64,0-14.64l-1.63.91Z"/><path class="cls-18" d="M72.76,103.53c-1.22.6-2.79,1.37-3.51,1.71l-1.3.63,2,0c1.12,0,2.72,0,3.57,0l1.55-.06v-1.58a11.33,11.33,0,0,0-.07-1.69,10.75,10.75,0,0,0-2.26,1Z"/><path class="cls-19" d="M45.86,125.37a9.83,9.83,0,1,0,11,12.56,9.86,9.86,0,0,0-11-12.56Z"/><path class="cls-20" d="M120,125.36c-11.15,2.11-10.63,18.22.63,19.46l.92.1.47-.33c.72-.5,4.88-3.67,7.12-5.43l2-1.55.11-.31c1.57-4.45-1.95-10.37-7-11.77l-.84-.24-1.35,0a10.4,10.4,0,0,0-2,.1Z"/><path class="cls-21" d="M503.45,60.36l-.76.13-.89.44-.88.43-.83.83-.84.83-.39.86-.39.86-.18.93-.17.94.18,1.07.17,1.06.48,1,.48,1,.88.81.88.8.6.31.61.31h.48l0,5.76,0,5.77,1.69,0,1.68,0V73.13l1-.46,1-.46.8-.8.8-.79.42-.86.42-.85.18-.86.18-.85L511,66.12,510.9,65l-.47-1L510,63l-.74-.79-.73-.79-1-.47-1-.47-.94-.15-.94-.16-.24,0-.23,0-.77.12Zm2.63,2.72.51.22.59.52.58.51.29.56.29.57.11.67.11.67-.19.78-.18.78-.45.62-.45.62-.71.41-.7.41-.85.09-.85.09-.78-.26-.77-.25-.59-.58-.6-.58-.32-.63-.32-.63V65.76l.35-.71.34-.71.43-.42.44-.42.63-.31.62-.31h2l.52.21Z"/><path class="cls-21" d="M469.6,77.28l-.86.29-.39.21L468,78l-.84.8-.85.8-.45.88-.44.88-.19,1-.18,1,.17,1,.17,1,.39.85.39.86.83.83.84.83.87.42.87.43,1,.16,1,.17,1-.18,1-.17.81-.37.81-.37.68-.63.69-.63,1,.43,1,.44L485,91.18,491.32,94l.11-.12.11-.13.63-1.36.64-1.37-.19-.14-.18-.14-5.33-2.32-5.34-2.32L480,85.25l-1.8-.81-.11-1.34-.1-1.35-.42-.89-.41-.88-.79-.86-.79-.87-1.18-.58-1.17-.58-1.36,0L470.46,77l-.86.29Zm3.85,2.77.72.42.45.62.45.62.19.79.19.8-.1.63-.1.63-.3.57-.3.58-.52.5-.52.5L473,87l-.58.24h-1.9l-.7-.33-.7-.33-.5-.56-.49-.56-.23-.56-.23-.55V82.57l.27-.67.26-.67.77-.69.77-.69.59-.16.59-.17.9.06.9.06.71.41Z"/><path class="cls-21" d="M539.89,84.69l-.59.15-.78.4-.78.39-.57.5-.57.5-.51.8-.52.81-.27,1.09L535,90.42l-.16.19-.16.2h-1L533,91l-.71.23-.94.18-.94.18-.55.13-.55.12L524,93.15l-5.38,1.28-.23.09-.23.09V95l.22,1.41.22,1.42v.1l.51-.1.51-.11,2.67-.62,2.66-.62,2.2-.56,2.2-.55.63-.14.63-.13.62-.16.63-.16.47-.1.47-.1,1.47-.32,1.48-.33.16.3.17.3.78.83.78.82,1,.47.95.47,1,.16,1,.16,1-.16,1-.16,1-.47,1-.47.73-.79.74-.79.48-1,.47-1,0-1.77,0-1.77-.45-.91-.45-.91-.76-.76-.77-.77-1-.5-1-.5-1.38-.05-1.37-.06-.59.15Zm2.8,2.43.78.23.65.55.64.56.35.71.35.72v2l-.31.7-.31.69-.71.66-.72.65-.6.17-.61.17h-1.37l-.62-.18-.62-.19-.72-.63-.72-.64-.28-.63-.29-.63V89.93l.41-.82.4-.81.58-.48.57-.47.71-.22.71-.22h1l.78.23Z"/><path class="cls-21" d="M490.62,108.47l-2.57,2-.55.42-.55.43-1.79,1.38L483.37,114h-.25l-.52-.3-.52-.3-.93-.27-.94-.27L479,113l-1.19.08-.94.35-.94.36-1.11,1.11L473.73,116l-.35,1-.35.94-.09,1-.08,1,.26,1,.25,1,.38.66.39.66.75.73.76.74.83.41.83.42,1,.17,1,.16,1.05-.19,1-.19,1-.46,1-.46.8-.87.78-.86.44-.9.44-.9.06-1.37.06-1.38-.25-.74-.26-.74.2-.18.2-.18,3.77-2.87,3.76-2.88.88-.67.87-.67.19-.21.17-.22-1-1.09-1-1.09-.19-.11-.19-.12-2.57,2ZM481,115.92l.59.3.56.61.56.62.2.61.21.61v1.45l-.27.71-.27.72-.68.62-.67.62-.61.21-.62.2h-1.41L478,123l-.61-.21-.62-.55-.62-.56-.3-.59-.3-.58-.1-.63-.1-.64.19-.79.19-.79.63-.71.64-.72.49-.25.49-.26.39-.13.4-.13.83.08.84.08.58.3Z"/><path class="cls-21" d="M511.14,110.57l-.1.15-1.22.5-1.21.5-.11.1-.11.11,1.49,2.74,1.5,2.75.82,1.49.83,1.49,2.46,4.49,2.46,4.49v.47l-.49.61-.49.61-.39.87-.39.86-.08,1.28-.09,1.27.33,1.08.34,1.08.59.78.6.78.78.59.78.6,1,.33,1,.33,1.37-.06,1.38-.07,1-.51,1-.5.85-.92.85-.92.29-.6.28-.6.21-.79.21-.8v-1.68l-.25-.95-.25-1-.44-.64-.43-.64-.78-.73-.78-.72-.77-.36-.78-.36-1.68-.07-1.69-.07-.61-1.12-.61-1.12L517.25,121l-2.63-4.79-1.49-2.7-1.49-2.7-.21-.17-.2-.17-.09.15Zm12.7,20.34.54.23.55.41.54.41.4.8.4.81v1.9l-.29.63-.29.62-.61.59-.61.58-.68.24-.69.24h-1.45l-.71-.31-.7-.32-.45-.43-.45-.42-.31-.6-.3-.6-.1-.77-.09-.77.2-.71.2-.71.61-.69.6-.69.67-.33.67-.33h1.82l.54.23Z"/><path class="cls-22" d="M190.06,28.86l-.53.19-.63.53-.63.53-.29.64-.29.65V67.82l.35.7.36.7.66.5.66.5.8.17.8.17h40.4l1.41-.17,1.41-.18,1.5-.37,1.49-.38,1.62-.8,1.62-.81L242,67l1.2-.89,1.06-1.16,1.07-1.15.7-1.43.7-1.42L247,60l.25-.94.08-1.74.09-1.75-.19-1.31L247,52.9,246.6,52l-.39-.94-.48-1.17-.48-1.17V47.56l.71-1.49.71-1.49.26-.94.25-.94.08-1.65.08-1.65-.25-1.18-.25-1.17-.56-1.14-.55-1.13-.86-1.08L244,32.63l-1-.8-1-.79-1-.57-1-.57-1.16-.39-1.17-.4-1.31-.23L235,28.65H190.58l-.52.19Zm46,2.22,1.36.24,1.21.47,1.2.46.87.58.86.58.8.82.8.82.66,1,.65,1,.25.78.24.79.08,1.41.08,1.41-.24,1.15-.25,1.14L244,45.25l-.72,1.53-.14.73-.14.74.23.91.24.92.7,1.63.7,1.63.18,1.12.17,1.11-.09,1.65L245,58.87l-.31,1-.32,1-.57.94-.56.94-.89.92-.9.91-.94.68-.94.68-1.42.71-1.42.71-1.25.31-1.25.32-1.33.17-1.34.17-20.35,0-20.36,0L190.4,68l-.44-.33,0-18,0-18,.49-.41.48-.4h43.89l1.37.23Z"/><path class="cls-23" d="M249.37,28.8l-.4.12-.5.26-.51.26-.24.46-.23.46v1.13l.31.6.31.61,3.4,3.12,3.41,3.11,3.78,3.36,3.78,3.36,2.35,2.16L267.19,50l1,1,1,1,.21.62.2.61.09,7.3.09,7.3.25.55.25.55.64.58.64.58.82.25.83.24h5.38l.81-.24.82-.24.57-.51.57-.5.29-.63.28-.63V55.88l.14-1.35.14-1.36.2-.68.2-.69,1.15-1.13,1.15-1.13,5.61-5.07,5.61-5.07,2.67-2.35,2.67-2.35,1.06-1.06,1.07-1.07.32-.72.32-.72-.1-.53-.1-.53-.39-.46-.39-.47-.66-.25-.67-.26-5.26.05-5.25.06-.83.27-.83.28-1.58,1.27-1.58,1.28-2.3,2-2.3,2-1.41,1.35-1.41,1.36-.65.5-.64.5L277,40l-.8.4h-.89l-.67-.3L274,39.8,269.73,36l-4.27-3.8-.94-.91-.94-.91-.95-.56-.94-.57-1-.3-1-.31h-5l-5,0-.39.12Zm11.5,2.55.9.42,1.14,1.07,1.14,1.07,4.15,3.69,4.14,3.68.48.36.49.36,1.07.33,1.08.33.81-.09.8-.1,1.13-.57,1.13-.57,1.42-1.28,1.42-1.28,2.32-2.12,2.32-2.13,1.92-1.59,1.91-1.6.82-.24.82-.24h9.55l-.09.27-.1.28-1.29,1.19-1.3,1.2-6.51,5.85L286,45.49l-2.4,2.22-2.41,2.21-.38.64-.38.64-.34,1.24-.34,1.25-.07,6.93-.07,6.93-.39.37-.39.36h-6.08l-.44-.43-.44-.44-.08-7.25-.09-7.26-.35-1.06L271,50.78l-1-1-1-1-2.44-2.24-2.45-2.23-3.76-3.36-3.77-3.35-3.51-3.21-3.5-3.22.21-.13.21-.14,4.94,0,4.94,0,.91.43Z"/><path class="cls-24" d="M310.41,28.86l-.56.21-.5.35-.49.35-.42.72-.43.73-.06,2-.07,2,.18.82.19.82.53.63.54.62.83.38.83.37,9.34.09,9.34.08.63.25.63.24.31.54.31.53.08,13.66.08,13.65.37.76.38.76.59.39.59.39.75.23.75.22h5.39l.74-.22.74-.22.52-.41.53-.4.37-.59.37-.59.08-13.66L344,40.81l.28-.65.29-.66.26-.1.26-.11.48-.17L346,39l9.35-.09,9.35-.09.92-.47.93-.47.47-.68.48-.68v-5.6L367,30.2l-.47-.67-.78-.4-.78-.4-27,0-27,0-.57.2Zm54.46,2.3.51.31,0,2.22,0,2.22-.44.34-.44.33-9.37.08-9.37.09L345,37l-.62.2-.58.29-.57.29-.49.6-.49.59-.27.79-.26.78-.09,13.56-.08,13.56-.44.33-.44.33-2.78,0-2.78,0-.54-.28-.55-.28-.1-.47-.1-.47,0-13,0-13-.24-.94-.24-.93-.43-.63-.44-.63-.65-.36-.65-.36-1.07-.22L329,36.66H311.92l-.56-.15-.57-.16-.3-.33-.29-.33-.05-1.83,0-1.83.2-.39.2-.39.39-.19.4-.2h53.05l.52.31Z"/><path class="cls-25" d="M373.88,28.84l-.52.17-.68.61-.69.6-.26.68-.26.68,0,2.45.05,2.44.48.68.48.68.92.47.93.47,26.37,0,26.37,0,.87-.16.88-.16.62-.44.63-.43.47-.68.47-.68.06-2.23.05-2.23-.18-.66-.17-.66-.49-.56-.49-.55-.64-.35-.65-.34-27.07,0-27.08,0-.52.16Zm54.69,2.53.38.44v3.77l-.45.44-.44.45-.7.1-.69.1-25.9-.05-25.9,0-.55-.33-.55-.32,0-2.13-.05-2.13.49-.41.49-.42,26.77,0,26.76,0,.38.45Z"/><path class="cls-26" d="M446.14,28.82l-.95.14-1.06.32-1.06.32-1.55.79-1.55.79-1,.86-1,.86-.71.89-.71.9-.46.94-.46.95-.28,1-.27,1v3.76l.22.87.21.86.48.94.47.94.59.88.59.87,1.2,1.12L439.94,50l1.61.8,1.6.79,1.2.31,1.2.3,1.21.17,1.2.17h26.27l2,.14,2,.15,1.15.53,1.16.54.64.58.65.58.18.56.19.56-.09.61-.08.62-.41.54-.42.54-.9.62-.91.61-.62.17-.62.17-1.8.15-1.8.16H438.41l-.73.22-.74.22-.56.43-.56.42-.37.81-.38.8v4.27l.18.53.17.54.39.51.38.51.81.43.82.43,20.79,0,20.8,0,1.73-.25,1.72-.25,1.65-.54,1.65-.55,1.26-.73,1.25-.72.87-.66.86-.66L491.5,65l1.1-1.17.59-1,.59-1,.39-1.22.39-1.23.17-1.48.18-1.49-.18-1.53-.18-1.53-.44-1.27-.44-1.28-.76-1.16-.76-1.15-1.43-1.42-1.44-1.41L488,44.91l-1.29-.77-1.38-.51L484,43.11l-1.57-.35-1.57-.35-15.06-.11-15.07-.1L450,42l-.74-.19-.52-.35-.51-.34-.06-.45-.05-.44.43-.45.42-.44.73-.2.72-.19,20.8-.09,20.8-.09.63-.28.62-.28.45-.43.45-.42.34-.63.34-.63V31.24l-.36-.66-.35-.66-.52-.4-.52-.39-.68-.24-.68-.24-22.3,0-22.31,0-.94.13ZM492,31.15l.5.31.1.54.11.55-.06,1.56,0,1.57-.3.33-.3.33-.56.16-.57.15H451.94l-1.33.17-1.34.16-.76.25-.77.25-.63.57-.63.57-.29.62-.28.63v1.35l.24.58.25.58.34.37.35.37.74.38.74.38.91.26.9.27,15.07.1,15.07.1,1.57.35,1.57.35,1.27.51,1.28.52.92.6.93.6,1.33,1.35,1.33,1.35.55.92.54.92.28.84.28.84.18,1.22.17,1.22-.11,1.1-.1,1.09-.24.93-.23.93-.53,1-.53,1-.76.9-.75.9-1.1.87-1.1.87-1.33.69-1.34.68-1.1.34-1.09.34-1.5.22-1.49.23H438.67l-.53-.22-.53-.22-.17-.32-.18-.31V63.63l.18-.32.17-.31.53-.22.53-.23h35.88l1.88-.16,1.88-.15.94-.24.94-.24,1.13-.71,1.14-.71.63-.71.63-.72.33-.88.34-.89-.07-1-.07-1-.35-.68-.34-.67-.56-.62-.56-.62-.89-.53-.88-.53L479.62,51l-1.05-.42-2.25-.15-2.24-.16h-26l-1.23-.17L445.66,50l-1.41-.45-1.41-.46-1-.59-1-.59-1.13-1.18-1.12-1.18-.57-1.1-.57-1.09-.18-1-.17-1v-1.7l.22-1,.22-1,.48-.94.47-.94.81-.88.81-.89,1.14-.76,1.14-.76,1.19-.5,1.18-.49L446,31.1l1.23-.23H491.5l.5.3Z"/><path class="cls-27" d="M374.48,42.46l-.55.12-.4.16-.41.16-.52.44-.52.44-.29.64-.29.63v4.81l.26.5.25.5.41.45.42.44.63.34.62.34,26.85,0,26.84,0,.67-.19.68-.18.6-.44.61-.43.42-.87.42-.86-.05-2.34-.06-2.34-.47-.77-.48-.77-.92-.47-.93-.48-26.62,0-26.62,0-.54.12Zm53.26,2.21.6.17.3.3.31.3v3.91l-.38.44-.38.44-26.43.05-26.42,0-.48-.08-.49-.09-.34-.32-.34-.32V45.34l.3-.27.3-.27.44-.14.45-.13h26l26,0,.6.17Z"/><path class="cls-28" d="M373.88,60.65l-.83.29-.49.45-.48.46-.29.63-.29.62v4.71l.29.64.29.64.61.5.61.51.79.23.8.23,26.75,0,26.76,0,.63-.34.63-.33.44-.45.44-.44.26-.48.26-.47.05-2.29.06-2.3-.35-.82-.36-.83-.63-.45-.62-.46-.79-.23-.79-.23H374.71l-.83.28Zm54.19,2.13.54.22.17.31.17.32v3.75l-.38.4-.37.4-.53.1-.53.09-26.24,0-26.24,0-.45-.33-.44-.33,0-2.08-.05-2.09.28-.31.28-.31.31-.13.32-.13h52.67l.53.23Z"/><path class="cls-29" d="M201.66,36.83l-.86.14-.81.37-.8.37-.42.45-.42.46-.3.78-.29.79,0,9.26-.05,9.26.19.64L198,60l.46.64.46.64,1,.49,1,.48,1.18.15,1.18.15h23.86l1.88-.16,1.88-.16.93-.23.93-.24.89-.54.88-.54.73-.64.73-.63.48-1,.48-1v-2.1l-.48-1-.48-1-.73-.64-.73-.65-1.42-.69-1.42-.69-1-.19-1-.18-12.22-.09-12.22-.1-.38-.44-.38-.44V45.77l.17-.37.17-.37.34-.22.35-.23,13.18-.09,13.19-.1.75-.17.76-.18.66-.29.65-.3.54-.45.53-.45.28-.63.29-.64v-1.5l-.3-.58-.3-.58-.44-.43-.45-.42-.86-.39-.87-.4-1-.16-1-.16H216.8l-14.29,0-.85.14Zm31.09,2.38.72.28.34.32.33.31V41l-.51.4-.51.39-.71.19-.7.19-13.26.09-13.27.09-.63.29-.63.28-.58.57-.59.57-.25.76-.25.77.06,2.15.05,2.15.29.55.29.55.34.37.33.36.63.34.63.34,12.48.1,12.47.1.65.15.65.15,1,.47,1,.47.59.52.59.52.22.44.23.44v1.29l-.22.42-.22.42-.45.41-.44.41-.76.51-.76.51-1.2.24-1.21.24-12.86.07-12.87.07-1.23-.17-1.22-.16-.46-.24-.47-.24-.28-.51-.27-.51.05-9,.06-9,.24-.5.24-.51.41-.17.41-.17L202,39l.71-.14,14.68,0,14.67,0,.73.28Z"/><path class="cls-30" d="M190.33,122.52l-1.19.29-.87.39-.87.38-.91.59-.92.59-.76.64-.76.63-.86,1.06-.87,1.06-.69,1.22-.69,1.22-.42,1.22-.4,1.23-.22,1.21-.21,1.22v3.8l.24,1.35.23,1.34.48,1.32.48,1.32.72,1.22.71,1.23,1.35,1.4,1.35,1.4,1.05.69,1,.7,1.08.46,1.09.46,1.25.25,1.25.26,9.3,0,9.28,0,.44-.33.45-.33.35-.61.35-.62v-3.92l-.35-.62-.35-.62-.55-.32-.55-.32-8.55-.09-8.56-.09-.78-.24-.79-.24-.64-.33-.64-.32-1-1-1-1-.49-1-.49-1-.18-1.07-.17-1.06.19-1,.19-1.05.57-1.16.57-1.16.87-.86.88-.85.9-.46.91-.46,1.13-.15,1.14-.15h15.55l.69-.35.7-.35.37-.71.37-.71-.05-2.07,0-2.06-.33-.45-.33-.44-.52-.35-.52-.35H191.52l-1.19.29Zm19.56,3.61v1.65l-8.55.09-8.56.1-.71.19-.7.18-1,.49-1,.49-1.28,1.27-1.27,1.27-.65,1.35-.66,1.36-.25,1.15-.24,1.16.09,1.18.08,1.18.32.9.31.91.52,1,.51,1,1.26,1.27,1.26,1.27.86.41.86.4.94.27.95.28,8.47.09,8.48.09v3.3l-8.87,0-8.87.05-1.14-.25-1.15-.26-1.21-.6-1.21-.61-.88-.75-.89-.76-.62-.71-.62-.7-.56-.87-.56-.87-.39-.94-.39-.93-.26-.94-.26-.95-.09-2.11-.09-2.12.19-1.18.18-1.18.44-1.3.45-1.29.53-.88.53-.88,1-1.14,1-1.15,1.31-.86,1.3-.87,1.18-.4,1.17-.4.32-.07.31-.06,9.11,0,9.1,0v1.65Z"/><path class="cls-31" d="M217.54,122.47l-.52.25-.29.41-.29.41-.18.63-.19.62.05,13,0,13,.34.56.35.55.62.35.62.35h3.5l.6-.31.61-.31.37-.6.37-.59.08-10.08.07-10.08.28-.28.28-.28h15.63l.42.28.43.28v.61l-.43.28-.42.28-7.07.08-7.08.07-.49.28-.5.27-.32.45-.32.45-.16.69-.16.69v2.22l.17.93.18.92.31.62.32.62.79.78.8.77,5.58,5,5.57,5,.95.45,1,.45h6.53l.53-.23.53-.22.25-.47.25-.48v-.81l-.22-.52-.22-.52-5-4.51-5-4.52V140l2.23-.1,2.24-.11.78-.16.79-.15.8-.41.81-.41.86-.67.85-.67.65-1,.64-1,.32-.86.32-.85.16-1.34.17-1.35-.17-1.36-.17-1.36-.33-.8-.34-.79-.61-1-.61-1-.74-.65-.73-.64-.78-.4-.79-.4-.78-.21-.79-.21H218.05l-.51.26Zm25.57,2.44.89.44.66.71.66.72.47,1,.47,1,.14,1.1.14,1.1-.16,1.2-.15,1.2-.38.83-.39.84-.77.78-.77.77-.79.4-.79.39-1.31.17-1.31.16h-2.83l-.81.38-.82.38L235,139l-.24.48v1l.32.66.32.66.9.84.9.84,3.82,3.46,3.82,3.45-2.55,0-2.55.05-.59-.36-.6-.36-5.16-4.65-5.16-4.66-1-.92-.95-.92-.18-.82-.18-.84v-2l.15-.39.15-.4,6.95-.06,7-.05.62-.21.62-.2.58-.58.58-.58.18-.68.19-.67-.1-.59-.1-.58-.3-.49-.3-.49-.6-.4-.6-.4-.89-.16-.89-.17-7.58,0-7.58,0-.63.29-.63.28-.36.34-.37.35-.26.55-.26.55-.08,10-.08,10-1.4.05-1.4,0-.13-.2-.13-.2V124.9l.1-.25.09-.26,11.87,0,11.88,0,.88.43Z"/><path class="cls-32" d="M253.91,122.56l-.53.36-.35.51-.34.51-.11,1-.11,1,.1,1,.11,1,.16.42.16.44.27.29.26.3.63.29.62.29H283l.51-.21.51-.22.43-.49.42-.5L285,128l.18-.66-.06-1.66-.05-1.67-.42-.63-.42-.62-.54-.26-.55-.26H254.44l-.53.35Zm29,2.09.09.25v2.58l-.19.19-.19.19H255l-.15-.41-.15-.4v-1.67l.09-.49.1-.49h27.87l.1.25Z"/><path class="cls-33" d="M302.33,122.51l-.65.29-.43.54-.43.54-1,2.18-1,2.19-4.64,10.2-4.64,10.2-.21.61-.22.61v1.23l.25.47.24.47.5.31.5.31H295l.67-.33.68-.32.44-.58.45-.58,3.4-7.53,3.41-7.54.64-1.29.64-1.3.16.1.17.1,1,2.06,1,2.06,2.77,6.12,2.78,6.12.33.67.33.66.55.57.56.57.52.22.52.22h4.32l.5-.31.51-.31.24-.47.24-.47v-1.3l-.72-1.67-.73-1.67-5.09-11.23L310.09,124l-.43-.54-.43-.55-.68-.36-.68-.35H303l-.65.3Zm5.66,2.42.4.52v.18l3.71,8.14,3.7,8.13,1.87,4.15,1.87,4.14v.27h-3.27l-.32-.28-.33-.27-3-6.51-3-6.52-1.05-2.27-1.06-2.28-.6-.62-.61-.61-.85-.07-.85-.07-.59.52-.59.52-.39.62-.39.61L302,135l-.75,1.74-3,6.6-3,6.59-.33.27-.33.28h-3.26v-.28l.25-.6.26-.61,4.67-10.28,4.68-10.29.8-1.72.81-1.71.25-.29.26-.28h4.33l.4.53Z"/><path class="cls-34" d="M318.12,122.56l-.52.35-.3.41-.3.4-.14.62-.14.61v2.2l.14.68.13.69.31.41.31.42.53.31.53.31,5,.08,5,.08.28.28.28.28.08,10.08.08,10.08.36.59.38.6.6.31.61.31h3.49l.55-.26.55-.26.42-.63.42-.63.07-10.1.08-10.09.28-.28.28-.28,5.06-.08,5.06-.08.33-.19.34-.19.4-.48.41-.48.18-.66.17-.66-.06-1.66-.05-1.67-.42-.63-.41-.62-.55-.26-.55-.26H318.64l-.52.35Zm28.95,2.09.09.25v2.6l-.19.17-.21.16-4.78,0-4.78.05-.63.29-.63.28-.37.34-.36.35-.27.55-.26.55,0,9.73,0,9.73-.08.36-.09.35h-2.81l-.08-.35-.08-.36-.05-9.73,0-9.73-.37-.75-.37-.75-.81-.43-.81-.43-4.91-.05-4.91,0-.15-.39-.15-.39v-1.94l.1-.36.09-.35H347l.1.25Z"/><path class="cls-35" d="M354.56,122.54l-.54.37-.33.44-.33.45v27.26l.33.44.32.43.43.33.44.32H359l.53-.38.53-.37.29-.65.29-.64V124.32l-.29-.64-.29-.65-.53-.37-.53-.38-2,0-2,0-.53.36Zm3.83,14.89v12.95h-2.83l0-12.79,0-12.8.08-.2.07-.2,1.38,0,1.38,0v13Z"/><path class="cls-36" d="M365.58,122.51l-.51.31-.24.47-.24.47v1.32l1.2,2.68,1.19,2.69,4.43,9.73,4.42,9.73.18.42.18.42.58.65.59.65.59.3.6.31h4.78l.64-.32.65-.31.41-.43.42-.43,5.36-11.78,5.37-11.77.53-1.23.53-1.23v-1.7l-.54-.59-.53-.59-2.38,0-2.37,0-.71.34-.7.34-.39.52-.4.52-3.53,7.74-3.52,7.75-.51,1-.51,1-.2.06-.2.06-.61-1.31-.61-1.31-2.31-5-2.3-5-1.11-2.48-1.11-2.48-.61-.64-.62-.63-.53-.22-.53-.22h-4.33l-.5.3Zm5,2.36.43.46.2.52.2.51,3.61,7.93,3.62,7.93.38.52.39.53.49.31.49.3.76-.06.75-.07.55-.53.55-.53.69-1.41.69-1.41,3.4-7.46,3.4-7.46.24-.27.24-.28H395v.39l-.68,1.5-.68,1.49-5,11-5,11-.32.36-.32.35h-4.14l-.36-.37-.36-.38-3.44-7.51-3.43-7.52-2.27-5-2.27-5v-.22h3.33l.44.47Z"/><path class="cls-37" d="M409.05,122.44l-1,.22-1.21.52-1.22.53-.91.61-.92.6-.85.78-.85.78-.9,1.2-.91,1.2-.57,1.17-.58,1.18-.42,1.41-.42,1.42-.08,2.55-.08,2.56.19,1.21.2,1.21.31,1,.31,1,.62,1.26.63,1.25.87,1.14.87,1.15,1,.83,1,.83.75.51.76.52,1,.46,1,.45,1.29.31,1.29.32h10.67l1.29-.32,1.29-.31,1-.46,1-.47,1.07-.71,1.07-.71,1-1.09,1-1.09.67-1,.65-1,.61-1.29.61-1.3.34-1.39.35-1.39V135l-.2-.94-.2-.95-.33-1-.33-1-.59-1.17-.58-1.18-.71-.94-.71-.94-1-1-1-1-1.09-.7-1.09-.71-.78-.34-.79-.35-1.26-.3-1.25-.3H410l-1,.21Zm12.89,2.27,1.21.31,1.1.58,1.09.57,1.11,1,1.1,1,.71.93.71.92.55,1.18.54,1.18.33,1.21.33,1.21V140l-.34,1.24L430,142.5l-.38.84-.38.84-.6.9-.6.9-1,1.07-1,1.06-1.12.69-1.12.69-1.17.44-1.18.45H409.72l-1.1-.36-1.1-.37-1.09-.64-1.08-.64-1.13-1.11-1.13-1.12-.64-1-.63-1-.48-1.13-.47-1.14-.26-1.31-.27-1.31.08-2.46.08-2.45.34-1.17.34-1.18.63-1.21.63-1.21.9-1.07.89-1.06.92-.74.92-.74,1.12-.55,1.12-.56.94-.23.94-.22,5.27,0h5.27l1.21.31Z"/><path class="cls-38" d="M442.86,122.38l-.61.14-1,.51-1,.51-.95.94-.95.94-.5,1-.5,1-.27,1-.27,1v3.45l.41,1.22.42,1.22.63,1,.63,1,.61.54.6.55.69.4.69.41.7.27.71.27,8.32.09,8.31.1.59.29.59.28.47.54.47.53v1.58l-.66.7-.67.71-1,.14-1,.15H438.91l-.62.35-.63.35-.35.7-.36.7v3.62l.29.64.29.65.53.37.53.38,11.42,0,11.43,0,1-.25,1-.25.94-.49,1-.49,1.26-1.26,1.25-1.27.58-1.17.57-1.18.26-1.13.27-1.12-.07-2.17-.08-2.17-.33-1-.33-1-.6-1-.59-1-.75-.82L466,134l-.88-.58-.88-.59-1.12-.41L462,132l-8.17-.08-8.17-.08-.43-.28-.42-.28v-.61l.42-.28.43-.28,11.07-.08L467.8,130l.34-.19.35-.2.44-.57.44-.58.05-2.21.05-2.21-.37-.55-.37-.54-.53-.36-.53-.35h-12.1l-12.1,0-.61.14Zm24.31,3.75v1.65l-10.91.08-10.91.09-.62.21-.63.2-.58.58-.57.58-.19.68-.18.67.1.61.1.61.35.51.34.51.94.48.94.47,8.16.08,8.17.08.7.28.7.27.65.38.65.39.73.8.71.8.47.82.47.82.25.93.24.93V144l-.24.92-.24.92-.5.93-.49.93-1.08,1-1.09,1-.89.36-.89.36h-22.6v-3.3l10.36-.08,10.36-.09.84-.28.85-.27.78-.74.79-.73.37-.79.37-.78v-2l-.37-.79-.37-.78-.64-.58-.64-.58-.51-.27-.51-.26-.48-.15-.48-.16-8.32-.1-8.32-.1-.89-.44-.88-.43-.66-.71-.66-.72-.47-1-.47-1-.14-1.1L439,131l.15-1.2.15-1.2.38-.8L440,127l.52-.59.52-.59.69-.47.68-.47.59-.22.58-.22,11.77,0,11.78,0v1.65Z"/><path class="cls-39" d="M254.47,132.05l-.31.08-.53.39-.53.4-.21.51-.21.51-.11,1-.1,1,.11,1,.11,1,.34.51.35.51.53.36.53.35h28.71l.55-.25.54-.26.42-.63.42-.63.06-1.71.05-1.71-.19-.69-.19-.68-.5-.49-.5-.49-.54-.15-.54-.15-14,0h-14l-.31.08Zm28.3,2.27.19.19v2.58l-.09.25-.1.25H254.9l-.1-.49-.09-.49v-1.67l.15-.4.15-.41h27.57l.19.19Z"/><path class="cls-40" d="M254.16,145l-.47.21-.35.37L253,146l-.16.43-.16.43-.11,1-.1,1,.11,1,.11,1,.34.51.35.51.53.36.53.36H283.2l.55-.34.55-.34.23-.32.24-.33.18-.47.19-.48v-3.17l-.18-.53-.18-.54-.41-.45-.41-.45-.5-.22-.51-.21H254.63l-.47.21Zm28.61,2.17.19.18V150l-.09.25-.1.25H255l-.15-.4-.15-.4v-1.85l.15-.4.15-.4h27.57l.19.19Z"/><path class="cls-41" d="M412.07,128l-.47,0-.94.17-.93.18-.89.45-.9.45-1,.86-1,.86-.63,1-.63,1-.39.93-.39.92-.19,1-.2,1,.09,1.28.08,1.29.39,1.06.39,1.06.53.88.53.89,1,1.05,1,1,1,.5,1,.49.94.25.94.26,2.85.08,2.85.09,1.73-.18,1.74-.19.6-.21.59-.21,1-.6,1-.59.87-.9.86-.89.59-1,.6-1,.35-1.1.34-1.1v-3.61l-.4-1.06-.4-1.06-.53-.88-.53-.88-1-1.07-1-1.06-1.16-.56-1.17-.56-1.39-.24-1.39-.24-2.93,0-2.92,0-.47.06Zm8.43,2.54,1.05.34.79.63.79.62.78,1.11.78,1.12.28.81.29.81v3l-.33.89-.32.88-.65.95-.64.94-.67.55-.67.54-.78.41-.79.4-1.41.16-1.42.17h-4.7l-1.18-.21-1.18-.21-.78-.37-.79-.37-.71-.71-.71-.71-.5-.73-.5-.73-.34-.84-.33-.84-.09-1.2-.08-1.19.33-1.08.33-1.08.56-.94.55-1,.82-.75.82-.75.84-.4.84-.39,1-.14,1-.13,3.37,0,3.38,0,1.05.34Z"/></g></g></svg>