<svg width="120" height="113" viewBox="0 0 120 113" fill="none" xmlns="http://www.w3.org/2000/svg">
<path fill-rule="evenodd" clip-rule="evenodd" d="M23.0265 84.5948C18.0391 78.6579 14.5418 71.435 13.0756 63.4911H8.36455C7.90786 63.4911 7.49925 63.6834 7.1988 63.9839C6.89835 64.2843 6.70606 64.6929 6.70606 65.1496V68.0219C7.87181 68.5387 8.68903 69.4641 8.68903 71.0625C8.68903 72.6609 7.21082 74.3795 5.37206 74.3795C3.54532 74.3795 2.05508 72.6609 2.05508 71.0625C2.05508 69.4641 2.87231 68.5387 4.03806 68.0219V65.1496C4.03806 63.9598 4.51878 62.8902 5.29995 62.1091C6.08112 61.3279 7.15073 60.8472 8.34051 60.8472H12.643C12.4747 59.4531 12.3545 58.0349 12.3185 56.6048H6.35754C5.84076 57.7705 4.91537 58.5878 3.31698 58.5878C1.71858 58.5878 0 57.1096 0 55.2708C0 53.4441 1.71858 51.9538 3.31698 51.9538C4.91537 51.9538 5.84076 52.771 6.35754 53.9368H12.3065C12.3425 52.3985 12.4627 50.8722 12.643 49.3699H8.34051C7.15073 49.3699 6.08112 48.8892 5.29995 48.1081C4.51878 47.3269 4.03806 46.2453 4.03806 45.0675V42.1952C2.87231 41.6784 2.05508 40.753 2.05508 39.1546C2.05508 37.5562 3.5333 35.8376 5.37206 35.8376C7.1988 35.8376 8.68903 37.5562 8.68903 39.1546C8.68903 40.753 7.87181 41.6784 6.70606 42.1952V45.0675C6.70606 45.5242 6.89835 45.9328 7.1988 46.2332C7.49925 46.5337 7.90786 46.726 8.36455 46.726H13.0756C13.5443 44.1902 14.2173 41.7385 15.0826 39.3589L18.8443 40.729C17.2098 45.2117 16.3205 50.043 16.3205 55.0905C16.3205 65.3299 19.998 74.716 26.1032 81.9869L23.0265 84.5587V84.5948ZM3.34101 56.713C2.54782 56.713 1.91087 56.076 1.91087 55.2828C1.91087 54.4896 2.54782 53.8527 3.34101 53.8527C4.1342 53.8527 4.77116 54.4896 4.77116 55.2828C4.77116 56.076 4.1342 56.713 3.34101 56.713ZM5.37206 69.6203C4.57887 69.6203 3.94191 70.2573 3.94191 71.0505C3.94191 71.8437 4.57887 72.4806 5.37206 72.4806C6.16525 72.4806 6.8022 71.8437 6.8022 71.0505C6.8022 70.2573 6.16525 69.6203 5.37206 69.6203ZM5.37206 40.6088C4.57887 40.6088 3.94191 39.9718 3.94191 39.1787C3.94191 38.3855 4.57887 37.7485 5.37206 37.7485C6.16525 37.7485 6.8022 38.3855 6.8022 39.1787C6.8022 39.9718 6.16525 40.6088 5.37206 40.6088Z" fill="#B5D1D5"/>
<path fill-rule="evenodd" clip-rule="evenodd" d="M56.9655 100.999C55.4272 100.963 53.9009 100.843 52.3987 100.651V106.035C52.3987 107.225 51.918 108.294 51.1368 109.075C50.3556 109.857 49.274 110.337 48.0962 110.337H45.2239C44.7072 111.503 43.7818 112.32 42.1834 112.32C40.585 112.32 38.8664 110.842 38.8664 109.003C38.8664 107.177 40.585 105.686 42.1834 105.686C43.7818 105.686 44.7072 106.504 45.2239 107.669H48.0962C48.5529 107.669 48.9615 107.477 49.262 107.177C49.5624 106.876 49.7547 106.467 49.7547 106.011V100.206C48.4688 99.9657 47.1949 99.6653 45.945 99.3288L47.0146 95.471C50.584 96.4565 54.3336 96.9853 58.2154 96.9853C69.6446 96.9853 80.0161 92.4064 87.5754 84.9792L90.3877 87.8395C83.97 94.137 75.7257 98.5716 66.5078 100.254V106.023C66.5078 106.479 66.7001 106.888 67.0006 107.189C67.301 107.489 67.7097 107.681 68.1663 107.681H71.0386C71.5554 106.516 72.4808 105.698 74.0792 105.698C75.6776 105.698 77.3962 107.177 77.3962 109.015C77.3962 110.842 75.6776 112.332 74.0792 112.332C72.4808 112.332 71.5554 111.515 71.0386 110.349H68.1663C66.9766 110.349 65.9069 109.869 65.1258 109.087C64.3446 108.306 63.8639 107.237 63.8639 106.047V100.687C62.4698 100.855 61.0517 100.963 59.6215 101.011V105.999C60.7873 106.516 61.6045 107.441 61.6045 109.039C61.6045 110.638 60.1263 112.356 58.2875 112.356C56.4608 112.356 54.9705 110.638 54.9705 109.039C54.9705 107.441 55.7878 106.516 56.9535 105.999V101.023L56.9655 100.999ZM72.637 109.015C72.637 109.808 73.274 110.445 74.0672 110.445C74.8604 110.445 75.4973 109.808 75.4973 109.015C75.4973 108.222 74.8604 107.585 74.0672 107.585C73.274 107.585 72.637 108.222 72.637 109.015ZM43.6255 109.015C43.6255 109.808 42.9886 110.445 42.1954 110.445C41.4022 110.445 40.7652 109.808 40.7652 109.015C40.7652 108.222 41.4022 107.585 42.1954 107.585C42.9886 107.585 43.6255 108.222 43.6255 109.015ZM59.7177 109.015C59.7177 109.808 59.0807 110.445 58.2875 110.445C57.4943 110.445 56.8574 109.808 56.8574 109.015C56.8574 108.222 57.4943 107.585 58.2875 107.585C59.0807 107.585 59.7177 108.222 59.7177 109.015Z" fill="#0396D6"/>
<path fill-rule="evenodd" clip-rule="evenodd" d="M91.1567 23.1584C97.3339 29.516 101.684 37.6642 103.355 46.7498H105.53C105.987 46.7498 106.396 46.5575 106.696 46.2571C106.996 45.9566 107.189 45.548 107.189 45.0913V42.219C106.023 41.7023 105.206 40.7769 105.206 39.1785C105.206 37.5801 106.684 35.8615 108.523 35.8615C110.349 35.8615 111.84 37.5801 111.84 39.1785C111.84 40.7769 111.022 41.7023 109.857 42.219V45.0913C109.857 46.2811 109.376 47.3507 108.595 48.1319C107.814 48.9131 106.744 49.3938 105.554 49.3938H103.788C103.98 50.8961 104.088 52.4103 104.124 53.9607H113.642C114.159 52.7949 115.085 51.9777 116.683 51.9777C118.281 51.9777 120 53.4559 120 55.2947C120 57.1214 118.281 58.6116 116.683 58.6116C115.085 58.6116 114.159 57.7944 113.642 56.6287H104.112C104.064 58.0588 103.956 59.4769 103.788 60.871H105.554C106.744 60.871 107.814 61.3517 108.595 62.1329C109.376 62.9141 109.857 63.9837 109.857 65.1735V68.0458C111.022 68.5626 111.84 69.4879 111.84 71.0863C111.84 72.6847 110.361 74.4033 108.523 74.4033C106.696 74.4033 105.206 72.6847 105.206 71.0863C105.206 69.4879 106.023 68.5626 107.189 68.0458V65.1735C107.189 64.7168 106.996 64.3082 106.696 64.0077C106.396 63.7073 105.987 63.515 105.53 63.515H103.355C103.091 64.9331 102.766 66.3272 102.382 67.6852L98.5237 66.5916C99.5573 62.9501 100.11 59.1044 100.11 55.1384C100.11 43.7934 95.6033 33.506 88.2844 25.9707L91.1567 23.1825V23.1584ZM108.511 40.6206C109.304 40.6206 109.941 39.9837 109.941 39.1905C109.941 38.3973 109.304 37.7604 108.511 37.7604C107.718 37.7604 107.081 38.3973 107.081 39.1905C107.081 39.9837 107.718 40.6206 108.511 40.6206ZM116.659 56.7128C117.452 56.7128 118.089 56.0758 118.089 55.2826C118.089 54.4894 117.452 53.8525 116.659 53.8525C115.866 53.8525 115.229 54.4894 115.229 55.2826C115.229 56.0758 115.866 56.7128 116.659 56.7128ZM108.511 69.6201C109.304 69.6201 109.941 70.2571 109.941 71.0503C109.941 71.8435 109.304 72.4804 108.511 72.4804C107.718 72.4804 107.081 71.8435 107.081 71.0503C107.081 70.2571 107.718 69.6201 108.511 69.6201Z" fill="#B5D1D5"/>
<path fill-rule="evenodd" clip-rule="evenodd" d="M32.9415 16.8012C37.941 13.4962 43.6376 11.1407 49.7427 9.999V6.32148C49.7427 5.8648 49.5504 5.45618 49.25 5.15573C48.9495 4.85528 48.5409 4.66299 48.0842 4.66299H45.2119C44.6952 5.82874 43.7698 6.64597 42.1714 6.64597C40.573 6.64597 38.8544 5.16775 38.8544 3.32899C38.8544 1.50225 40.573 0.012018 42.1714 0.012018C43.7698 0.012018 44.6952 0.829244 45.2119 1.99499H48.0842C49.274 1.99499 50.3436 2.47571 51.1248 3.25688C51.906 4.03806 52.3867 5.10766 52.3867 6.29744V9.56635C53.8889 9.37406 55.4032 9.25388 56.9535 9.21782V6.35753C55.7878 5.84076 54.9706 4.91537 54.9706 3.31697C54.9706 1.71858 56.4488 0 58.2875 0C60.1143 0 61.6045 1.71858 61.6045 3.31697C61.6045 4.91537 60.7873 5.84076 59.6215 6.35753V9.21782C61.0517 9.2659 62.4698 9.37406 63.8639 9.54231V6.29744C63.8639 5.10766 64.3446 4.03806 65.1258 3.25688C65.907 2.47571 66.9766 1.99499 68.1664 1.99499H71.0387C71.5554 0.829244 72.4808 0.012018 74.0792 0.012018C75.6776 0.012018 77.3962 1.49023 77.3962 3.32899C77.3962 5.15573 75.6776 6.64597 74.0792 6.64597C72.4808 6.64597 71.5554 5.82874 71.0387 4.66299H68.1664C67.7097 4.66299 67.3011 4.85528 67.0006 5.15573C66.7002 5.45618 66.5079 5.8648 66.5079 6.32148V9.96294C70.8344 10.7561 74.9565 12.1502 78.7783 14.0611L76.9876 17.6425C71.3391 14.8062 64.9696 13.2198 58.2275 13.2198C49.7067 13.2198 41.7748 15.7676 35.1649 20.1422L32.9535 16.8012H32.9415ZM72.625 3.34101C72.625 2.54782 73.262 1.91087 74.0552 1.91087C74.8484 1.91087 75.4853 2.54782 75.4853 3.34101C75.4853 4.1342 74.8484 4.77116 74.0552 4.77116C73.262 4.77116 72.625 4.1342 72.625 3.34101ZM43.6135 3.34101C43.6135 2.54782 42.9766 1.91087 42.1834 1.91087C41.3902 1.91087 40.7532 2.54782 40.7532 3.34101C40.7532 4.1342 41.3902 4.77116 42.1834 4.77116C42.9766 4.77116 43.6135 4.1342 43.6135 3.34101ZM59.7057 3.34101C59.7057 2.54782 59.0687 1.91087 58.2755 1.91087C57.4823 1.91087 56.8454 2.54782 56.8454 3.34101C56.8454 4.1342 57.4823 4.77116 58.2755 4.77116C59.0687 4.77116 59.7057 4.1342 59.7057 3.34101Z" fill="#0396D6"/>
<path fill-rule="evenodd" clip-rule="evenodd" d="M37.7605 23.8196L37.9288 24.072L39.9238 27.1366C30.8021 33.1095 24.7811 43.409 24.7811 55.1265C24.7811 55.7515 24.8051 56.3644 24.8291 56.9773L21.1757 57.1816L20.8752 57.1936C20.8392 56.5086 20.8151 55.8236 20.8151 55.1265C20.8151 44.8031 24.9974 35.453 31.7635 28.6869C33.5783 26.8722 35.5853 25.2377 37.7485 23.8196H37.7605Z" fill="#0396D6"/>
<path fill-rule="evenodd" clip-rule="evenodd" d="M24.6489 71.6022L24.9253 71.47L28.2063 69.8596C33.35 80.2913 43.7696 87.6703 55.9799 88.4755L55.7396 92.129L55.7155 92.4295C46.3895 91.8166 37.9889 87.7785 31.7756 81.5652C28.8913 78.6809 26.4757 75.3158 24.6489 71.6143V71.6022Z" fill="#B5D1D5"/>
<path fill-rule="evenodd" clip-rule="evenodd" d="M77.504 87.155L77.3478 86.8906L75.461 83.7659C85.1595 77.9131 91.6492 67.2771 91.6492 55.1269C91.6492 54.9226 91.6492 54.7183 91.6372 54.514L95.2907 54.4419H95.5912C95.5912 54.6702 95.6032 54.8986 95.6032 55.1269C95.6032 65.4504 91.4209 74.8004 84.6548 81.5666C82.5155 83.7058 80.1119 85.5926 77.504 87.167V87.155Z" fill="#0396D6"/>
<path fill-rule="evenodd" clip-rule="evenodd" d="M97.9469 54.3816C97.9469 54.622 97.9589 54.8743 97.9589 55.1147C97.9589 69.5604 90.2554 82.2033 78.7181 89.1618L78.3094 88.4767C81.0255 86.8423 83.5253 84.8834 85.7486 82.648C92.7912 75.6054 97.1537 65.8708 97.1537 55.1147C97.1537 54.8743 97.1537 54.634 97.1417 54.3936L97.9349 54.3816H97.9469Z" fill="#B5D1D5"/>
<path fill-rule="evenodd" clip-rule="evenodd" d="M85.34 29.3834L85.1237 29.5877L82.4677 32.0994C76.3746 25.6818 67.7576 21.6678 58.2033 21.6678C55.5233 21.6678 52.9154 21.9803 50.4036 22.5812L49.5503 19.0358L49.4782 18.7354C52.2784 18.0624 55.1988 17.7139 58.1913 17.7139C68.5148 17.7139 77.8648 21.8961 84.6309 28.6623C84.8593 28.8906 85.0996 29.131 85.328 29.3714L85.34 29.3834Z" fill="#B5D1D5"/>
<path d="M58.2153 95.8681C46.9664 95.8681 36.7752 91.3012 29.3961 83.9342C22.017 76.5551 17.4622 66.3758 17.4622 55.1149C17.4622 43.8661 22.029 33.6748 29.3961 26.2957C36.7752 18.9166 46.9544 14.3618 58.2153 14.3618C69.4642 14.3618 79.6555 18.9287 87.0345 26.2957C94.4136 33.6748 98.9684 43.8541 98.9684 55.1149C98.9684 66.3638 94.4016 76.5551 87.0345 83.9342C79.6555 91.3132 69.4762 95.8681 58.2153 95.8681ZM30.682 82.6482C37.7246 89.6908 47.4592 94.0533 58.2153 94.0533C68.9714 94.0533 78.706 89.6908 85.7486 82.6482C92.7912 75.6057 97.1537 65.8711 97.1537 55.1149C97.1537 44.3588 92.7912 34.6242 85.7486 27.5816C78.706 20.5391 68.9714 16.1765 58.2153 16.1765C47.4592 16.1765 37.7246 20.5391 30.682 27.5816C23.6395 34.6242 19.2769 44.3588 19.2769 55.1149C19.2769 65.8711 23.6395 75.6057 30.682 82.6482Z" fill="#B5D1D5"/>
<path d="M58.3717 26.427C61.5685 26.427 64.4648 27.7249 66.568 29.8281C68.6711 31.9313 69.9691 34.8276 69.9691 38.0244V46.7254H65.3902V38.0244C65.3902 36.1015 64.597 34.3469 63.3231 33.073C62.0492 31.7991 60.2945 31.0059 58.3717 31.0059C56.4488 31.0059 54.6941 31.7991 53.4202 33.073C52.1463 34.3469 51.3531 36.1015 51.3531 38.0244V46.7254H46.7743V38.0244C46.7743 34.8276 48.0722 31.9313 50.1754 29.8281C52.2785 27.7249 55.1749 26.427 58.3717 26.427ZM60.0902 62.2407C60.7632 61.7239 61.1959 60.9067 61.1959 59.9933C61.1959 58.431 59.934 57.1691 58.3717 57.1691C56.8093 57.1691 55.5474 58.431 55.5474 59.9933C55.5474 60.9067 55.9801 61.7239 56.6531 62.2407L55.908 68.3579C55.8839 68.5622 55.944 68.7545 56.0762 68.9107C56.2204 69.0669 56.4007 69.1511 56.605 69.1511H60.1263C60.3306 69.1511 60.5109 69.0669 60.6551 68.9107C60.7993 68.7545 60.8474 68.5622 60.8233 68.3579L60.0782 62.2407H60.0902ZM46.0892 47.3504H70.6541C72.577 47.3504 74.1393 48.9247 74.1393 50.8356V75.9533C74.1393 77.8762 72.565 79.4385 70.6541 79.4385H46.0892C44.1663 79.4385 42.604 77.8641 42.604 75.9533V50.8356C42.604 48.9127 44.1784 47.3504 46.0892 47.3504Z" fill="#0396D6"/>
</svg>
