<svg width="130" height="75" viewBox="0 0 130 75" fill="none" xmlns="http://www.w3.org/2000/svg">
<path fill-rule="evenodd" clip-rule="evenodd" d="M52.5095 36.783L52.3795 38.6719C51.5607 38.9526 50.7419 39.3866 49.936 39.9992L49.91 40.0119L49.884 40.0247C49.3381 40.4842 48.9612 41.0585 48.7923 41.7604C48.6103 42.5262 48.7273 43.2154 48.8182 43.9556C48.3503 44.5427 48.1684 45.4106 48.1684 46.1253C48.1684 46.8655 48.3633 47.7462 48.8572 48.3332C48.8702 48.614 48.9092 48.8948 48.9612 49.1628C47.2586 49.8137 45.8678 51.1793 45.036 52.8002C44.2172 51.1155 42.8264 49.6989 41.0588 49.0862C41.1238 48.7544 41.1628 48.4098 41.1628 48.0525V47.9631C41.4747 47.4143 41.5917 46.7251 41.5917 46.1253C41.5917 45.5127 41.4747 44.8235 41.1498 44.2619C41.0198 41.786 39.7851 39.5652 37.2116 38.8761L37.0296 36.8213C35.041 35.596 33.7023 33.4136 33.7023 30.9504V18.2387C33.7023 14.4482 36.8476 11.6404 40.7079 11.6404L44.841 27.5172L49.0652 11.6404C49.897 11.6404 50.5989 11.7935 51.1968 12.0743C53.7443 13.1081 55.278 17.3326 57.6435 19.783L64.5841 17.0263C66.3647 15.9159 68.4443 18.3025 66.2478 19.7958L57.1496 26.6621L53.3153 23.8416L52.4835 36.783H52.5095ZM46.4527 13.006L45.8938 14.461H44.867H43.8272L43.3074 13.1081C43.7623 13.2613 44.2432 13.3506 44.7501 13.3506C45.3479 13.3506 45.9328 13.2357 46.4527 13.0188V13.006ZM44.906 26.292L46.3227 21.1614L45.8418 14.5886H44.867H43.8922L43.4113 21.1614L44.919 26.292H44.906ZM49.1562 5.04206V5.08034V5.11863V5.15692V5.32283C49.4291 5.56533 49.6111 6.15241 49.6111 6.81607C49.6111 7.4925 49.4161 8.06682 49.1562 8.30931V8.85811C49.1562 11.2447 47.1676 13.1847 44.7501 13.1847C42.3195 13.1847 40.3439 11.232 40.3439 8.85811V8.43694C39.941 8.39865 39.6291 7.68394 39.6291 6.81607C39.6291 5.94821 39.941 5.2335 40.3439 5.19521V5.15692V4.8889V4.74851C40.214 3.51053 38.9792 1.78756 40.9158 1.46849C46.1668 -2.56453 49.975 2.9362 50.5209 3.42119C49.2212 2.84687 49.1562 4.25077 49.1562 5.04206ZM49.6111 3.06383C46.8816 3.59987 46.5047 0.192217 41.2928 3.06383C44.997 1.226 47.2976 3.85512 49.6111 3.06383ZM41.2798 3.14041C43.0084 4.85061 40.019 4.72299 41.1238 7.25001C39.824 5.06758 42.0336 5.3356 41.2798 3.14041Z" fill="#0396D6"/>
<path fill-rule="evenodd" clip-rule="evenodd" d="M21.0428 44.4404V44.4787V44.517V44.5553V44.7212C21.3027 44.9509 21.4717 45.4997 21.4717 46.1379C21.4717 46.776 21.2897 47.3248 21.0428 47.5545V48.0778C21.0428 48.818 20.8348 49.52 20.4839 50.1198C23.5253 50.2092 25.7348 53.3233 25.7348 56.3353V56.8713C23.4213 57.7647 21.7056 59.8706 20.9388 62.2444C20.8998 62.1296 20.8738 62.0147 20.8348 61.9126C20.3799 60.1386 19.769 58.6964 18.7552 57.7009H18.7682L18.6252 57.586C18.4823 57.4584 18.3393 57.3308 18.1833 57.2287L16.7926 56.08C16.4807 55.812 16.8446 53.9104 17.0006 53.0936C17.0396 53.0936 17.0915 53.0936 17.1305 53.0936C17.2865 53.0936 17.4555 53.0936 17.6114 53.1063C17.4165 53.0808 17.2085 53.068 17.0006 53.068C17.0266 52.9404 17.0396 52.8511 17.0526 52.7872C17.2605 51.4982 17.3775 50.1326 16.8706 48.8946C16.5197 48.0267 15.9218 47.3631 15.1549 46.8781C15.0769 46.6228 14.96 46.3676 14.804 46.1379C14.3101 45.3721 13.5433 44.8871 12.6724 44.6191V44.5808V44.3256V44.1852C12.5425 43.011 11.3857 41.3774 13.2183 41.0838C18.1963 37.2678 21.7966 42.475 22.3165 42.9344C21.0817 42.3856 21.0168 43.7129 21.0168 44.4659L21.0428 44.4404ZM66.8716 57.586C67.1315 56.9351 67.4825 56.3225 67.9114 55.7737L68.0543 56.2204C68.1063 56.3863 68.1713 56.5395 68.2363 56.6926C67.7294 56.9351 67.2745 57.2287 66.8716 57.586ZM69.1331 54.2422C68.7822 54.4719 68.4443 54.7272 68.1323 55.008L67.7424 55.2632L67.7684 55.3653C66.8846 56.2842 66.2347 57.4201 65.9228 58.6709C65.4289 59.3856 65.0649 60.2024 64.792 61.083C64.662 60.8405 64.5321 60.598 64.3891 60.3555V56.3098C64.3891 53.7955 66.1047 51.2047 68.4443 50.3751C68.5093 50.9239 68.6652 51.4599 68.9122 51.9704C69.1071 52.532 69.3931 53.5275 69.1981 54.1018C69.1851 54.1529 69.1591 54.1911 69.1331 54.2422ZM69.0162 47.6439C68.6782 47.529 68.4053 46.8909 68.4053 46.1251C68.4053 45.2955 68.7042 44.6319 69.0811 44.5936V44.5553V44.3V44.1596C68.9512 42.9855 67.7944 41.3518 69.627 41.0583C74.605 37.2422 78.2053 42.4494 78.7252 42.9089C77.5165 42.3729 77.4385 43.6236 77.4255 44.3894C76.0867 44.1724 74.605 44.3256 73.4743 44.6319C71.7326 45.0913 69.926 46.074 69.0032 47.6439H69.0162ZM104.304 50.9622C105.006 50.2092 105.955 49.8646 107.332 49.8646C106.813 49.737 106.358 49.6221 106.007 49.5328C107.826 48.0267 104.07 43.1641 107.709 41.505C107.878 38.0208 118.107 39.8331 115.781 44.7212C115.677 45.0147 115.599 45.2828 115.534 45.538C114.806 45.9975 114.143 46.5463 113.532 47.1461C113.259 47.4141 112.999 47.6949 112.752 47.9757C112.168 48.6266 111.908 49.4562 111.544 50.2475L113.454 50.7707C113.454 50.8601 113.467 50.9494 113.467 51.026C113.103 51.6386 112.96 52.4299 112.96 53.1063C112.96 53.7955 113.103 54.574 113.467 55.1994V55.3653C113.467 55.8248 113.519 56.2715 113.623 56.7054C111.388 57.4074 109.659 59.2452 108.736 61.4149C107.891 59.5643 106.436 57.9689 104.629 57.0883C105.773 54.7017 108.242 53.0425 111.089 53.0425C111.245 53.0425 111.414 53.0425 111.57 53.0553C111.31 53.0297 111.05 53.017 110.79 53.017C107.943 53.017 105.461 54.5868 104.174 56.8841C104.083 56.8458 103.992 56.8075 103.901 56.782C103.992 56.3991 104.057 55.9907 104.07 55.595C104.642 54.9441 104.863 53.9231 104.863 53.1063C104.863 52.4171 104.707 51.5876 104.317 50.9494L104.304 50.9622ZM91.0987 53.0936C88.1613 53.4509 85.7178 55.4802 84.834 58.1859C84.691 58.0072 84.548 57.8413 84.3921 57.6881H84.4051L84.2621 57.5733C84.1191 57.4456 83.9762 57.3308 83.8202 57.2159L83.1573 56.6671V56.3353C83.1573 53.3999 85.4839 50.3751 88.4213 50.1326C88.0703 49.5328 87.8624 48.8308 87.8624 48.0778V47.6822C87.4855 47.6439 87.1865 46.9674 87.1865 46.1506C87.1865 45.321 87.4855 44.6574 87.8624 44.6191V44.5808V44.3256V44.1852C87.7064 39.2077 96.2197 37.9697 96.2197 44.734C96.2587 44.7595 96.2847 44.7978 96.3107 44.8488L96.2457 44.8616C93.1913 45.5635 91.7486 48.1671 91.6186 51.0388C91.2417 51.6514 91.1117 52.4427 91.0987 53.1191V53.0936ZM85.2889 58.8368C85.8218 55.9524 88.1613 53.6679 91.0987 53.1574C91.1117 53.8338 91.2417 54.5868 91.6056 55.1994V55.3653C91.6056 55.8248 91.6576 56.2715 91.7616 56.7054C89.2531 57.4967 87.3945 59.7174 86.5756 62.2189C86.5367 62.104 86.5107 61.9892 86.4717 61.8871C86.1727 60.7129 85.7958 59.6791 85.2889 58.8368ZM47.9604 56.5778C47.9214 56.6416 47.8824 56.7054 47.8434 56.7565C46.9856 57.05 46.2187 57.4967 45.5299 58.0838V56.3098C45.5299 54.6123 46.3097 52.8893 47.5444 51.6769C47.3885 52.1491 47.3365 52.6469 47.3365 53.1063C47.3365 53.7955 47.4795 54.574 47.8434 55.1994V55.3653C47.8434 55.7737 47.8824 56.1821 47.9604 56.5778ZM49.572 45.755C49.65 45.1041 49.91 44.6191 50.2349 44.5936V44.5553V44.3V44.1596C50.1049 42.9855 49.767 41.9006 50.7808 41.0583C53.9522 38.6334 56.5516 39.8458 58.1763 41.1859C59.0991 41.9517 58.5792 41.5433 58.7612 41.7092C59.2551 42.9472 58.5922 43.7002 58.5922 44.4404V44.4787V44.517V44.5553V44.7212C58.8262 44.9382 59.0082 45.4359 59.0212 46.023C58.9692 46.0102 58.9302 45.9975 58.8782 45.9847C56.3047 44.1214 53.3933 43.6619 50.4949 45.2062C50.1829 45.3721 49.871 45.5635 49.585 45.7677L49.572 45.755ZM60.5159 50.9367C62.2055 52.0725 63.2843 54.2294 63.2843 56.3225V58.9134C62.4005 57.9689 61.3347 57.2287 60.1259 56.8075C60.2169 56.4246 60.2819 56.0162 60.2949 55.6206C60.8668 54.9697 61.0877 53.9487 61.0877 53.1318C61.0877 52.4299 60.9318 51.5876 60.5159 50.9494V50.9367ZM31.1937 44.734C31.2717 44.6574 31.3627 44.6063 31.4667 44.5936V44.5553V44.3V44.1596C31.3107 39.1822 39.824 37.9442 39.824 44.7084C40.0839 44.9382 40.2529 45.487 40.2529 46.1251C40.2529 46.7632 40.0709 47.312 39.824 47.5418V48.065C39.824 48.8053 39.616 49.5072 39.2651 50.1071C42.3065 50.1964 44.5161 53.3105 44.5161 56.3225V59.1176C43.9572 59.7812 43.5023 60.5342 43.1513 61.3383V60.4449C43.1513 59.6536 43.0214 58.8751 42.7874 58.1604C42.9694 58.773 43.0603 59.4111 43.0603 60.0748V61.3127C42.0985 59.2707 40.3829 57.5477 38.2773 56.8075C38.3683 56.4246 38.4333 56.0162 38.4463 55.6206C39.0182 54.9697 39.2391 53.9487 39.2391 53.1318C39.2391 52.315 39.0182 51.294 38.4463 50.6431C38.4333 48.1416 36.8866 46.074 34.5341 45.1551C33.4813 44.7467 32.3245 44.5936 31.2067 44.7467L31.1937 44.734Z" fill="#B5D1D5"/>
<path fill-rule="evenodd" clip-rule="evenodd" d="M49.1952 51.1539V51.1922V51.2305V51.2688V51.4603C48.8962 51.7283 48.6883 52.3664 48.6883 53.1066C48.6883 53.8469 48.8962 54.485 49.1952 54.753V55.3656C49.1952 56.2335 49.4291 57.0376 49.845 57.7395C46.3097 57.8416 43.7233 61.4662 43.7233 64.976V74.9181H45.3089V69.7748C45.3089 68.8431 45.4649 67.9497 45.7379 67.1074C45.5299 67.8221 45.4129 68.5623 45.4129 69.3408V74.9054H62.0366V69.3408C62.0366 64.8484 58.2933 61.1727 53.7183 61.1727C53.5233 61.1727 53.3413 61.1855 53.1594 61.1982C53.4583 61.1727 53.7702 61.1472 54.0692 61.1472C58.8912 61.1472 62.8424 65.027 62.8424 69.762V74.9054H64.3631V64.9632C64.3631 61.5556 61.6467 58.0331 58.2414 57.7395C58.6573 57.0376 58.8912 56.2207 58.8912 55.3529V54.8807C59.3331 54.8296 59.6841 54.0511 59.6841 53.0939C59.6841 52.1367 59.3331 51.3454 58.8912 51.3071V51.256V50.9625V50.7966C59.0472 49.431 60.3989 47.5293 58.2544 47.1847C52.4575 42.7433 48.2593 48.8056 47.6615 49.3416C49.1042 48.7035 49.1692 50.2606 49.1692 51.1284L49.1952 51.1539ZM114.832 51.1539V51.1922V51.2305V51.2688V51.4603C114.533 51.7283 114.325 52.3664 114.325 53.1066C114.325 53.8469 114.533 54.485 114.832 54.753V55.3656C114.832 56.2335 115.066 57.0376 115.482 57.7395C111.947 57.8416 109.36 61.4662 109.36 64.976V74.9181H110.946V69.7748C110.946 68.8431 111.102 67.9497 111.375 67.1074C111.167 67.8221 111.05 68.5623 111.05 69.3408V74.9054H127.673V69.3408C127.673 64.8484 123.93 61.1727 119.355 61.1727C119.16 61.1727 118.978 61.1855 118.796 61.1982C119.095 61.1727 119.407 61.1472 119.706 61.1472C124.528 61.1472 128.479 65.027 128.479 69.762V74.9054H130V64.9632C130 61.5556 127.284 58.0331 123.878 57.7395C124.294 57.0376 124.528 56.2207 124.528 55.3529V54.8807C124.97 54.8296 125.321 54.0511 125.321 53.0939C125.321 52.1367 124.97 51.3454 124.528 51.3071V51.256V50.9625V50.7966C124.684 49.431 126.036 47.5293 123.891 47.1847C118.094 42.7433 113.896 48.8056 113.298 49.3416C114.741 48.7035 114.806 50.2606 114.806 51.1284L114.832 51.1539ZM85.159 62.283C84.3141 58.9009 83.0534 57.4843 80.012 57.4715C80.6229 57.3311 81.1428 57.1907 81.5587 57.0759C79.4401 55.3274 83.8202 49.6607 79.5831 47.7335C79.3881 43.675 67.4695 45.7808 70.186 51.4858C71.2388 54.4467 70.225 55.2763 69.3541 55.8251C69.5881 56.5653 70.069 57.1014 70.7189 57.4843C66.6117 57.6629 65.6369 61.7981 65.6369 64.9887V74.9309H67.2226V69.7875C67.2226 68.8559 67.3785 67.9625 67.6515 67.1329C67.4435 67.8476 67.3395 68.5878 67.3395 69.3664V74.9309H83.9632V69.3664C83.9632 64.8739 80.22 61.1982 75.6449 61.1982C75.4499 61.1982 75.268 61.211 75.086 61.2237C75.3849 61.1982 75.6969 61.1727 75.9958 61.1727C80.8178 61.1727 84.7691 65.0526 84.7691 69.7875V74.9309H86.2897L85.3929 63.4317C85.3669 63.036 85.2759 62.6532 85.133 62.283H85.159ZM97.5065 61.1982C97.3115 61.1982 97.1296 61.211 96.9476 61.2237C97.2466 61.1982 97.5585 61.1727 97.8574 61.1727C102.679 61.1727 106.631 65.0526 106.631 69.7875V74.9309H108.151V64.9887C108.151 61.5811 105.435 58.0586 102.03 57.765C102.446 57.0631 102.679 56.2463 102.679 55.3784V54.9062C103.121 54.8551 103.472 54.0766 103.472 53.1194C103.472 52.1622 103.121 51.3709 102.679 51.3326V51.2816V50.988V50.8221C102.861 45.0151 92.9574 43.5729 92.9574 51.4603C92.6585 51.7283 92.4505 52.3664 92.4505 53.1066C92.4505 53.8469 92.6585 54.485 92.9574 54.753V55.3656C92.9574 56.2335 93.1914 57.0376 93.6073 57.7395C90.072 57.8416 87.4855 61.4662 87.4855 64.976V74.9181H89.0712V69.7748C89.0712 68.8431 89.2272 67.9497 89.5001 67.1201C89.2921 67.8348 89.1882 68.5751 89.1882 69.3536V74.9181H105.812V69.3536C105.812 64.8611 102.069 61.1855 97.4935 61.1855L97.5065 61.1982ZM19.5221 62.283C18.6773 58.9009 17.4165 57.4843 14.3751 57.4715C14.986 57.3311 15.5059 57.1907 15.9218 57.0759C13.8032 55.3274 18.1834 49.6607 13.9462 47.7335C13.7513 43.675 1.83263 45.7808 4.54909 51.4858C5.60188 54.4467 4.58808 55.2763 3.71726 55.8251C3.95121 56.5653 4.43211 57.1014 5.08198 57.4843C2.0016 57.6119 0.870826 59.3731 0.0389922 63.4317L0.142971 63.3934C0.0519896 63.8912 0 64.4272 0 64.9887V74.9309H1.58568V69.7875C1.58568 68.8559 1.74165 67.9625 2.0146 67.1329C1.80664 67.8476 1.70266 68.5878 1.70266 69.3664V74.9309H18.3263V69.3664C18.3263 64.8739 14.5831 61.1982 10.008 61.1982C9.81304 61.1982 9.63107 61.211 9.44911 61.2237C9.74805 61.1982 10.06 61.1727 10.3589 61.1727C15.181 61.1727 19.1322 65.0526 19.1322 69.7875V74.9309H20.6529L19.7561 63.4317C19.7301 63.036 19.6391 62.6532 19.4961 62.283H19.5221ZM31.8826 61.1982C31.6877 61.1982 31.5057 61.211 31.3237 61.2237C31.6227 61.1982 31.9346 61.1727 32.2336 61.1727C37.0556 61.1727 41.0068 65.0526 41.0068 69.7875V74.9309H42.5275V64.9887C42.5275 61.5811 39.811 58.0586 36.4057 57.765C36.8216 57.0631 37.0556 56.2463 37.0556 55.3784V54.9062C37.4975 54.8551 37.8484 54.0766 37.8484 53.1194C37.8484 52.1622 37.4975 51.3709 37.0556 51.3326V51.2816V50.988V50.8221C37.2376 45.0151 27.3335 43.5729 27.3335 51.4603C27.0346 51.7283 26.8266 52.3664 26.8266 53.1066C26.8266 53.8469 27.0346 54.485 27.3335 54.753V55.3656C27.3335 56.2335 27.5675 57.0376 27.9834 57.7395C24.4481 57.8416 21.8616 61.4662 21.8616 64.976V74.9181H23.4473V69.7748C23.4473 68.8431 23.6033 67.9497 23.8762 67.1201C23.6683 67.8348 23.5643 68.5751 23.5643 69.3536V74.9181H40.188V69.3536C40.188 64.8611 36.4447 61.1855 31.8696 61.1855L31.8826 61.1982Z" fill="#0396D6"/>
<path fill-rule="evenodd" clip-rule="evenodd" d="M77.8414 16.2988C74.761 16.2988 72.2655 13.8484 72.2655 10.8236C72.2655 7.79883 74.761 5.34839 77.8414 5.34839C79.661 5.34839 81.2857 6.20349 82.2995 7.53082L80.8048 8.67946C80.1289 7.78607 79.0631 7.21175 77.8414 7.21175C75.8138 7.21175 74.1631 8.83261 74.1631 10.8236C74.1631 12.8146 75.8138 14.4355 77.8414 14.4355C79.869 14.4355 81.5197 12.8146 81.5197 10.8236C81.5197 10.696 81.5067 10.5811 81.5067 10.4535L79.1411 12.7763C78.9332 12.9805 78.5952 12.9805 78.3873 12.7763L75.8398 10.2748C75.6318 10.0706 75.6318 9.73877 75.8398 9.53456L75.9308 9.44523C76.0997 9.27931 76.3337 9.24102 76.5416 9.34312L78.7902 10.5428L83.0533 7.28832C83.2613 7.12241 83.5602 7.14793 83.7552 7.33937L83.8592 7.44148C84.0671 7.64568 84.0671 7.97751 83.8592 8.18172L83.0923 8.93472C83.3133 9.53456 83.4433 10.1727 83.4433 10.8491C83.4433 13.8739 80.9478 16.3243 77.8674 16.3243L77.8414 16.2988Z" fill="#0396D6"/>
<path d="M103.446 8.99854H87.5245V10.8364H103.446V8.99854Z" fill="#B5D1D5"/>
<path fill-rule="evenodd" clip-rule="evenodd" d="M77.8414 30.6057C74.761 30.6057 72.2655 28.1553 72.2655 25.1305C72.2655 22.1057 74.761 19.6553 77.8414 19.6553C79.661 19.6553 81.2857 20.5104 82.2995 21.8377L80.8048 22.9863C80.1289 22.093 79.0631 21.5186 77.8414 21.5186C75.8138 21.5186 74.1631 23.1395 74.1631 25.1305C74.1631 27.1215 75.8138 28.7423 77.8414 28.7423C79.869 28.7423 81.5197 27.1215 81.5197 25.1305C81.5197 25.0029 81.5067 24.888 81.5067 24.7604L79.1411 27.0832C78.9332 27.2874 78.5952 27.2874 78.3873 27.0832L75.8398 24.5817C75.6318 24.3775 75.6318 24.0457 75.8398 23.8414L75.9308 23.7521C76.0997 23.5862 76.3337 23.5479 76.5416 23.65L78.7902 24.8497L83.0533 21.5952C83.2613 21.4293 83.5602 21.4548 83.7552 21.6463L83.8592 21.7484C84.0671 21.9526 84.0671 22.2844 83.8592 22.4886L83.0923 23.2416C83.3133 23.8414 83.4433 24.4796 83.4433 25.156C83.4433 28.1808 80.9478 30.6312 77.8674 30.6312L77.8414 30.6057Z" fill="#0396D6"/>
<path d="M103.446 23.3057H87.5245V25.1435H103.446V23.3057Z" fill="#B5D1D5"/>
</svg>
