<svg width="117" height="69" viewBox="0 0 117 69" fill="none" xmlns="http://www.w3.org/2000/svg">
<g filter="url(#filter0_d_91_3)">
<path d="M104.25 52.3606V56.5787C104.25 57.7027 103.833 58.7383 103.177 59.4834C102.495 60.2538 101.548 60.7211 100.499 60.7211H18.2583C17.2101 60.7211 16.2629 60.2412 15.5809 59.4834C14.9116 58.7383 14.5074 57.7154 14.5074 56.5787V52.3606H15.7704V56.5787C15.7704 57.387 16.0608 58.1195 16.5281 58.6373C16.9828 59.1424 17.589 59.4582 18.2709 59.4582H100.512C101.181 59.4582 101.8 59.1424 102.255 58.6373C102.722 58.1195 103.013 57.387 103.013 56.5787V52.3606H104.275H104.25Z" fill="#009FE3"/>
<path fill-rule="evenodd" clip-rule="evenodd" d="M108.355 21.3938C108.974 21.3938 109.479 20.8886 109.479 20.2698C109.479 19.651 108.974 19.1458 108.355 19.1458C107.736 19.1458 107.231 19.651 107.231 20.2698C107.231 20.8886 107.736 21.3938 108.355 21.3938ZM8.19288 49.6704C7.57405 49.6704 7.06888 50.1756 7.06888 50.7944C7.06888 51.4133 7.57405 51.9184 8.19288 51.9184C8.81171 51.9184 9.31687 51.4133 9.31687 50.7944C9.31687 50.1756 8.81171 49.6704 8.19288 49.6704ZM6.60161 37.1044C5.98278 37.1044 5.47761 37.6096 5.47761 38.2284C5.47761 38.8473 5.98278 39.3524 6.60161 39.3524C7.22043 39.3524 7.7256 38.8473 7.7256 38.2284C7.7256 37.6096 7.22043 37.1044 6.60161 37.1044ZM14.5453 42.8255H13.6739H10.5166C9.59471 42.8255 8.74856 43.2043 8.14236 43.8105C7.53616 44.4167 7.15729 45.2629 7.15729 46.1848V48.4202C6.24799 48.8243 5.6039 49.5442 5.6039 50.7944C5.6039 52.0447 6.76578 53.3834 8.19288 53.3834C9.61997 53.3834 10.7819 52.0447 10.7819 50.7944C10.7819 49.5442 10.1378 48.8243 9.22847 48.4202V46.1848C9.22847 45.8312 9.38002 45.5028 9.60734 45.2755C9.8473 45.0355 10.163 44.8966 10.5166 44.8966H14.5453V51.1354H104.124V34.5028H93.8817V33.884H104.124H107.155H107.572C107.976 34.7933 108.696 35.4374 109.946 35.4374C111.196 35.4374 112.535 34.2755 112.535 32.8484C112.535 31.4213 111.196 30.2594 109.946 30.2594C108.696 30.2594 107.976 30.9035 107.572 31.8128H104.124V28.8702H93.7933V28.2514H104.124H106.031C106.953 28.2514 107.799 27.8725 108.405 27.2663C109.011 26.6601 109.39 25.814 109.39 24.8921V22.6567C110.3 22.2526 110.944 21.5327 110.944 20.2824C110.944 19.0321 109.782 17.6934 108.355 17.6934C106.928 17.6934 105.766 19.0321 105.766 20.2824C105.766 21.5327 106.41 22.2526 107.319 22.6567V24.8921C107.319 25.2457 107.168 25.574 106.94 25.8014C106.7 26.0413 106.385 26.1802 106.031 26.1802H104.124V3.5109C104.124 1.57864 102.722 0 100.992 0H59.1894C58.2043 0 57.3708 0.454649 56.752 1.31343L53.7336 5.53157C53.4305 5.96096 53.0516 6.28932 52.6475 6.51664H97.5189V6.845H51.2962H49.907H17.6647C15.9472 6.845 14.5327 8.42364 14.5327 10.3559V36.574H26.8209V37.1928H14.5327H13.5476H8.96326C8.55912 36.2836 7.83926 35.6395 6.58898 35.6395C5.33869 35.6395 4 36.8013 4 38.2284C4 39.6555 5.33869 40.8174 6.58898 40.8174C7.83926 40.8174 8.55912 40.1733 8.96326 39.264H14.5327V42.2066H26.9345V42.8255H14.5327H14.5453ZM109.946 33.9724C110.565 33.9724 111.07 33.4672 111.07 32.8484C111.07 32.2296 110.565 31.7244 109.946 31.7244C109.327 31.7244 108.822 32.2296 108.822 32.8484C108.822 33.4672 109.327 33.9724 109.946 33.9724Z" fill="#0396D6"/>
<path fill-rule="evenodd" clip-rule="evenodd" d="M66.2491 38.5692H64.6957V40.2237C64.6957 40.35 64.7462 40.4636 64.8346 40.552C64.923 40.6404 65.0367 40.6909 65.163 40.6909H71.4523C71.5912 40.3626 71.8564 40.1353 72.3111 40.1353C72.7657 40.1353 73.2456 40.552 73.2456 41.0698C73.2456 41.5876 72.7657 42.0044 72.3111 42.0044C71.8564 42.0044 71.6038 41.777 71.4523 41.4487H65.163C64.822 41.4487 64.5189 41.3098 64.3042 41.0951C64.0895 40.8804 63.9506 40.5646 63.9506 40.2363V38.5819H62.7508V42.0423H62.9402C63.0792 41.7139 63.3444 41.4866 63.799 41.4866C64.2537 41.4866 64.7336 41.9033 64.7336 42.4211C64.7336 42.9389 64.2537 43.3557 63.799 43.3557C63.3444 43.3557 63.0918 43.1284 62.9402 42.8H62.7508V43.9998C63.0792 44.1387 63.3065 44.4039 63.3065 44.8586C63.3065 45.3132 62.8897 45.7931 62.3719 45.7931C61.8541 45.7931 61.4374 45.3132 61.4374 44.8586C61.4374 44.4039 61.6647 44.1513 61.9931 43.9998V42.8H56.6383C56.2973 42.8 55.9942 42.6611 55.7795 42.4464C55.5648 42.2317 55.4259 41.916 55.4259 41.5876V38.5945H54.2261V43.9998C54.5545 44.1387 54.7818 44.4039 54.7818 44.8586C54.7818 45.3132 54.3651 45.7931 53.8473 45.7931C53.3295 45.7931 52.9127 45.3132 52.9127 44.8586C52.9127 44.4039 53.14 44.1513 53.4684 43.9998V38.5945H52.1802V39.7185C52.1802 40.0595 52.0413 40.3626 51.8266 40.5773C51.6119 40.792 51.2962 40.9309 50.9678 40.9309H50.1595C50.0206 41.2593 49.7554 41.4866 49.3008 41.4866C48.8461 41.4866 48.3662 41.0698 48.3662 40.552C48.3662 40.0342 48.8461 39.6175 49.3008 39.6175C49.7554 39.6175 50.008 39.8448 50.1595 40.1731H50.9678C51.0941 40.1731 51.2078 40.1226 51.2962 40.0342C51.3846 39.9458 51.4351 39.8322 51.4351 39.7059V38.5819H50.0964C49.0861 38.5819 48.2525 37.7483 48.2525 36.738V33.6691H45.6509C45.5246 33.6691 45.411 33.7196 45.3226 33.8081C45.2342 33.8965 45.1837 34.0101 45.1837 34.1364V34.9447C45.512 35.0836 45.7393 35.3488 45.7393 35.8035C45.7393 36.2581 45.3226 36.738 44.8048 36.738C44.287 36.738 43.8702 36.2581 43.8702 35.8035C43.8702 35.3488 44.0976 35.0962 44.4259 34.9447V34.1364C44.4259 33.7954 44.5648 33.4923 44.7795 33.2776C44.9942 33.0629 45.31 32.924 45.6383 32.924H48.2399V31.6358H43.3019V33.3155C43.6303 33.4544 43.8576 33.7196 43.8576 34.1743C43.8576 34.6289 43.4408 35.1089 42.923 35.1089C42.4052 35.1089 41.9885 34.6289 41.9885 34.1743C41.9885 33.7196 42.2158 33.4671 42.5442 33.3155V31.6358H41.3444C41.2055 31.9642 40.9403 32.1915 40.4856 32.1915C40.031 32.1915 39.5511 31.7748 39.5511 31.257C39.5511 30.7392 40.031 30.3224 40.4856 30.3224C40.9403 30.3224 41.1928 30.5497 41.3444 30.8781H42.5442V29.6783H39.2985C38.9575 29.6783 38.6544 29.5394 38.4397 29.3247C38.225 29.11 38.0861 28.7943 38.0861 28.4659V22.1766C37.7577 22.0377 37.5304 21.7725 37.5304 21.3178C37.5304 20.8632 37.9472 20.3833 38.465 20.3833C38.9827 20.3833 39.3995 20.8632 39.3995 21.3178C39.3995 21.7725 39.1722 22.0251 38.8438 22.1766V28.4659C38.8438 28.5922 38.8943 28.7059 38.9827 28.7943C39.0712 28.8827 39.1848 28.9332 39.3111 28.9332H42.5568V27.0136C42.5568 26.6726 42.6957 26.3695 42.9104 26.1548C43.1251 25.9401 43.4408 25.8012 43.7692 25.8012H48.2399V24.6014H41.3444C41.2055 24.9298 40.9403 25.1571 40.4856 25.1571C40.031 25.1571 39.5511 24.7403 39.5511 24.2225C39.5511 23.7047 40.031 23.288 40.4856 23.288C40.9403 23.288 41.1928 23.5153 41.3444 23.8437H48.2399V22.5555H45.6383C45.2973 22.5555 44.9942 22.4166 44.7795 22.2019C44.5648 21.9872 44.4259 21.6714 44.4259 21.3431V20.5348C44.0976 20.3959 43.8702 20.1307 43.8702 19.676C43.8702 19.2214 44.287 18.7415 44.8048 18.7415C45.3226 18.7415 45.7393 19.2214 45.7393 19.676C45.7393 20.1307 45.512 20.3833 45.1837 20.5348V21.3431C45.1837 21.4694 45.2342 21.583 45.3226 21.6714C45.411 21.7598 45.5246 21.8104 45.6509 21.8104H48.2525V20.5853C48.2525 19.575 49.0861 18.7415 50.0964 18.7415H61.4247V16.4051C61.4247 16.2788 61.3742 16.1651 61.2858 16.0767C61.1974 15.9883 61.0838 15.9378 60.9575 15.9378H54.6682C54.5292 16.2662 54.264 16.4935 53.8094 16.4935C53.3547 16.4935 52.8748 16.0767 52.8748 15.5589C52.8748 15.0411 53.3547 14.6244 53.8094 14.6244C54.264 14.6244 54.5166 14.8517 54.6682 15.1801H60.9575C61.2985 15.1801 61.6016 15.319 61.8163 15.5337C62.0309 15.7484 62.1699 16.0641 62.1699 16.3925V18.7288H63.3696V13.9677C63.0413 13.8287 62.814 13.5635 62.814 13.1089C62.814 12.6542 63.2307 12.1743 63.7485 12.1743C64.2663 12.1743 64.6831 12.6542 64.6831 13.1089C64.6831 13.5635 64.4557 13.8161 64.1274 13.9677V18.7288H65.4156V18.2616C65.4156 17.9206 65.5545 17.6175 65.7692 17.4028C65.9839 17.1881 66.2996 17.0492 66.628 17.0492H67.4362C67.5751 16.7208 67.8404 16.4935 68.295 16.4935C68.7497 16.4935 69.2296 16.9102 69.2296 17.428C69.2296 17.9458 68.7497 18.3626 68.295 18.3626C67.8404 18.3626 67.5878 18.1353 67.4362 17.8069H66.628C66.5017 17.8069 66.388 17.8574 66.2996 17.9458C66.2112 18.0342 66.1607 18.1479 66.1607 18.2742V18.7415H66.2491C67.2594 18.7415 68.0929 19.575 68.0929 20.5853V21.8104H69.2169C69.3432 21.8104 69.4569 21.7598 69.5453 21.6714C69.6337 21.583 69.6842 21.4694 69.6842 21.3431V20.5348C69.3559 20.3959 69.1285 20.1307 69.1285 19.676C69.1285 19.2214 69.5453 18.7415 70.0631 18.7415C70.5809 18.7415 70.9976 19.2214 70.9976 19.676C70.9976 20.1307 70.7703 20.3833 70.442 20.5348V21.3431C70.442 21.6841 70.303 21.9872 70.0883 22.2019C69.8736 22.4166 69.5579 22.5555 69.2296 22.5555H68.1056V23.8437H73.5235C73.6624 23.5153 73.9276 23.288 74.3823 23.288C74.8369 23.288 75.3168 23.7047 75.3168 24.2225C75.3168 24.7403 74.8369 25.1571 74.3823 25.1571C73.9276 25.1571 73.675 24.9298 73.5235 24.6014H68.1056V25.8012H71.0987C71.4397 25.8012 71.7428 25.9401 71.9575 26.1548C72.1722 26.3695 72.3111 26.6852 72.3111 27.0136V30.1456H73.473C73.5993 30.1456 73.7129 30.0951 73.8013 30.0067C73.8897 29.9183 73.9402 29.8046 73.9402 29.6783V28.8701C73.6119 28.7311 73.3846 28.4659 73.3846 28.0113C73.3846 27.5566 73.8013 27.0767 74.3191 27.0767C74.8369 27.0767 75.2537 27.5566 75.2537 28.0113C75.2537 28.4659 75.0263 28.7185 74.698 28.8701V29.6783C74.698 30.0193 74.5591 30.3224 74.3444 30.5371C74.1297 30.7518 73.8139 30.8907 73.4856 30.8907H72.3237V33.3029C72.6521 33.4418 72.8794 33.707 72.8794 34.1617C72.8794 34.6163 72.4626 35.0962 71.9448 35.0962C71.427 35.0962 71.0103 34.6163 71.0103 34.1617C71.0103 33.707 71.2376 33.4544 71.566 33.3029V30.8907H68.1056V32.1789H68.8254C68.9644 31.8505 69.2296 31.6232 69.6842 31.6232C70.1389 31.6232 70.6188 32.04 70.6188 32.5578C70.6188 33.0756 70.1389 33.4923 69.6842 33.4923C69.2296 33.4923 68.977 33.265 68.8254 32.9366H68.1056V34.1364H69.8231C70.1641 34.1364 70.4672 34.2753 70.6819 34.49C70.8966 34.7047 71.0355 35.0205 71.0355 35.3488V38.4935C71.3639 38.6324 71.5912 38.8976 71.5912 39.3522C71.5912 39.8069 71.1745 40.2868 70.6567 40.2868C70.1389 40.2868 69.7221 39.8069 69.7221 39.3522C69.7221 38.8976 69.9494 38.645 70.2778 38.4935V35.3488C70.2778 35.2225 70.2273 35.1089 70.1389 35.0205C70.0505 34.932 69.9368 34.8815 69.8105 34.8815H68.0929V36.738C68.0929 37.7483 67.2594 38.5819 66.2491 38.5819V38.5692ZM61.9931 38.5692H60.7049V39.6932C60.7049 40.0342 60.566 40.3373 60.3513 40.552C60.1366 40.7667 59.8208 40.9056 59.4925 40.9056H58.6842C58.5453 41.234 58.2801 41.4613 57.8254 41.4613C57.3708 41.4613 56.8909 41.0446 56.8909 40.5268C56.8909 40.009 57.3708 39.5922 57.8254 39.5922C58.2801 39.5922 58.5327 39.8195 58.6842 40.1479H59.4925C59.6188 40.1479 59.7324 40.0974 59.8208 40.009C59.9093 39.9206 59.9598 39.8069 59.9598 39.6806V38.5566H56.171V41.5497C56.171 41.676 56.2215 41.7897 56.3099 41.8781C56.3983 41.9665 56.512 42.017 56.6383 42.017H61.9931V38.5566V38.5692ZM62.7761 44.8333C62.7761 45.0606 62.5993 45.2374 62.3719 45.2374C62.1446 45.2374 61.9678 45.0606 61.9678 44.8333C61.9678 44.606 62.1446 44.4292 62.3719 44.4292C62.5993 44.4292 62.7761 44.606 62.7761 44.8333ZM71.9069 41.0572C71.9069 41.2845 72.0838 41.4613 72.3111 41.4613C72.5384 41.4613 72.7152 41.2845 72.7152 41.0572C72.7152 40.8299 72.5384 40.6531 72.3111 40.6531C72.0838 40.6531 71.9069 40.8299 71.9069 41.0572ZM58.2296 40.5268C58.2296 40.7541 58.0528 40.9309 57.8254 40.9309C57.5981 40.9309 57.4213 40.7541 57.4213 40.5268C57.4213 40.2994 57.5981 40.1226 57.8254 40.1226C58.0528 40.1226 58.2296 40.2994 58.2296 40.5268ZM54.264 44.8333C54.264 45.0606 54.0872 45.2374 53.8599 45.2374C53.6326 45.2374 53.4558 45.0606 53.4558 44.8333C53.4558 44.606 53.6326 44.4292 53.8599 44.4292C54.0872 44.4292 54.264 44.606 54.264 44.8333ZM63.3949 42.3959C63.3949 42.6232 63.5717 42.8 63.799 42.8C64.0264 42.8 64.2032 42.6232 64.2032 42.3959C64.2032 42.1686 64.0264 41.9917 63.799 41.9917C63.5717 41.9917 63.3949 42.1686 63.3949 42.3959ZM49.7175 40.5268C49.7175 40.7541 49.5407 40.9309 49.3134 40.9309C49.0861 40.9309 48.9093 40.7541 48.9093 40.5268C48.9093 40.2994 49.0861 40.1226 49.3134 40.1226C49.5407 40.1226 49.7175 40.2994 49.7175 40.5268ZM63.357 13.1089C63.357 12.8815 63.5338 12.7047 63.7611 12.7047C63.9885 12.7047 64.1653 12.8815 64.1653 13.1089C64.1653 13.3362 63.9885 13.513 63.7611 13.513C63.5338 13.513 63.357 13.3362 63.357 13.1089ZM54.2261 15.5463C54.2261 15.319 54.0493 15.1422 53.822 15.1422C53.5947 15.1422 53.4179 15.319 53.4179 15.5463C53.4179 15.7736 53.5947 15.9504 53.822 15.9504C54.0493 15.9504 54.2261 15.7736 54.2261 15.5463ZM67.9035 17.4154C67.9035 17.1881 68.0803 17.0113 68.3076 17.0113C68.535 17.0113 68.7118 17.1881 68.7118 17.4154C68.7118 17.6427 68.535 17.8195 68.3076 17.8195C68.0803 17.8195 67.9035 17.6427 67.9035 17.4154ZM71.566 30.1203V26.9883C71.566 26.862 71.5154 26.7484 71.427 26.66C71.3386 26.5715 71.225 26.521 71.0987 26.521H68.1056V30.1203H71.566ZM69.6842 32.9366C69.9115 32.9366 70.0883 32.7598 70.0883 32.5325C70.0883 32.3052 69.9115 32.1284 69.6842 32.1284C69.4569 32.1284 69.2801 32.3052 69.2801 32.5325C69.2801 32.7598 69.4569 32.9366 69.6842 32.9366ZM70.6693 38.9229C70.8966 38.9229 71.0734 39.0997 71.0734 39.327C71.0734 39.5543 70.8966 39.7311 70.6693 39.7311C70.442 39.7311 70.2652 39.5543 70.2652 39.327C70.2652 39.0997 70.442 38.9229 70.6693 38.9229ZM74.3317 28.3901C74.5591 28.3901 74.7359 28.2133 74.7359 27.986C74.7359 27.7587 74.5591 27.5819 74.3317 27.5819C74.1044 27.5819 73.9276 27.7587 73.9276 27.986C73.9276 28.2133 74.1044 28.3901 74.3317 28.3901ZM74.3823 24.614C74.6096 24.614 74.7864 24.4372 74.7864 24.2099C74.7864 23.9826 74.6096 23.8058 74.3823 23.8058C74.1549 23.8058 73.9781 23.9826 73.9781 24.2099C73.9781 24.4372 74.1549 24.614 74.3823 24.614ZM71.9448 33.7449C72.1722 33.7449 72.349 33.9217 72.349 34.149C72.349 34.3764 72.1722 34.5532 71.9448 34.5532C71.7175 34.5532 71.5407 34.3764 71.5407 34.149C71.5407 33.9217 71.7175 33.7449 71.9448 33.7449ZM70.0757 20.0675C70.303 20.0675 70.4799 19.8907 70.4799 19.6634C70.4799 19.4361 70.303 19.2593 70.0757 19.2593C69.8484 19.2593 69.6716 19.4361 69.6716 19.6634C69.6716 19.8907 69.8484 20.0675 70.0757 20.0675ZM48.2778 30.8528V29.6531H43.3398V30.8528H48.2778ZM48.2778 28.9079V26.521H43.8071C43.6808 26.521 43.5671 26.5715 43.4787 26.66C43.3903 26.7484 43.3398 26.862 43.3398 26.9883V28.9079H48.2778ZM40.5235 30.8276C40.2962 30.8276 40.1194 31.0044 40.1194 31.2317C40.1194 31.459 40.2962 31.6358 40.5235 31.6358C40.7508 31.6358 40.9276 31.459 40.9276 31.2317C40.9276 31.0044 40.7508 30.8276 40.5235 30.8276ZM38.4902 21.6967C38.2629 21.6967 38.0861 21.5199 38.0861 21.2926C38.0861 21.0652 38.2629 20.8884 38.4902 20.8884C38.7175 20.8884 38.8943 21.0652 38.8943 21.2926C38.8943 21.5199 38.7175 21.6967 38.4902 21.6967ZM44.83 35.3741C44.6027 35.3741 44.4259 35.5509 44.4259 35.7782C44.4259 36.0055 44.6027 36.1823 44.83 36.1823C45.0574 36.1823 45.2342 36.0055 45.2342 35.7782C45.2342 35.5509 45.0574 35.3741 44.83 35.3741ZM40.5235 24.614C40.2962 24.614 40.1194 24.4372 40.1194 24.2099C40.1194 23.9826 40.2962 23.8058 40.5235 23.8058C40.7508 23.8058 40.9276 23.9826 40.9276 24.2099C40.9276 24.4372 40.7508 24.614 40.5235 24.614ZM42.9609 33.7449C42.7336 33.7449 42.5568 33.9217 42.5568 34.149C42.5568 34.3764 42.7336 34.5532 42.9609 34.5532C43.1883 34.5532 43.3651 34.3764 43.3651 34.149C43.3651 33.9217 43.1883 33.7449 42.9609 33.7449ZM44.83 20.0675C44.6027 20.0675 44.4259 19.8907 44.4259 19.6634C44.4259 19.4361 44.6027 19.2593 44.83 19.2593C45.0574 19.2593 45.2342 19.4361 45.2342 19.6634C45.2342 19.8907 45.0574 20.0675 44.83 20.0675ZM63.3065 34.2122H53.0643C52.8117 34.2122 52.6222 34.0101 52.6222 33.7702V23.5279C52.6222 23.2753 52.8243 23.0859 53.0643 23.0859H63.3065C63.5591 23.0859 63.7485 23.288 63.7485 23.5279V33.7702C63.7485 34.0227 63.5464 34.2122 63.3065 34.2122Z" fill="white"/>
</g>
<defs>
<filter id="filter0_d_91_3" x="0" y="0" width="116.535" height="68.7212" filterUnits="userSpaceOnUse" color-interpolation-filters="sRGB">
<feFlood flood-opacity="0" result="BackgroundImageFix"/>
<feColorMatrix in="SourceAlpha" type="matrix" values="0 0 0 0 0 0 0 0 0 0 0 0 0 0 0 0 0 0 127 0" result="hardAlpha"/>
<feOffset dy="4"/>
<feGaussianBlur stdDeviation="2"/>
<feComposite in2="hardAlpha" operator="out"/>
<feColorMatrix type="matrix" values="0 0 0 0 0 0 0 0 0 0 0 0 0 0 0 0 0 0 0.25 0"/>
<feBlend mode="normal" in2="BackgroundImageFix" result="effect1_dropShadow_91_3"/>
<feBlend mode="normal" in="SourceGraphic" in2="effect1_dropShadow_91_3" result="shape"/>
</filter>
</defs>
</svg>
