<svg width="78" height="79" viewBox="0 0 78 79" fill="none" xmlns="http://www.w3.org/2000/svg">
<g filter="url(#filter0_d_43_62)">
<path fill-rule="evenodd" clip-rule="evenodd" d="M55.8282 57.7355H46.2488V51.9513H45.7678V57.7355H37.9135V51.9513H37.4325V57.7355H29.1884V51.9513H28.7073V57.7355H22.8104C19.6007 57.7355 16.9799 55.1429 16.9799 51.9677V46.1342H22.7855V45.6584H16.9799V37.8887H22.7855V37.4128H16.9799V29.2575H22.7855V28.7816H16.9799V19.3053C16.9799 16.1302 19.6007 13.5375 22.8104 13.5375H28.7073V19.4448H29.1884V13.5375H37.4325V19.4448H37.9135V13.5375H45.7678V19.4448H46.2488V13.5375H55.8282C59.0379 13.5375 61.6588 16.1302 61.6588 19.3053V28.7816H55.654V29.2575H61.6588V37.4046H55.654V37.8805H61.6588V45.6502H55.654V46.126H61.6588V51.9595C61.6588 55.1346 59.0379 57.7273 55.8282 57.7273V57.7355ZM52.295 50.2611H26.3436C25.3483 50.2611 24.5438 49.4571 24.5438 48.4808V22.8087C24.5438 21.8241 25.3566 21.0283 26.3436 21.0283H52.295C53.2903 21.0283 54.0948 21.8323 54.0948 22.8087V48.4808C54.0948 49.4653 53.282 50.2611 52.295 50.2611Z" fill="#0396D6"/>
<path fill-rule="evenodd" clip-rule="evenodd" d="M54.1031 45.6666H63.923C64.4704 45.6666 64.9763 45.8881 65.3329 46.2491C65.6979 46.6101 65.9218 47.1024 65.9218 47.6439V49.7525H64.2713C63.6078 49.7525 63.0687 50.2858 63.0687 50.9421V57.6617C63.0687 58.318 63.6078 58.8513 64.2713 58.8513H71.064C71.7275 58.8513 72.2666 58.318 72.2666 57.6617V50.9421C72.2666 50.2858 71.7275 49.7525 71.064 49.7525H69.1315V47.6439C69.1315 46.2245 68.5427 44.9364 67.6055 44.0011C66.66 43.0657 65.3578 42.4914 63.923 42.4914H54.1031V45.6584V45.6666ZM54.1031 37.421H66.3199C66.942 38.824 68.0616 39.8003 69.9941 39.8003C71.9183 39.8003 74 38.0281 74 35.8375C74 33.6469 71.9183 31.8747 69.9941 31.8747C68.0699 31.8747 66.942 32.8511 66.3199 34.254H54.1031V37.421ZM54.1031 28.7898H63.923C65.3578 28.7898 66.66 28.2073 67.6055 27.2802C68.551 26.3448 69.1315 25.0567 69.1315 23.6373V20.2078C70.5498 19.5925 71.5367 18.4849 71.5367 16.5732C71.5367 14.6697 69.7453 12.6104 67.5308 12.6104C65.3164 12.6104 63.5249 14.6697 63.5249 16.5732C63.5249 18.4767 64.5119 19.5925 65.9301 20.2078V23.6373C65.9301 24.1788 65.7062 24.6793 65.3412 25.0321C64.9763 25.3931 64.4787 25.6146 63.9313 25.6146H54.1114V28.7816L54.1031 28.7898ZM69.9941 37.5441C70.9479 37.5441 71.7275 36.7728 71.7275 35.8293C71.7275 34.8858 70.9479 34.1146 69.9941 34.1146C69.0403 34.1146 68.2607 34.8858 68.2607 35.8293C68.2607 36.7728 69.0403 37.5441 69.9941 37.5441ZM67.5308 18.288C68.4846 18.288 69.2642 17.5167 69.2642 16.5732C69.2642 15.6297 68.4846 14.8585 67.5308 14.8585C66.577 14.8585 65.7974 15.6297 65.7974 16.5732C65.7974 17.5167 66.577 18.288 67.5308 18.288Z" fill="#0396D6"/>
<path fill-rule="evenodd" clip-rule="evenodd" d="M24.5521 45.6666H15.5118C14.9645 45.6666 14.4585 45.8881 14.1019 46.2491C13.737 46.6101 13.513 47.1024 13.513 47.6439V51.0734C14.9313 51.6887 15.9182 52.7963 15.9182 54.708C15.9182 56.6115 14.1268 58.6708 11.9123 58.6708C9.69787 58.6708 7.9064 56.6115 7.9064 54.708C7.9064 52.8046 8.89336 51.6887 10.3116 51.0734V47.6439C10.3116 46.2245 10.9005 44.9364 11.8377 44.0011C12.7832 43.0657 14.0853 42.4914 15.5201 42.4914H24.5604V45.6584L24.5521 45.6666ZM11.9953 40.1613H5.20261C4.5391 40.1613 4 39.628 4 38.9717V32.2521C4 31.5958 4.5391 31.0625 5.20261 31.0625H11.9953C12.6588 31.0625 13.1979 31.5958 13.1979 32.2521V34.254H24.5521V37.421H22.8021H16.1588H13.1979V38.9717C13.1979 39.628 12.6588 40.1613 11.9953 40.1613ZM24.5521 28.7898H15.5118C14.077 28.7898 12.7749 28.2073 11.8294 27.2802C10.8839 26.3448 10.3033 25.0567 10.3033 23.6373V20.2078C8.88507 19.5925 7.8981 18.4849 7.8981 16.5732C7.8981 14.6697 9.68957 12.6104 11.904 12.6104C14.1185 12.6104 15.91 14.6697 15.91 16.5732C15.91 18.4767 14.923 19.5925 13.5047 20.2078V23.6373C13.5047 24.1788 13.7287 24.6793 14.0936 25.0321C14.4585 25.3931 14.9562 25.6146 15.5036 25.6146H24.5438V28.7816L24.5521 28.7898ZM11.904 52.9933C10.9502 52.9933 10.1706 53.7645 10.1706 54.708C10.1706 55.6515 10.9502 56.4228 11.904 56.4228C12.8578 56.4228 13.6374 55.6515 13.6374 54.708C13.6374 53.7645 12.8578 52.9933 11.904 52.9933ZM11.904 18.2962C10.9502 18.2962 10.1706 17.5249 10.1706 16.5814C10.1706 15.6379 10.9502 14.8667 11.904 14.8667C12.8578 14.8667 13.6374 15.6379 13.6374 16.5814C13.6374 17.5249 12.8578 18.2962 11.904 18.2962Z" fill="#0396D6"/>
<path fill-rule="evenodd" clip-rule="evenodd" d="M49.4585 21.0201V9.96854C49.4585 9.42704 49.6825 8.92656 50.0474 8.57377C50.4123 8.21277 50.91 7.99124 51.4574 7.99124H54.5344V9.87009C54.5344 10.5265 55.0735 11.0597 55.737 11.0597H62.5296C63.1931 11.0597 63.7322 10.5265 63.7322 9.87009V3.15055C63.7322 2.49419 63.1931 1.96089 62.5296 1.96089H55.737C55.0735 1.96089 54.5344 2.49419 54.5344 3.15055V4.82428H51.4574C50.0225 4.82428 48.7204 5.40681 47.7749 6.33392C46.8294 7.26924 46.2488 8.55736 46.2488 9.97675V21.0283H49.4502L49.4585 21.0201ZM41.1232 21.0201V7.59742C42.5415 6.98208 43.5284 5.87447 43.5284 3.9628C43.5284 2.05935 41.737 0 39.5225 0C37.3081 0 35.5166 2.05935 35.5166 3.9628C35.5166 5.86626 36.5036 6.98208 37.9218 7.59742V21.0201H41.1232ZM32.3981 21.0201V9.96854C32.3981 8.54915 31.8092 7.26104 30.872 6.32572C29.9265 5.3904 28.6244 4.81608 27.1896 4.81608H23.7228C23.1007 3.4131 21.9811 2.43675 20.0486 2.43675C18.1244 2.43675 16.0427 4.20894 16.0427 6.39956C16.0427 8.59018 18.1244 10.3624 20.0486 10.3624C21.9728 10.3624 23.1007 9.38602 23.7228 7.98304H27.1896C27.737 7.98304 28.2429 8.20456 28.5995 8.56556C28.9645 8.92656 29.1884 9.41884 29.1884 9.96034V21.0119H32.3898L32.3981 21.0201ZM41.2476 3.97101C41.2476 3.02748 40.468 2.25625 39.5142 2.25625C38.5604 2.25625 37.7808 3.02748 37.7808 3.97101C37.7808 4.91453 38.5604 5.68576 39.5142 5.68576C40.468 5.68576 41.2476 4.91453 41.2476 3.97101ZM21.782 6.40776C21.782 5.46424 21.0024 4.69301 20.0486 4.69301C19.0948 4.69301 18.3152 5.46424 18.3152 6.40776C18.3152 7.35129 19.0948 8.12252 20.0486 8.12252C21.0024 8.12252 21.782 7.35129 21.782 6.40776Z" fill="#0396D6"/>
<path fill-rule="evenodd" clip-rule="evenodd" d="M49.4585 50.2611V60.1887C49.4585 60.7302 49.6825 61.2306 50.0474 61.5834C50.4123 61.9444 50.91 62.166 51.4574 62.166H54.9242C55.5462 60.763 56.6659 59.7866 58.5984 59.7866C60.5225 59.7866 62.6043 61.5588 62.6043 63.7494C62.6043 65.9401 60.5225 67.7122 58.5984 67.7122C56.6742 67.7122 55.5462 66.7359 54.9242 65.3329H51.4574C50.0225 65.3329 48.7204 64.7504 47.7749 63.8233C46.8294 62.888 46.2488 61.5998 46.2488 60.1805V50.2529H49.4502L49.4585 50.2611ZM42.6659 70.3623H35.8732C35.2097 70.3623 34.6706 69.829 34.6706 69.1727V62.4531C34.6706 61.7968 35.2097 61.2635 35.8732 61.2635H37.9218V58.5313V51.9595V50.2693H41.1232V61.2635H42.6659C43.3294 61.2635 43.8685 61.7968 43.8685 62.4531V69.1727C43.8685 69.829 43.3294 70.3623 42.6659 70.3623ZM32.3981 50.2611V60.1887C32.3981 61.6081 31.8093 62.8962 30.872 63.8315C29.9265 64.7668 28.6244 65.3411 27.1896 65.3411H23.7228C23.1007 66.7441 21.9811 67.7204 20.0486 67.7204C18.1244 67.7204 16.0427 65.9483 16.0427 63.7576C16.0427 61.567 18.1244 59.7948 20.0486 59.7948C21.9728 59.7948 23.1007 60.7712 23.7228 62.1742H27.1896C27.737 62.1742 28.2429 61.9526 28.5995 61.5916C28.9645 61.2306 29.1884 60.7384 29.1884 60.1969V50.2693H32.3898L32.3981 50.2611ZM56.8649 63.7576C56.8649 64.7012 57.6446 65.4724 58.5984 65.4724C59.5521 65.4724 60.3318 64.7012 60.3318 63.7576C60.3318 62.8141 59.5521 62.0429 58.5984 62.0429C57.6446 62.0429 56.8649 62.8141 56.8649 63.7576ZM21.7903 63.7576C21.7903 64.7012 21.0107 65.4724 20.0569 65.4724C19.1031 65.4724 18.3235 64.7012 18.3235 63.7576C18.3235 62.8141 19.1031 62.0429 20.0569 62.0429C21.0107 62.0429 21.7903 62.8141 21.7903 63.7576Z" fill="#0396D6"/>
<path fill-rule="evenodd" clip-rule="evenodd" d="M50.9183 47.9885H49.5332V23.301H50.9183C51.4076 23.301 51.8057 23.6948 51.8057 24.1788V47.1106C51.8057 47.5947 51.4076 47.9885 50.9183 47.9885ZM49.0522 47.9885H47.3187V23.301H49.0522V47.9885ZM46.8377 47.9885H45.1043V23.301H46.8377V47.9885ZM44.6232 47.9885H42.8898V23.301H44.6232V47.9885ZM42.4088 47.9885H40.6754V23.301H42.4088V47.9885ZM40.1943 47.9885H38.4609V23.301H40.1943V47.9885ZM37.9799 47.9885H36.2465V23.301H37.9799V47.9885ZM35.7654 47.9885H34.032V23.301H35.7654V47.9885ZM33.551 47.9885H31.8176V23.301H33.551V47.9885ZM31.3365 47.9885H29.6031V23.301H31.3365V47.9885ZM29.1221 47.9885H27.737C27.2477 47.9885 26.8495 47.5947 26.8495 47.1106V24.1788C26.8495 23.6948 27.2477 23.301 27.737 23.301H29.1221V47.9885Z" fill="#B5D1D5"/>
</g>
<defs>
<filter id="filter0_d_43_62" x="0" y="0" width="78" height="78.3623" filterUnits="userSpaceOnUse" color-interpolation-filters="sRGB">
<feFlood flood-opacity="0" result="BackgroundImageFix"/>
<feColorMatrix in="SourceAlpha" type="matrix" values="0 0 0 0 0 0 0 0 0 0 0 0 0 0 0 0 0 0 127 0" result="hardAlpha"/>
<feOffset dy="4"/>
<feGaussianBlur stdDeviation="2"/>
<feComposite in2="hardAlpha" operator="out"/>
<feColorMatrix type="matrix" values="0 0 0 0 0 0 0 0 0 0 0 0 0 0 0 0 0 0 0.25 0"/>
<feBlend mode="normal" in2="BackgroundImageFix" result="effect1_dropShadow_43_62"/>
<feBlend mode="normal" in="SourceGraphic" in2="effect1_dropShadow_43_62" result="shape"/>
</filter>
</defs>
</svg>
