<svg width="70" height="68" viewBox="0 0 70 68" fill="none" xmlns="http://www.w3.org/2000/svg">
<path fill-rule="evenodd" clip-rule="evenodd" d="M4.96209 36.8549C4.91207 36.4591 4.91207 36.0533 4.9821 35.6673L6.42271 27.7798C7.3231 22.8413 8.4836 20.8422 12.1552 20.8323L14.166 20.3672C14.8763 20.9214 15.7767 21.2579 16.7571 21.2579C17.7276 21.2579 18.6279 20.9214 19.3483 20.3672L21.3591 20.8323C21.5592 20.8323 21.7493 20.8422 21.9394 20.8521C25.2708 20.8521 29.0824 18.6749 35.9654 15.884C37.5961 15.2606 39.797 17.7842 37.0859 19.2093C32.1938 21.8913 26.6414 24.4644 25.3508 29.383C24.3704 33.9453 25.3008 40.2198 25.2208 40.1802L27.1416 48.8298C25.3408 49.8986 23.9302 51.6701 23.1699 53.6495C22.2395 51.0467 20.2486 48.7803 17.5875 48.0282C17.7276 47.4938 17.7976 46.9495 17.7976 46.3953V46.1478C18.1978 45.4947 18.3478 44.6436 18.3478 43.9211C18.3478 43.1987 18.1978 42.3475 17.7976 41.7043C17.7976 41.536 17.8076 41.249 17.8376 41.0214L19.8485 40.5958L19.0481 38.9134C18.9181 38.7848 18.778 38.6066 18.658 38.4681C18.3878 38.1613 18.1077 37.8545 17.8176 37.5675C17.0072 36.7461 16.0869 36.0137 15.0764 35.4595C11.9951 33.7771 8.89377 34.2917 6.1526 36.3007C5.72241 36.4096 5.32224 36.5778 4.9921 36.845L4.96209 36.8549ZM10.5545 18.1108C11.1848 18.2889 12.0951 18.5264 13.1356 18.7442C13.8559 19.9812 15.2165 20.8125 16.7571 20.8125C18.1377 20.8125 19.3683 20.1396 20.1286 19.1202C21.5792 18.8134 22.7297 18.1306 23.1499 16.8143C22.2595 16.2304 21.209 15.3694 22.2895 12.3015C25.0907 6.38331 12.8054 4.18626 12.5954 8.40221C8.23349 10.4112 12.7454 16.2997 10.5545 18.1207V18.1108Z" fill="#B5D1D5"/>
<path fill-rule="evenodd" clip-rule="evenodd" d="M49.3112 10.8368C49.6513 10.7378 49.6713 10.9753 49.4612 11.1436L38.1564 16.8242C38.0063 16.5471 37.7762 16.2997 37.5061 16.1216L49.3112 10.8368Z" fill="#0396D6"/>
<path d="M7.41322 0.0098966H62.5569C63.5873 0.0098966 64.5277 0.425554 65.208 1.09852C65.8883 1.77149 66.3085 2.70177 66.3085 3.72112V30.6399C66.3085 31.6592 65.8883 32.5895 65.208 33.2625C64.5277 33.9354 63.5873 34.3511 62.5569 34.3511H26.1512C26.1512 33.7573 26.1713 33.1635 26.2013 32.5796H62.5468C63.0871 32.5796 63.5773 32.3619 63.9374 32.0056C64.2976 31.6493 64.5177 31.1644 64.5177 30.63V3.71122C64.5177 3.17681 64.2976 2.69188 63.9374 2.3356C63.5773 1.97932 63.0871 1.76159 62.5468 1.76159H7.40321C6.86298 1.76159 6.37277 1.97932 6.01262 2.3356C5.65246 2.69188 5.43237 3.17681 5.43237 3.71122V26.1864C5.33233 26.6318 5.25229 27.0771 5.16225 27.5422L4.23185 32.6291C3.8617 32.0551 3.6416 31.3623 3.6416 30.63V3.71122C3.6416 2.69188 4.06178 1.76159 4.74207 1.08863C5.42236 0.415657 6.36277 0 7.39321 0L7.41322 0.0098966Z" fill="#0396D6"/>
<path fill-rule="evenodd" clip-rule="evenodd" d="M16.5371 41.7834V41.8329V41.8824V41.922V42.1298C16.8572 42.4267 17.0873 43.1294 17.0873 43.931C17.0873 44.7425 16.8572 45.4353 16.5371 45.7421V46.4051C16.5371 47.3552 16.277 48.236 15.8268 49.0079C19.6684 49.1267 22.4796 53.0952 22.4796 56.9252V67.8115H20.7489V62.1803C20.7489 61.161 20.5788 60.1812 20.2787 59.2608C20.5088 60.0427 20.6288 60.8641 20.6288 61.7053V67.8016H2.55109V61.7053C2.55109 56.7867 6.61283 52.7687 11.585 52.7687C11.7851 52.7687 11.9951 52.7786 12.1952 52.7885C11.8651 52.7588 11.5349 52.739 11.2048 52.739C5.95255 52.739 1.66071 56.9846 1.66071 62.1803V67.8115H0V56.9252C0 53.1843 2.95126 49.3246 6.66286 49.0178C6.21266 48.2459 5.95255 47.3552 5.95255 46.4051V45.8905C5.47235 45.841 5.09218 44.98 5.09218 43.931C5.09218 42.882 5.47235 42.021 5.95255 41.9715V41.922V41.6053V41.4272C5.79248 39.9328 4.32185 37.8545 6.64285 37.4685C12.9455 32.5994 17.5075 39.24 18.1678 39.8338C16.6071 39.141 16.5271 40.8334 16.5271 41.7933L16.5371 41.7834ZM59.1253 52.7786C59.3354 52.7786 59.5355 52.7885 59.7356 52.7983C59.4055 52.7687 59.0753 52.7489 58.7452 52.7489C53.4929 52.7489 49.2011 56.9945 49.2011 62.1902V67.8214H47.5404V56.9351C47.5404 53.1942 50.4916 49.3345 54.2032 49.0277C53.753 48.2558 53.4929 47.3651 53.4929 46.415V45.9004C53.0127 45.8509 52.6326 44.9899 52.6326 43.9409C52.6326 42.8919 53.0127 42.0308 53.4929 41.9814V41.9319V41.6152V41.4371C53.3329 39.9427 52.8927 38.5571 54.1832 37.4784C58.1949 34.3808 61.4964 35.9345 63.5372 37.6368C64.7077 38.6066 64.0374 38.092 64.2775 38.3097C64.9078 39.8932 64.0675 40.8433 64.0575 41.8032V41.8527V41.9022V41.9418V42.1496C64.3776 42.4465 64.6077 43.1492 64.6077 43.9508C64.6077 44.7623 64.3776 45.4551 64.0575 45.7619V46.4249C64.0575 47.375 63.7973 48.2558 63.3471 49.0277C67.1888 49.1465 70 53.115 70 56.945V67.8313H68.2693V62.2001C68.2693 61.1808 68.1092 60.2109 67.7991 59.2905C68.0191 60.0625 68.1392 60.8839 68.1392 61.735V67.8313H50.0615V61.735C50.0615 56.8164 54.1232 52.7983 59.0953 52.7983L59.1253 52.7786ZM35.3652 52.7786C35.5652 52.7786 35.7753 52.7885 35.9754 52.7983C35.6453 52.7687 35.3151 52.7489 34.985 52.7489C29.7327 52.7489 25.4409 56.9945 25.4409 62.1902V67.8214H23.7802V56.9351C23.7802 53.1942 26.7315 49.3345 30.443 49.0277C29.9929 48.2558 29.7327 47.3651 29.7327 46.415V45.9004C29.2525 45.8509 28.8724 44.9899 28.8724 43.9409C28.8724 42.8919 29.2525 42.0308 29.7327 41.9814V41.9319V41.6152V41.4371C29.5327 35.0834 40.3073 33.5 40.3073 42.1397C40.6274 42.4366 40.8575 43.1393 40.8575 43.9409C40.8575 44.7524 40.6274 45.4452 40.3073 45.752V46.415C40.3073 47.3651 40.0472 48.2459 39.597 49.0178C43.4386 49.1366 46.2498 53.1051 46.2498 56.9351V67.8214H44.5191V62.1902C44.5191 61.1709 44.359 60.1911 44.0489 59.2806C44.269 60.0625 44.389 60.874 44.389 61.7251V67.8214H26.3113V61.7251C26.3113 56.8065 30.373 52.7885 35.3451 52.7885L35.3652 52.7786Z" fill="#0396D6"/>
</svg>
