<svg width="80" height="61" viewBox="0 0 80 61" fill="none" xmlns="http://www.w3.org/2000/svg">
<path d="M6.63963 10.0421H16.3102V12.6098H6.63963C6.19646 12.6098 5.79286 12.7899 5.50796 13.0796C5.21516 13.3692 5.03314 13.7685 5.03314 14.199V46.8441C5.03314 47.2825 5.21516 47.6818 5.50796 47.9636C5.80077 48.2533 6.20437 48.4333 6.63963 48.4333H55.1983V51.0011H6.63963C5.48422 51.0011 4.43169 50.5314 3.67198 49.7798C2.91226 49.0283 2.43743 47.9871 2.43743 46.8441V14.199C2.43743 13.0561 2.91226 12.0149 3.67198 11.2633C4.43169 10.5118 5.48422 10.0421 6.63963 10.0421ZM67.8128 20.5558V14.199C67.8128 13.7606 67.6308 13.3614 67.338 13.0796C67.0452 12.7899 66.6416 12.6098 66.2064 12.6098H56.5041V10.0421H66.2064C67.3618 10.0421 68.4143 10.5118 69.174 11.2633C69.9337 12.0149 70.4085 13.0561 70.4085 14.199V20.6341C69.8783 20.5558 69.3402 20.5089 68.7941 20.5089C68.4697 20.5089 68.1373 20.5245 67.8128 20.5558ZM55.8868 60.1605H2.90434C1.30577 60.1605 0 58.8688 0 57.2874V53.0756C0 52.7938 0.229498 52.559 0.522307 52.559H26.4635C26.7484 52.559 26.9859 52.786 26.9859 53.0756V54.0464C26.9859 54.5004 27.3657 54.8762 27.8247 54.8762H45.0292C45.4882 54.8762 45.868 54.5004 45.868 54.0464V53.0756C45.868 52.7938 46.0975 52.559 46.3903 52.559H55.2063V57.7023C55.2063 58.5948 55.4595 59.4403 55.8947 60.1527L55.8868 60.1605Z" fill="#0396D6"/>
<path fill-rule="evenodd" clip-rule="evenodd" d="M54.1221 22.4425C54.1458 22.8339 54.1617 23.2254 54.1617 23.6168C54.1617 33.6452 46.3825 41.325 37.0838 44.1589L36.4191 44.3625L35.7543 44.1589C26.4557 41.325 18.6765 33.6452 18.6765 23.6168V5.70506C18.6765 4.35072 19.6419 3.18426 20.9873 2.92592L35.873 0.0528427C36.237 -0.0176142 36.609 -0.0176142 36.973 0.0528427L51.8192 2.92592C53.1645 3.18426 54.13 4.35072 54.13 5.70506V22.4425H54.1221ZM36.4191 42.0217C27.3895 39.2739 20.9398 32.0716 20.9398 23.6246V5.71289C20.9398 5.43106 21.1376 5.18837 21.4225 5.13357L36.3083 2.2605C36.3874 2.24484 36.4586 2.24484 36.5378 2.2605L51.3839 5.13357C51.6688 5.18837 51.8667 5.42323 51.8667 5.71289V22.5208C51.8904 22.8887 51.9062 23.2567 51.9062 23.6246C51.9062 32.0716 45.4645 39.2739 36.427 42.0217H36.4191Z" fill="#B5D1D5"/>
<path fill-rule="evenodd" clip-rule="evenodd" d="M36.419 39.6888C43.5177 37.2933 49.6587 31.414 49.6587 23.6168C49.6587 23.2958 49.6508 22.9748 49.6271 22.6539L49.6192 22.5834V7.04374L36.419 4.4838L23.1794 7.04374V23.6168C23.1794 31.414 29.3204 37.2933 36.419 39.6888Z" fill="#0396D6"/>
<path d="M68.7862 22.8574C71.0575 22.8574 73.115 23.7734 74.6107 25.253C76.1064 26.7326 77.0323 28.768 77.0323 31.0148V37.1367H73.7798V31.0148C73.7798 29.6604 73.2179 28.4235 72.3157 27.5311C71.4136 26.6386 70.1632 26.0828 68.7941 26.0828C67.4251 26.0828 66.1747 26.6386 65.2725 27.5311C64.3704 28.4235 63.8085 29.6604 63.8085 31.0148V37.1367H60.5559V31.0148C60.5559 28.768 61.4818 26.7326 62.9775 25.253C64.4732 23.7734 66.5308 22.8574 68.802 22.8574H68.7862ZM70.0128 48.0575C70.4956 47.6974 70.8042 47.1181 70.8042 46.4762C70.8042 45.3802 69.9021 44.4877 68.7941 44.4877C67.6862 44.4877 66.784 45.3802 66.784 46.4762C66.784 47.1181 67.0927 47.6896 67.5754 48.0575L67.0452 52.3632C67.0294 52.512 67.0689 52.6451 67.1718 52.7547C67.2747 52.8643 67.4013 52.9191 67.5517 52.9191H70.0524C70.2028 52.9191 70.3294 52.8643 70.4323 52.7547C70.5352 52.6451 70.5747 52.512 70.5589 52.3632L70.0287 48.0575H70.0128ZM60.0494 37.5829H77.523C78.8842 37.5829 80 38.6868 80 40.0333V57.7101C80 59.0567 78.8842 60.1605 77.523 60.1605H60.0494C58.6883 60.1605 57.5724 59.0567 57.5724 57.7101V40.0333C57.5724 38.6868 58.6883 37.5829 60.0494 37.5829Z" fill="#0396D6"/>
<path fill-rule="evenodd" clip-rule="evenodd" d="M40.7795 24.2509H42.2198C42.4097 24.2509 42.5759 24.3292 42.7025 24.4466C42.8291 24.5719 42.9004 24.7363 42.9004 24.9242V26.0906C42.4176 26.302 42.0773 26.6778 42.0773 27.3275C42.0773 27.9773 42.6867 28.6819 43.4464 28.6819C44.1982 28.6819 44.8155 27.9773 44.8155 27.3275C44.8155 26.6778 44.4752 26.2942 43.9925 26.0906V24.9242C43.9925 24.4388 43.7946 24.0004 43.4702 23.6873C43.1457 23.3663 42.7025 23.1706 42.2198 23.1706H40.7795V24.2509ZM38.714 24.979V28.8541C38.714 29.042 38.7931 29.2064 38.9118 29.3316C39.0385 29.4569 39.2047 29.5274 39.3946 29.5274H40.5737C40.7874 29.0498 41.1673 28.7132 41.8241 28.7132C42.4809 28.7132 43.1932 29.316 43.1932 30.0675C43.1932 30.8112 42.4809 31.4219 41.8241 31.4219C41.1673 31.4219 40.7795 31.0852 40.5737 30.6077H39.3946C38.9039 30.6077 38.4608 30.412 38.1442 30.091C37.8198 29.77 37.6219 29.3316 37.6219 28.8541V24.979H38.714ZM35.9442 24.979V29.6683C35.4615 29.8796 35.1212 30.2554 35.1212 30.9052C35.1212 31.555 35.7305 32.2595 36.4902 32.2595C37.242 32.2595 37.8593 31.555 37.8593 30.9052C37.8593 30.2554 37.519 29.8718 37.0363 29.6683V24.979H35.9442ZM34.2348 24.979V28.8541C34.2348 29.042 34.1557 29.2064 34.037 29.3316C33.9104 29.4569 33.7442 29.5274 33.5542 29.5274H32.3751C32.1614 29.0498 31.7816 28.7132 31.1247 28.7132C30.4679 28.7132 29.7557 29.316 29.7557 30.0675C29.7557 30.8112 30.4679 31.4219 31.1247 31.4219C31.7816 31.4219 32.1693 31.0852 32.3751 30.6077H33.5542C34.0449 30.6077 34.4881 30.412 34.8046 30.091C35.1291 29.77 35.3269 29.3316 35.3269 28.8541V24.979H34.2348ZM37.0759 30.9052C37.0759 31.2262 36.8147 31.4923 36.4823 31.4923C36.1579 31.4923 35.8888 31.234 35.8888 30.9052C35.8888 30.5842 36.15 30.318 36.4823 30.318C36.8068 30.318 37.0759 30.5764 37.0759 30.9052ZM41.2385 30.0754C41.2385 30.3963 41.4996 30.6625 41.832 30.6625C42.1565 30.6625 42.4255 30.4042 42.4255 30.0754C42.4255 29.7544 42.1644 29.4882 41.832 29.4882C41.5076 29.4882 41.2385 29.7466 41.2385 30.0754ZM31.7103 30.0754C31.7103 30.3963 31.4492 30.6625 31.1168 30.6625C30.7924 30.6625 30.5233 30.4042 30.5233 30.0754C30.5233 29.7544 30.7844 29.4882 31.1168 29.4882C31.4413 29.4882 31.7103 29.7466 31.7103 30.0754ZM38.714 16.7433V12.8682C38.714 12.6803 38.7931 12.5159 38.9118 12.3906C39.0385 12.2654 39.2047 12.1949 39.3946 12.1949H40.5737C40.7874 12.6725 41.1673 13.0091 41.8241 13.0091C42.4809 13.0091 43.1932 12.4063 43.1932 11.6548C43.1932 10.9111 42.4809 10.3004 41.8241 10.3004C41.1673 10.3004 40.7795 10.6371 40.5737 11.1146H39.3946C38.9039 11.1146 38.4608 11.3103 38.1442 11.6313C37.8198 11.9522 37.6219 12.3906 37.6219 12.8682V16.7433H38.714ZM35.9442 16.7433V12.054C35.4615 11.8426 35.1212 11.4669 35.1212 10.8171C35.1212 10.1673 35.7305 9.46277 36.4902 9.46277C37.242 9.46277 37.8593 10.1673 37.8593 10.8171C37.8593 11.4669 37.519 11.8505 37.0363 12.054V16.7433H35.9442ZM34.2348 16.7433V12.8682C34.2348 12.6803 34.1557 12.5159 34.037 12.3906C33.9104 12.2654 33.7442 12.1949 33.5542 12.1949H32.3751C32.1614 12.6725 31.7816 13.0091 31.1247 13.0091C30.4679 13.0091 29.7557 12.4063 29.7557 11.6548C29.7557 10.9111 30.4679 10.3004 31.1247 10.3004C31.7816 10.3004 32.1693 10.6371 32.3751 11.1146H33.5542C34.0449 11.1146 34.4881 11.3103 34.8046 11.6313C35.1291 11.9522 35.3269 12.3906 35.3269 12.8682V16.7433H34.2348ZM37.0759 10.8171C37.0759 10.4961 36.8147 10.23 36.4823 10.23C36.1579 10.23 35.8888 10.4883 35.8888 10.8171C35.8888 11.1381 36.15 11.4043 36.4823 11.4043C36.8068 11.4043 37.0759 11.1459 37.0759 10.8171ZM41.2385 11.6469C41.2385 11.326 41.4996 11.0598 41.832 11.0598C42.1565 11.0598 42.4255 11.3181 42.4255 11.6469C42.4255 11.9679 42.1644 12.2341 41.832 12.2341C41.5076 12.2341 41.2385 11.9757 41.2385 11.6469ZM31.7103 11.6469C31.7103 11.326 31.4492 11.0598 31.1168 11.0598C30.7924 11.0598 30.5233 11.3181 30.5233 11.6469C30.5233 11.9679 30.7844 12.2341 31.1168 12.2341C31.4413 12.2341 31.7103 11.9757 31.7103 11.6469ZM33.2456 17.1817H39.5924C39.8852 17.1817 40.1147 17.4166 40.1147 17.6984V23.9769C40.1147 24.2666 39.8773 24.4936 39.5924 24.4936H33.2456C32.9528 24.4936 32.7233 24.2587 32.7233 23.9769V17.6984C32.7233 17.4088 32.9607 17.1817 33.2456 17.1817ZM32.0585 23.1784H30.6182C30.1276 23.1784 29.6844 23.3741 29.3679 23.6951C29.0434 24.0161 28.8456 24.4545 28.8456 24.932V26.0984C28.3628 26.3098 28.0225 26.6856 28.0225 27.3354C28.0225 27.9851 28.6319 28.6897 29.3916 28.6897C30.1434 28.6897 30.7607 27.9851 30.7607 27.3354C30.7607 26.6856 30.4204 26.302 29.9377 26.0984V24.932C29.9377 24.7441 30.0168 24.5797 30.1355 24.4545C30.2621 24.3292 30.4283 24.2587 30.6182 24.2587H32.0585V23.1784ZM32.0585 21.4483H29.8031C29.5895 21.9258 29.2096 22.2625 28.5528 22.2625C27.8959 22.2625 27.1837 21.6597 27.1837 20.9081C27.1837 20.1644 27.8959 19.5538 28.5528 19.5538C29.2096 19.5538 29.5974 19.8904 29.8031 20.3679H32.0585V21.4483ZM40.7795 20.3679H43.0349C43.2486 19.8904 43.6284 19.5538 44.2853 19.5538C44.9421 19.5538 45.6544 20.1566 45.6544 20.9081C45.6544 21.6518 44.9421 22.2625 44.2853 22.2625C43.6284 22.2625 43.2407 21.9258 43.0349 21.4483H40.7795V20.3679ZM32.0585 18.5047H30.6182C30.1276 18.5047 29.6844 18.309 29.3679 17.9881C29.0434 17.6671 28.8456 17.2287 28.8456 16.7512V15.5847C28.3628 15.3733 28.0225 14.9976 28.0225 14.3478C28.0225 13.698 28.6319 12.9934 29.3916 12.9934C30.1434 12.9934 30.7607 13.698 30.7607 14.3478C30.7607 14.9976 30.4204 15.3812 29.9377 15.5847V16.7512C29.9377 16.939 30.0168 17.1034 30.1355 17.2287C30.2621 17.354 30.4283 17.4244 30.6182 17.4244H32.0585V18.5047ZM40.7795 17.4244H42.2198C42.4097 17.4244 42.5759 17.3461 42.7025 17.2287C42.8291 17.1034 42.9004 16.939 42.9004 16.7512V15.5847C42.4176 15.3733 42.0773 14.9976 42.0773 14.3478C42.0773 13.698 42.6867 12.9934 43.4464 12.9934C44.1982 12.9934 44.8155 13.698 44.8155 14.3478C44.8155 14.9976 44.4752 15.3812 43.9925 15.5847V16.7512C43.9925 17.2365 43.7946 17.6749 43.4702 17.9881C43.1457 18.309 42.7025 18.5047 42.2198 18.5047H40.7795V17.4244ZM28.5528 21.4874C28.2283 21.4874 27.9592 21.2291 27.9592 20.9003C27.9592 20.5793 28.2204 20.3131 28.5528 20.3131C28.8772 20.3131 29.1463 20.5715 29.1463 20.9003C29.1463 21.2213 28.8851 21.4874 28.5528 21.4874ZM29.3916 26.7482C29.0672 26.7482 28.7981 27.0066 28.7981 27.3354C28.7981 27.6563 29.0592 27.9225 29.3916 27.9225C29.7161 27.9225 29.9851 27.6642 29.9851 27.3354C29.9851 27.0144 29.724 26.7482 29.3916 26.7482ZM29.3916 14.9193C29.0672 14.9193 28.7981 14.6609 28.7981 14.3321C28.7981 14.0112 29.0592 13.745 29.3916 13.745C29.7161 13.745 29.9851 14.0033 29.9851 14.3321C29.9851 14.6531 29.724 14.9193 29.3916 14.9193ZM44.2932 21.4874C44.6177 21.4874 44.8867 21.2291 44.8867 20.9003C44.8867 20.5793 44.6256 20.3131 44.2932 20.3131C43.9687 20.3131 43.6997 20.5715 43.6997 20.9003C43.6997 21.2213 43.9608 21.4874 44.2932 21.4874ZM43.4543 26.7482C43.7788 26.7482 44.0479 27.0066 44.0479 27.3354C44.0479 27.6563 43.7867 27.9225 43.4543 27.9225C43.1299 27.9225 42.8608 27.6642 42.8608 27.3354C42.8608 27.0144 43.122 26.7482 43.4543 26.7482ZM43.4543 14.9193C43.7788 14.9193 44.0479 14.6609 44.0479 14.3321C44.0479 14.0112 43.7867 13.745 43.4543 13.745C43.1299 13.745 42.8608 14.0033 42.8608 14.3321C42.8608 14.6531 43.122 14.9193 43.4543 14.9193Z" fill="white"/>
</svg>
