<svg width="98" height="89" viewBox="0 0 98 89" fill="none" xmlns="http://www.w3.org/2000/svg">
<path d="M37.5464 24.0533H88.9591C90.5861 24.0533 92.0681 24.7166 93.1459 25.7944C94.2236 26.8722 94.8869 28.3541 94.8869 29.9812V45.5366H92.0059V29.9812C92.0059 29.1417 91.6639 28.3852 91.1043 27.8256C90.555 27.2763 89.7881 26.924 88.9487 26.924H37.5361V24.043L37.5464 24.0533ZM94.8869 56.4181V72.0253C94.8869 73.6524 94.2236 75.1343 93.1459 76.2121C92.0681 77.2899 90.5861 77.9531 88.9591 77.9531H13.5449C11.9179 77.9531 10.4359 77.2899 9.35811 76.2121C8.28032 75.1343 7.61707 73.6524 7.61707 72.0253V69.7765H10.4981V72.0253C10.4981 72.8647 10.8401 73.6213 11.3997 74.1809C11.9489 74.7301 12.7158 75.0825 13.5553 75.0825H88.9694C89.8089 75.0825 90.5654 74.7405 91.125 74.1809C91.6743 73.6316 92.0266 72.8647 92.0266 72.0253V56.4181H94.9076H94.8869Z" fill="#0396D6"/>
<path fill-rule="evenodd" clip-rule="evenodd" d="M97.6539 80.2537V83.943C97.6539 86.4095 95.6331 88.4304 93.1666 88.4304H9.32702C6.86055 88.4304 4.83969 86.4095 4.83969 83.943V80.2537H36.5101V80.6786C36.5101 81.3004 37.1526 81.8082 37.9299 81.8082H64.5534C65.341 81.8082 65.9731 81.3004 65.9731 80.6786V80.2537H97.6436H97.6539Z" fill="#0396D6"/>
<path fill-rule="evenodd" clip-rule="evenodd" d="M34.1369 25.6494V64.3669L31.7326 65.7556L29.3283 67.1443L26.924 65.7556L24.5197 64.3669V25.6494C24.5197 25.3177 24.3539 25.0379 24.0741 24.8721L23.2346 24.385L17.597 21.131C17.3068 20.9651 17.1513 20.6853 17.1513 20.3537V13.8455V7.33732C17.1513 7.00569 17.3172 6.72588 17.597 6.56007L23.2346 3.30598L24.5197 2.55981V16.6229L26.924 18.0116L29.3283 19.4003L31.7326 18.0116L34.1369 16.6229V2.55981L35.4219 3.30598L41.0596 6.56007C41.3498 6.72588 41.5052 7.00569 41.5052 7.33732V13.8455V20.3537C41.5052 20.6853 41.3394 20.9651 41.0596 21.131L35.4219 24.385L34.5825 24.8721C34.2923 25.0379 34.1369 25.3177 34.1369 25.6494ZM28.8827 25.0587H29.7843C30.2092 25.0587 30.5512 25.4007 30.5512 25.8256V61.9729C30.5512 62.3978 30.2092 62.7398 29.7843 62.7398H28.8827C28.4578 62.7398 28.1158 62.3978 28.1158 61.9729V25.8256C28.1158 25.4007 28.4578 25.0587 28.8827 25.0587Z" fill="#B5D1D5"/>
<path fill-rule="evenodd" clip-rule="evenodd" d="M7.85542 0.12436L14.3429 3.8759C14.6331 4.04171 14.7885 4.32152 14.7885 4.65315V29.4734C14.7885 29.9708 14.3843 30.375 13.8869 30.375H0.901612C0.404171 30.375 0 29.9708 0 29.4734V4.65315C0 4.32152 0.165814 4.04171 0.445624 3.8759L6.94345 0.12436C7.23362 -0.0414534 7.55489 -0.0414534 7.84506 0.12436H7.85542ZM10.353 5.0055H11.4722C11.8142 5.0055 12.1044 5.28531 12.1044 5.63767V26.2711C12.1044 26.6131 11.8246 26.9033 11.4722 26.9033H10.353C10.011 26.9033 9.72083 26.6235 9.72083 26.2711V5.63767C9.72083 5.29568 10.0006 5.0055 10.353 5.0055ZM3.337 5.0055H4.45624C4.79823 5.0055 5.08841 5.28531 5.08841 5.63767V26.2711C5.08841 26.6131 4.8086 26.9033 4.45624 26.9033H3.337C2.99501 26.9033 2.70484 26.6235 2.70484 26.2711V5.63767C2.70484 5.29568 2.98465 5.0055 3.337 5.0055Z" fill="#0396D6"/>
<path fill-rule="evenodd" clip-rule="evenodd" d="M9.58611 33.0591V52.1484L11.2442 52.9878L9.09903 67.1442H5.84494L3.7619 52.7702L5.2335 52.0862V33.0591H9.58611Z" fill="#B5D1D5"/>
<path fill-rule="evenodd" clip-rule="evenodd" d="M94.8869 59.009H80.7513C80.316 59.009 79.9222 59.1852 79.6321 59.4754C79.3419 59.7655 79.1657 60.1594 79.1657 60.5946V63.3305C80.285 63.8176 81.0622 64.7089 81.0622 66.2323C81.0622 67.7557 79.6424 69.3931 77.9014 69.3931C76.15 69.3931 74.7406 67.7557 74.7406 66.2323C74.7406 64.7089 75.5178 63.8176 76.6371 63.3305V60.5946C76.6371 59.465 77.1034 58.4287 77.8392 57.6929C78.5854 56.9467 79.6113 56.4907 80.7409 56.4907H94.8766V59.0194L94.8869 59.009ZM94.8869 52.4283H78.8652C78.3781 53.5475 77.4868 54.3248 75.9634 54.3248C74.44 54.3248 72.8026 52.905 72.8026 51.164C72.8026 49.4126 74.44 48.0031 75.9634 48.0031C77.4868 48.0031 78.3781 48.7804 78.8652 49.8996H94.8869V52.4283ZM94.8869 45.5367H80.7513C79.6217 45.5367 78.5854 45.0703 77.8496 44.3345C77.1034 43.5883 76.6474 42.5624 76.6474 41.4328V38.6968C75.5282 38.2098 74.7509 37.3185 74.7509 35.7951C74.7509 34.2717 76.1707 32.6343 77.9117 32.6343C79.6632 32.6343 81.0726 34.2717 81.0726 35.7951C81.0726 37.3185 80.2953 38.2098 79.1761 38.6968V41.4328C79.1761 41.868 79.3523 42.2618 79.6424 42.552C79.9326 42.8422 80.3264 43.0184 80.7617 43.0184H94.8973V45.547L94.8869 45.5367ZM75.9634 52.5319C75.2069 52.5319 74.5955 51.9205 74.5955 51.164C74.5955 50.4074 75.2069 49.796 75.9634 49.796C76.72 49.796 77.3314 50.4074 77.3314 51.164C77.3314 51.9205 76.72 52.5319 75.9634 52.5319ZM77.9117 64.8643C77.1552 64.8643 76.5438 65.4758 76.5438 66.2323C76.5438 66.9888 77.1552 67.6002 77.9117 67.6002C78.6683 67.6002 79.2797 66.9888 79.2797 66.2323C79.2797 65.4758 78.6683 64.8643 77.9117 64.8643ZM77.9117 37.1631C77.1552 37.1631 76.5438 36.5516 76.5438 35.7951C76.5438 35.0386 77.1552 34.4271 77.9117 34.4271C78.6683 34.4271 79.2797 35.0386 79.2797 35.7951C79.2797 36.5516 78.6683 37.1631 77.9117 37.1631Z" fill="#0396D6"/>
</svg>
