<svg width="95" height="84" viewBox="0 0 95 84" fill="none" xmlns="http://www.w3.org/2000/svg">
<path fill-rule="evenodd" clip-rule="evenodd" d="M65.0179 39.9534V27.6496C65.0179 25.0936 62.9284 23.0138 60.3821 23.0138H26.4931C23.9371 23.0138 21.8573 25.1033 21.8573 27.6496V48.9821C19.0583 47.602 16.6675 45.5222 14.9084 42.976H6.47263C6.12276 42.976 5.80205 43.1217 5.5688 43.355C5.33555 43.5882 5.18977 43.909 5.18977 44.2588V46.4844C6.09361 46.8829 6.73504 47.602 6.73504 48.8363C6.73504 50.0706 5.58823 51.4118 4.15959 51.4118C2.74066 51.4118 1.58414 50.0803 1.58414 48.8363C1.58414 47.602 2.21586 46.8731 3.12941 46.4844V44.2588C3.12941 43.3355 3.50844 42.4997 4.111 41.8972C4.71355 41.2946 5.54936 40.9156 6.47263 40.9156H13.6742C13.1396 39.8757 12.7023 38.7678 12.3816 37.621H4.93708C4.53862 38.5248 3.81944 39.1662 2.57545 39.1662C1.34118 39.1662 0 38.0194 0 36.5908C0 35.1719 1.33146 34.0153 2.57545 34.0153C3.80972 34.0153 4.53862 34.6471 4.93708 35.5606H11.9248C11.7693 34.5985 11.6818 33.6169 11.6818 32.6159C11.6818 32.4215 11.6818 32.2174 11.6916 32.023H10.3698C9.44655 32.023 8.61074 31.644 8.00818 31.0414C7.40563 30.4389 7.0266 29.6031 7.0266 28.6798V26.4542C6.12276 26.0558 5.48133 25.3366 5.48133 24.0926C5.48133 22.8583 6.62813 21.5171 8.05678 21.5171C9.4757 21.5171 10.6322 22.8486 10.6322 24.0926C10.6322 25.3269 10.0005 26.0558 9.08696 26.4542V28.6798C9.08696 29.0297 9.23274 29.3504 9.46598 29.5836C9.69923 29.8169 10.0199 29.9627 10.3698 29.9627H11.8762C13.0327 22.0517 19.2624 15.7831 27.1637 14.5974C30.8471 6.01586 39.3703 0 49.3028 0C62.355 0 72.9775 10.3893 73.3662 23.3442C80.8496 23.4803 86.8752 29.5836 86.8752 37.0962C86.8752 39.2246 86.3893 41.246 85.5243 43.044L83.7847 41.3043C82.8808 40.4005 81.7632 39.9437 80.49 39.9437H65.0276L65.0179 39.9534ZM26.8138 28.3105C26.9596 28.3105 27.0762 28.1939 27.0762 28.0481C27.0762 27.9023 26.9596 27.7857 26.8138 27.7857C26.668 27.7857 26.5514 27.9023 26.5514 28.0481C26.5514 28.1939 26.668 28.3105 26.8138 28.3105ZM58.866 28.3105C59.0118 28.3105 59.1284 28.1939 59.1284 28.0481C59.1284 27.9023 59.0118 27.7857 58.866 27.7857C58.7202 27.7857 58.6036 27.9023 58.6036 28.0481C58.6036 28.1939 58.7202 28.3105 58.866 28.3105ZM2.57545 37.7182C1.96317 37.7182 1.46752 37.2225 1.46752 36.6102C1.46752 35.998 1.96317 35.5023 2.57545 35.5023C3.18772 35.5023 3.68338 35.998 3.68338 36.6102C3.68338 37.2225 3.18772 37.7182 2.57545 37.7182ZM4.15959 47.7381C3.54731 47.7381 3.05166 48.2338 3.05166 48.846C3.05166 49.4583 3.54731 49.954 4.15959 49.954C4.77187 49.954 5.26752 49.4583 5.26752 48.846C5.26752 48.2338 4.77187 47.7381 4.15959 47.7381ZM8.05678 25.2199C7.4445 25.2199 6.94885 24.7243 6.94885 24.112C6.94885 23.4997 7.4445 23.0041 8.05678 23.0041C8.66905 23.0041 9.16471 23.4997 9.16471 24.112C9.16471 24.7243 8.66905 25.2199 8.05678 25.2199Z" fill="#009FE3"/>
<path fill-rule="evenodd" clip-rule="evenodd" d="M52.2961 83.5222H41.6931V77.1759L27.8731 67.1365H23.0235V27.6593C23.0235 25.7544 24.5882 24.1897 26.4931 24.1897H60.3821C62.2869 24.1897 63.8516 25.7544 63.8516 27.6593V40.0894H58.5841C58.0301 32.2076 51.47 25.9974 43.4424 25.9974C35.0649 25.9974 28.2619 32.7907 28.2619 41.1779C28.2619 47.0286 31.5662 52.1017 36.4158 54.6383L35.3371 55.9697C34.9094 56.2224 34.5304 56.582 34.2291 57.0194C34.0639 57.272 33.9376 57.5345 33.8404 57.8066L33.7238 58.2634C33.4808 59.5657 34.0153 60.9554 35.1913 61.7329C36.3672 62.5104 37.8542 62.4521 38.9621 61.7135L39.3314 61.4219C39.5452 61.2275 39.7396 61.0137 39.9048 60.7611C40.1964 60.314 40.3713 59.8281 40.4394 59.3324L42.0429 56.2905C42.4997 56.3293 42.9662 56.3585 43.4327 56.3585C46.4261 56.3585 49.2153 55.4935 51.5672 53.9969V81.5784C51.5672 82.3268 51.8394 83.0168 52.2961 83.5416V83.5222ZM26.8041 29.4961C26.0168 29.4961 25.3657 28.8547 25.3657 28.0577C25.3657 27.2705 26.0071 26.6194 26.8041 26.6194C27.5913 26.6194 28.2424 27.2608 28.2424 28.0577C28.2424 28.8449 27.601 29.4961 26.8041 29.4961ZM58.8562 29.4961C58.069 29.4961 57.4179 28.8547 57.4179 28.0577C57.4179 27.2705 58.0593 26.6194 58.8562 26.6194C59.6434 26.6194 60.2946 27.2608 60.2946 28.0577C60.2946 28.8449 59.6532 29.4961 58.8562 29.4961Z" fill="#B5D1D5"/>
<path d="M30.5166 39.9827C30.7984 36.8727 32.1785 34.0737 34.268 31.9842C35.6286 30.6236 37.2808 29.574 39.1273 28.9229V30.7888C37.7667 31.3622 36.5325 32.1883 35.5023 33.2185C33.7335 34.9873 32.5478 37.3489 32.2757 39.9827H30.5263H30.5166Z" fill="#0396D6"/>
<path d="M43.4327 44.0255C45.0161 44.0255 46.2997 42.7419 46.2997 41.1585C46.2997 39.5751 45.0161 38.2915 43.4327 38.2915C41.8493 38.2915 40.5657 39.5751 40.5657 41.1585C40.5657 42.7419 41.8493 44.0255 43.4327 44.0255Z" fill="#0396D6"/>
<path fill-rule="evenodd" clip-rule="evenodd" d="M49.1668 40.5269L44.0159 50.2941L39.6522 58.5744C39.5647 57.8358 39.1662 57.1458 38.5054 56.7084C37.8348 56.2711 37.0476 56.1739 36.3381 56.3877L42.2276 49.1182L49.1765 40.5366L49.1668 40.5269ZM35.7744 60.8389C34.6859 60.1197 34.3847 58.6619 35.1038 57.5734C35.823 56.4849 37.2808 56.1836 38.3693 56.9028C39.4578 57.622 39.7591 59.0798 39.0399 60.1683C38.3207 61.2568 36.8629 61.5581 35.7744 60.8389Z" fill="#0396D6"/>
<path fill-rule="evenodd" clip-rule="evenodd" d="M21.3422 59.0993V51.6062H12.4496V59.0993H21.3422ZM14.2865 57.175H15.1806C15.2486 57.175 15.2972 57.1264 15.2972 57.0584V53.2487C15.2972 53.1806 15.2486 53.132 15.1806 53.132H14.2865C14.2184 53.132 14.1699 53.1806 14.1699 53.2487V57.0584C14.1699 57.1264 14.2184 57.175 14.2865 57.175ZM18.6016 57.175H19.4957C19.5637 57.175 19.6123 57.1264 19.6123 57.0584V53.2487C19.6123 53.1806 19.5637 53.132 19.4957 53.132H18.6016C18.5335 53.132 18.4849 53.1806 18.4849 53.2487V57.0584C18.4849 57.1264 18.5335 57.175 18.6016 57.175Z" fill="#B5D1D5"/>
<path fill-rule="evenodd" clip-rule="evenodd" d="M12.3621 59.4685H21.4199C21.6823 59.4685 21.8962 59.6823 21.8962 59.9447V78.5171V78.6823C21.8962 78.7115 21.8962 78.7309 21.8864 78.7601C21.7601 81.4133 19.5734 83.5222 16.9008 83.5222C14.2476 83.5222 12.0803 81.4619 11.9151 78.8475C11.8956 78.7989 11.8859 78.7406 11.8859 78.692V59.9544C11.8859 59.692 12.0997 59.4782 12.3621 59.4782V59.4685ZM16.9008 81.0051C15.5304 81.0051 14.4128 79.8874 14.4128 78.5171C14.4128 77.1468 15.5304 76.0291 16.9008 76.0291C18.2711 76.0291 19.3887 77.1468 19.3887 78.5171C19.3887 79.8874 18.2711 81.0051 16.9008 81.0051Z" fill="#0396D6"/>
<path fill-rule="evenodd" clip-rule="evenodd" d="M93.0368 83.5222H54.5703C53.4916 83.5222 52.6072 82.6378 52.6072 81.5591V43.0926C52.6072 42.0138 53.4916 41.1294 54.5703 41.1294H80.4803C81.4425 41.1294 82.2686 41.4695 82.9489 42.1499L93.9796 53.1805C94.6599 53.8609 95 54.6869 95 55.6491V81.5591C95 82.6378 94.1156 83.5222 93.0368 83.5222ZM57.5248 42.4414H79.0906C79.7417 42.4414 80.2762 42.9759 80.2762 43.6271V52.8307C80.2762 53.4818 79.7417 54.0164 79.0906 54.0164H57.5248C56.8737 54.0164 56.3391 53.4818 56.3391 52.8307V43.6271C56.3391 42.9759 56.8737 42.4414 57.5248 42.4414ZM56.3391 62.1023V79.8H87.2154V62.1023C87.2154 61.2373 86.3018 60.5279 85.1939 60.5279H58.3703C57.2527 60.5279 56.3489 61.2373 56.3489 62.1023H56.3391Z" fill="#0396D6"/>
<path d="M78.9739 44.0061H76.8747C76.8049 44.0061 76.7484 44.3934 76.7484 44.8711V51.5769C76.7484 52.0547 76.8049 52.4419 76.8747 52.4419H78.9739C79.0437 52.4419 79.1003 52.0547 79.1003 51.5769V44.8711C79.1003 44.3934 79.0437 44.0061 78.9739 44.0061Z" fill="#B5D1D5"/>
<path fill-rule="evenodd" clip-rule="evenodd" d="M40.3033 83.5223H26.4931C24.5882 83.5223 23.0235 81.9576 23.0235 80.0527V68.5264H27.4261L40.2936 77.8757V83.5126L40.3033 83.5223ZM26.8235 80.6844C27.6204 80.6844 28.2619 80.043 28.2619 79.2461C28.2619 78.4491 27.6204 77.8077 26.8235 77.8077C26.0266 77.8077 25.3851 78.4491 25.3851 79.2461C25.3851 80.043 26.0266 80.6844 26.8235 80.6844Z" fill="#0396D6"/>
</svg>
