<svg width="90" height="108" viewBox="0 0 90 108" fill="none" xmlns="http://www.w3.org/2000/svg">
<path fill-rule="evenodd" clip-rule="evenodd" d="M81.2943 49.9693L84.2613 49.8507C85.4956 48.2128 86.5163 46.4445 87.3115 44.5693L85.2583 39.9525C85.5194 38.8844 85.7093 37.7925 85.8042 36.6888L89.2816 33.52C89.1748 31.3006 88.7594 29.0575 88.0236 26.85L87.9761 26.7194L83.2407 24.4051C82.9677 23.8948 82.6591 23.3963 82.3506 22.9097L83.0033 18.1268C81.2468 16.1448 79.1936 14.4714 76.9505 13.154L71.7285 14.4595C71.6335 14.4239 71.5267 14.3883 71.4318 14.3527L68.7495 10.1039C66.0198 9.60543 63.1833 9.55796 60.3349 10.009L57.2967 14.1866L52.4782 12.6437C49.9384 13.9967 47.7071 15.7413 45.8201 17.7827L46.1761 22.886C46.1168 22.9809 46.0574 23.064 45.9981 23.159L41.1084 25.1528C40.1115 27.5621 39.4824 30.1256 39.2688 32.7604L39.3994 32.9028L39.4824 32.8672L39.5418 32.8435L39.5774 32.8316L39.6367 32.8079L39.6605 32.796L39.7198 32.7723L39.8029 32.7366H39.8147L39.886 32.701L39.9453 32.6773L39.9809 32.6654L40.0402 32.6417L40.1233 32.6061L40.1471 32.5942L40.2183 32.5705L40.2539 32.5586L40.3132 32.5349L40.3607 32.523L40.4082 32.5112L40.4556 32.4993L40.5387 32.4755L40.5981 32.4518L40.6337 32.4399L40.693 32.4162L40.7286 32.4043L40.7879 32.3806L40.871 32.3569L40.9185 32.345L40.966 32.3331L41.0134 32.3213L41.0609 32.3094L41.1084 32.2975H41.1203L41.2033 32.2738L41.2627 32.2619L41.2983 32.25L41.3576 32.2382L41.3932 32.2263L41.4644 32.2144L41.5475 32.1907L41.5831 32.1788L41.6425 32.167L41.6899 32.1551L41.7493 32.1432L41.7967 32.1314L41.868 32.1195H41.8917L41.9748 32.1076L42.0341 32.0958L42.0816 32.0839L42.1291 32.072L42.1765 32.0602L42.2359 32.0483L42.3308 32.0364H42.3546L42.4258 32.0246L42.4732 32.0127H42.5088L42.5682 32.0008C42.5919 32.0008 42.6275 31.9889 42.6513 31.9889H42.6987L42.7581 31.9771H42.8055H42.8649H42.9124L43.0073 31.9652C43.0429 31.9652 43.0785 31.9652 43.1023 31.9533H43.1497H43.2091H43.2565H43.3159H43.3871H43.4464H43.4939H43.5651H43.6007C43.6363 31.9533 43.6601 31.9533 43.6957 31.9533H43.7075C43.7431 31.9533 43.7787 31.9533 43.8143 31.9533H43.85H43.9212H43.9568H44.0398H44.0636C44.0992 31.9533 44.1348 31.9533 44.1704 31.9652H44.1823L44.2772 31.9771H44.3128L44.384 31.9889H44.4078C44.4434 31.9889 44.479 32.0008 44.5146 32.0008C44.5502 32.0008 44.5858 32.0127 44.6214 32.0127H44.6451L44.7282 32.0246H44.7638C44.7994 32.0246 44.835 32.0364 44.8706 32.0364C46.6746 32.3094 48.0632 33.1046 49.6298 33.9472H49.6417L49.6535 33.9591H49.6654C49.9502 28.1792 53.7125 22.8979 59.5279 20.9633C66.3284 18.6965 73.6155 21.7823 76.8556 27.9181H70.3161C70.1025 27.9181 69.9008 27.8351 69.7583 27.6808C69.6159 27.5384 69.521 27.3366 69.521 27.123V25.7581C70.0788 25.5208 70.4704 25.0698 70.4704 24.3102C70.4704 23.5506 69.7702 22.7317 68.892 22.7317C68.0256 22.7317 67.3135 23.5506 67.3135 24.3102C67.3135 25.0698 67.7051 25.5089 68.2629 25.7581V27.123C68.2629 27.6926 68.4884 28.203 68.8682 28.5709C69.2361 28.9388 69.7465 29.1762 70.3161 29.1762H77.4371C77.5558 29.4729 77.6745 29.7815 77.7813 30.1019C77.9 30.4698 78.0068 30.8259 78.1017 31.1938H60.5604C60.3231 30.636 59.8721 30.2443 59.1125 30.2443C58.353 30.2443 57.534 30.9445 57.534 31.8228C57.534 32.6892 58.353 33.4013 59.1125 33.4013C59.8721 33.4013 60.3112 33.0096 60.5604 32.4518H78.351C78.4696 33.1758 78.5171 33.8997 78.5171 34.6237H70.3043C69.7346 34.6237 69.2243 34.8492 68.8564 35.229C68.4884 35.5969 68.2511 36.1072 68.2511 36.6769V38.0418C67.6933 38.2791 67.3016 38.7301 67.3016 39.4897C67.3016 40.2492 68.0018 41.0682 68.8801 41.0682C69.7465 41.0682 70.4586 40.2492 70.4586 39.4897C70.4586 38.7301 70.0669 38.291 69.5091 38.0418V36.6769C69.5091 36.4633 69.5922 36.2615 69.7465 36.1191C69.8889 35.9767 70.0907 35.8817 70.3043 35.8817H78.4578C78.2441 38.4334 77.3422 40.8664 75.8942 42.9315C76.0604 42.9671 76.2147 43.0027 76.369 43.0502C79.609 43.9403 82.3268 46.4326 81.1044 49.8625L81.2943 49.9693ZM9.33708 37.4365H16.2444C16.8141 37.4365 17.3244 37.662 17.6923 38.0418C18.0602 38.4097 18.2976 38.92 18.2976 39.4897V40.8545C18.8554 41.0919 19.2471 41.5429 19.2471 42.3025C19.2471 43.062 18.5468 43.8809 17.6686 43.8809C16.8022 43.8809 16.0901 43.062 16.0901 42.3025C16.0901 41.5429 16.4818 41.1038 17.0396 40.8545V39.4897C17.0396 39.2761 16.9565 39.0743 16.8022 38.9319C16.6598 38.7895 16.458 38.6945 16.2444 38.6945H9.13532C8.9929 40.1187 9.14719 41.5904 9.62192 43.0264C9.71687 43.3113 9.82368 43.5961 9.94236 43.8691C9.705 44.0708 9.50324 44.2963 9.33708 44.5693C9.17093 44.8304 9.05224 45.1034 8.98103 45.3882C7.15332 46.4801 6.76167 48.2366 6.91596 50.1948L4.5067 49.9456C3.59285 48.5926 2.84515 47.0854 2.29921 45.4594L2.28734 45.4238L4.04384 42.0888C3.97263 41.6616 3.92516 41.2462 3.90142 40.8189L1.42096 38.2554C1.57525 36.3327 2.02624 34.4694 2.76207 32.7129L6.32255 31.2531C6.37002 31.1819 6.40562 31.1226 6.4531 31.0514L6.192 27.3366C7.55684 25.8531 9.19466 24.5713 11.0342 23.5862L14.5472 24.7137L16.7547 21.6754C18.8198 21.3431 20.8968 21.3787 22.8788 21.7467L24.837 24.8443C24.9082 24.868 24.9794 24.8917 25.0506 24.9273L28.8604 23.9779C30.4982 24.9392 31.9936 26.1616 33.2753 27.5977L32.8006 31.0751C33.0261 31.4311 33.2516 31.7872 33.4534 32.167L36.8952 33.8523L36.9308 33.9472C36.9664 34.054 37.002 34.1608 37.0376 34.2677L37.0257 34.2795L37.0138 34.2914L37.002 34.3033L36.9901 34.3151L36.9782 34.327L36.9664 34.3389L36.9545 34.3507L36.9426 34.3626L36.9308 34.3745L36.9189 34.3863L36.907 34.3982L36.8952 34.4101L36.8833 34.4219L36.8714 34.4338L36.8596 34.4457L36.8477 34.4575V34.4694L36.8358 34.4813L36.8239 34.4931L36.8121 34.505L36.8002 34.5169L36.7883 34.5288L36.7765 34.5406L36.7646 34.5525L36.7527 34.5644L36.7409 34.5762L36.729 34.5881V34.6L36.7171 34.6118L36.7053 34.6237L36.6934 34.6356L36.6815 34.6474L36.6697 34.6593L36.6578 34.6712V34.683L36.6459 34.6949V34.7068L36.6341 34.7186L36.6222 34.7305L36.6103 34.7424L36.5984 34.7542L36.5866 34.7661L36.5747 34.778V34.7899L36.5628 34.8017L36.551 34.8136V34.8255L36.5391 34.8373L36.5272 34.8492L36.5154 34.8611L36.5035 34.8729L36.4916 34.8848L36.4798 34.8967V34.9085L36.4679 34.9204V34.9323L36.456 34.9441V34.956L36.4442 34.9679L36.4323 34.9797C35.8033 36.0598 35.9576 37.3534 36.1356 38.5284C36.1831 38.8013 36.2187 39.0743 36.2543 39.3473C36.2424 39.3591 36.2305 39.371 36.2187 39.3829L36.1949 39.4066L36.1831 39.4185L36.1712 39.4422L36.1593 39.4541L36.1356 39.4778L36.1119 39.5134L36.0881 39.549L36.0644 39.5728L36.0525 39.5846L36.0406 39.6084V39.6202L36.0288 39.6321L36.0169 39.6558L35.9932 39.6914L35.9813 39.7152L35.9694 39.7389L35.9576 39.7627L35.9457 39.7745L35.9338 39.7864L35.922 39.8101V39.822L35.9101 39.8457L35.8982 39.8695L35.8745 39.9051L35.8626 39.9407L35.8507 39.9525L35.8389 39.9763L35.827 40L35.8151 40.0238L35.8033 40.0475L35.7914 40.0712L35.7795 40.095L35.7677 40.1187L35.7558 40.1424L35.7439 40.1662L35.7321 40.1899L35.7202 40.2136L35.7083 40.2374V40.2492L35.6965 40.273L35.6846 40.2967L35.6727 40.3205L35.6609 40.3442L35.649 40.3679L35.6371 40.3798V40.3917L35.6253 40.4154L35.6134 40.4391L35.6015 40.4629C35.5896 40.4866 35.5896 40.5222 35.5778 40.546L35.5659 40.5697L35.554 40.5934C35.5422 40.6172 35.5422 40.6528 35.5303 40.6765L35.5184 40.7002L35.5066 40.724C35.4947 40.7477 35.4947 40.7833 35.4828 40.8071L35.471 40.8308L35.2099 41.0682C35.1505 41.7565 35.0437 42.433 34.8894 43.1095C34.8182 42.9315 34.7233 42.7653 34.6283 42.611C34.6283 42.4449 34.6521 42.2787 34.6639 42.1126C34.8182 40.9257 35.2455 39.8101 34.7945 38.6114C34.5334 37.9231 34.0349 37.4127 33.3822 37.0567C31.9461 36.2853 30.6643 35.5613 29.0502 35.2646C26.8428 30.4579 21.324 27.9893 16.1851 29.6984C13.8233 30.4817 11.9244 32.0246 10.6782 33.9709H20.6713C20.9086 33.4131 21.3596 33.0215 22.1192 33.0215C22.8788 33.0215 23.6977 33.7217 23.6977 34.6C23.6977 35.4663 22.8788 36.1784 22.1192 36.1784C21.3596 36.1784 20.9205 35.7868 20.6713 35.229H9.97797C9.65753 35.9173 9.40829 36.6532 9.24214 37.4009L9.33708 37.4365ZM17.6567 41.6141C18.0365 41.6141 18.3332 41.9227 18.3332 42.2906C18.3332 42.6704 18.0246 42.9671 17.6567 42.9671C17.2769 42.9671 16.9802 42.6585 16.9802 42.2906C16.9802 41.9108 17.2888 41.6141 17.6567 41.6141ZM22.2141 33.9591C22.5939 33.9591 22.8906 34.2677 22.8906 34.6356C22.8906 35.0154 22.582 35.3121 22.2141 35.3121C21.8343 35.3121 21.5376 35.0035 21.5376 34.6356C21.5376 34.2558 21.8462 33.9591 22.2141 33.9591ZM69.07 25.1172C68.6902 25.1172 68.3935 24.8087 68.3935 24.4407C68.3935 24.061 68.7021 23.7643 69.07 23.7643C69.4498 23.7643 69.7465 24.0728 69.7465 24.4407C69.7465 24.8205 69.4379 25.1172 69.07 25.1172ZM69.07 38.92C68.6902 38.92 68.3935 39.2286 68.3935 39.5965C68.3935 39.9763 68.7021 40.273 69.07 40.273C69.4498 40.273 69.7465 39.9644 69.7465 39.5965C69.7465 39.2167 69.4379 38.92 69.07 38.92ZM59.2905 31.265C58.9108 31.265 58.6141 31.5736 58.6141 31.9415C58.6141 32.3213 58.9226 32.618 59.2905 32.618C59.6703 32.618 59.967 32.3094 59.967 31.9415C59.967 31.5617 59.6585 31.265 59.2905 31.265ZM39.435 23.1234L40.0877 20.8565C40.6811 20.4649 41.2152 20.0258 41.7137 19.5273L43.9805 19.4323C44.5739 18.6372 45.0724 17.7827 45.464 16.8688L44.4671 14.6257C44.5977 14.1035 44.6807 13.5813 44.7282 13.0472L46.4135 11.5162C46.3542 10.4362 46.1643 9.3562 45.8082 8.28806L45.7845 8.22872L43.4939 7.1131C43.3634 6.86387 43.2091 6.6265 43.0666 6.38914L43.3871 4.07483C42.5326 3.1135 41.5475 2.30646 40.4556 1.66557L37.9277 2.29459C37.8802 2.28272 37.8327 2.25899 37.7853 2.24712L36.4916 0.193912C35.1624 -0.0434533 33.7975 -0.0671898 32.4208 0.146439L30.9492 2.16404L28.6111 1.41634C27.3768 2.06909 26.2968 2.92361 25.383 3.90867L25.561 6.37727C25.5372 6.42474 25.5016 6.47222 25.4779 6.50782L23.1161 7.48102C22.6295 8.6441 22.3328 9.89027 22.226 11.1602L23.8757 12.8692C23.8994 13.154 23.9232 13.427 23.9706 13.7118L22.8075 15.9312L22.8194 15.9549C23.1755 17.035 23.6739 18.0319 24.2911 18.9339L26.5935 19.1712C26.9614 19.5748 27.3531 19.9427 27.7685 20.275L28.2788 22.6249C29.1333 23.1234 30.0472 23.5032 30.9966 23.7761L32.9074 22.4944C33.5958 22.5893 34.296 22.613 35.0081 22.5774L36.8358 24.0016C37.2868 23.9067 37.7259 23.788 38.1769 23.6456C38.6279 23.4913 39.067 23.3133 39.4943 23.1234H39.435ZM32.0766 5.49902C28.4094 6.72145 26.4274 10.6736 27.6498 14.3409C28.8722 18.0082 32.8243 19.9902 36.4916 18.7677C40.1589 17.5453 42.1409 13.5932 40.9185 9.92588C39.6961 6.25859 35.7439 4.27659 32.0766 5.49902Z" fill="#B5D1D5"/>
<path fill-rule="evenodd" clip-rule="evenodd" d="M70.1143 93.8225H67.9187L68.9156 79.2127C71.1706 77.563 72.5236 74.9401 72.5236 72.1155V59.2147C72.5236 58.918 72.5117 58.6331 72.488 58.3364L72.6897 58.2889C73.4018 58.8586 74.3157 59.2028 75.2889 59.2028C76.2739 59.2028 77.1759 58.8586 77.888 58.2889L79.9056 58.7637C83.5967 58.7755 84.7716 60.8169 85.6736 65.8371L87.1334 73.8601C87.5607 76.2337 85.46 79.1889 83.7747 78.465L86.445 90.5824C86.6231 91.4014 86.445 92.1728 85.9228 92.8255C85.4006 93.4783 84.6767 93.8225 83.8459 93.8225H80.4753L79.9175 104.077C79.8107 106.082 78.6001 107.732 76.9979 107.732H73.7223C72.1201 107.732 70.9451 106.082 70.8027 104.077L70.1025 93.8225H70.1143ZM71.2418 54.2537C73.1882 54.1707 73.6392 46.7055 78.9087 48.557C73.7341 44.6405 73.1645 53.7197 71.1706 54.1351C70.684 53.2449 70.055 52.426 69.331 51.7258C68.9512 49.5658 68.6664 47.2396 71.0875 46.1121C71.2893 41.8158 83.6679 44.047 80.8432 50.0761C79.7513 53.2093 80.8076 54.0757 81.7096 54.6691C81.2823 56.0102 80.1311 56.7105 78.6713 57.019C77.8999 58.0634 76.6656 58.7399 75.277 58.7399C74.1495 58.7399 73.1289 58.2889 72.3693 57.565C72.1794 56.4138 71.7878 55.2744 71.2299 54.23L71.2418 54.2537ZM79.1935 54.5504C81.5672 54.2656 77.6744 49.1267 79.2529 48.7706C76.5707 48.7706 81.496 53.5416 79.1935 54.5504Z" fill="#0396D6"/>
<path fill-rule="evenodd" clip-rule="evenodd" d="M67.8712 78.6074L66.1741 103.554C66.0198 105.845 64.2989 107.732 61.9964 107.732H57.2966C55.006 107.732 53.3207 105.845 53.119 103.554L52.5256 96.659L53.7955 78.0021C56.1573 76.2337 57.5814 73.4565 57.5814 70.4776V56.9834C57.5814 53.8858 56.1573 50.6339 53.7836 48.6282C53.748 48.3552 53.7243 48.0822 53.7243 47.8093V47.2515C53.2139 47.204 52.7985 46.2664 52.7985 45.127C52.7985 43.9877 53.2021 43.0501 53.7243 43.0026V42.9433V42.5991V42.4092C53.5462 40.7833 52.8698 38.7775 54.472 38.1129C59.3498 35.2052 61.9964 36.9498 64.5244 38.3028C66.3046 39.2523 64.7973 41.2936 65.0703 43.1569C65.4145 43.4773 65.6637 44.2369 65.6637 45.1152C65.6637 45.9934 65.4264 46.753 65.0703 47.0734V47.7974C65.0703 48.8181 64.7973 49.7913 64.3107 50.622C68.429 50.7526 71.4436 55.0489 71.4436 59.2146V72.1154C71.4436 74.8333 70.0194 77.2425 67.8712 78.6074ZM63.1121 51.6664L61.1894 52.8177L60.774 58.2889L61.4742 53.0194L63.1239 51.6783L63.1121 51.6664ZM63.4444 40.6408C60.8571 41.6378 58.3648 40.9138 55.8249 41.0444C58.2935 41.0088 59.7415 41.9701 63.2189 40.9494L63.6699 43.2875L63.4444 40.629V40.6408Z" fill="#0396D6"/>
<path fill-rule="evenodd" clip-rule="evenodd" d="M52.5019 77.2783L50.7335 103.365C50.5674 105.762 48.7634 107.732 46.366 107.732H41.4525C39.0552 107.732 37.2868 105.762 37.085 103.365L34.8419 77.3139C32.5632 75.8897 31.0322 73.3499 31.0322 70.4778V56.9836C31.0322 52.7466 34.3435 48.3672 38.5092 48.0112C37.9989 47.1329 37.7141 46.1241 37.7141 45.0441V44.4626C37.18 44.4032 36.7527 43.43 36.7527 42.2432C36.7527 41.0445 37.18 40.0713 37.7141 40.0238V39.9645V39.6084V39.4067C37.536 37.7095 36.8239 35.6088 38.4855 34.9205C43.5888 31.8822 46.3541 33.6981 49.0008 35.1222C50.8641 36.1192 49.2856 38.2555 49.5704 40.2019C49.9383 40.546 50.1876 41.3293 50.1876 42.2432C50.1876 43.1571 49.9383 43.9522 49.5704 44.2964V45.056C49.5704 46.1241 49.2856 47.1329 48.7753 48.0112C53.0834 48.1417 56.2404 52.6398 56.2404 56.9954V70.4896C56.2404 73.338 54.745 75.8541 52.5019 77.2901V77.2783ZM48.3717 48.3553L44.8113 50.4679L44.0398 60.5678L45.3216 50.8358L48.3599 48.3553H48.3717ZM39.1382 48.3553L42.6987 50.4679L43.4702 60.5678L42.1884 50.8358L39.1501 48.3553H39.1382ZM39.2095 37.1755C40.871 37.8163 46.2236 37.8757 48.0632 37.1755L48.2887 39.8577L47.8377 37.4959C45.5471 38.1605 41.7255 38.1605 39.4468 37.4959L38.9958 39.8577L39.2213 37.1755H39.2095Z" fill="#0396D6"/>
<path fill-rule="evenodd" clip-rule="evenodd" d="M17.0751 93.8225H19.2708L18.2738 79.2127C16.0189 77.563 14.6659 74.9401 14.6659 72.1155V59.2147C14.6659 58.918 14.6778 58.6331 14.7015 58.3364L14.4997 58.2889C13.7876 58.8586 12.8738 59.2028 11.9006 59.2028C10.9155 59.2028 10.0135 58.8586 9.30145 58.2889L7.28384 58.7637C3.59282 58.7755 2.41786 60.8169 1.51588 65.8371L0.0560813 73.8601C-0.371176 76.2337 1.7295 79.1889 3.4148 78.465L0.74444 90.5824C0.566416 91.4014 0.74444 92.1728 1.26664 92.8255C1.78885 93.4783 2.51281 93.8225 3.34359 93.8225H6.71417L7.27198 104.077C7.37879 106.082 8.58935 107.732 10.1916 107.732H13.4672C15.0694 107.732 16.2444 106.082 16.3868 104.077L17.087 93.8225H17.0751ZM15.9477 54.2537C14.0013 54.1707 13.5503 46.7055 8.28078 48.557C13.4553 44.6405 14.025 53.7197 16.0189 54.1351C16.5055 53.2449 17.1345 52.426 17.8585 51.7258C18.2382 49.5658 18.5231 47.2396 16.102 46.1121C15.9002 41.8158 3.52161 44.047 6.34625 50.0761C7.43813 53.2093 6.38186 54.0757 5.47987 54.6691C5.90713 56.0102 7.05835 56.7105 8.51814 57.019C9.28958 58.0634 10.5239 58.7399 11.9125 58.7399C13.0399 58.7399 14.0606 58.2889 14.8202 57.565C15.0101 56.4138 15.4017 55.2744 15.9595 54.23L15.9477 54.2537ZM7.99594 54.5504C5.62229 54.2656 9.51508 49.1267 7.9366 48.7706C10.6188 48.7706 5.6935 53.5416 7.99594 54.5504Z" fill="#0396D6"/>
<path fill-rule="evenodd" clip-rule="evenodd" d="M19.3183 78.6074L21.0155 103.554C21.1698 105.845 22.8907 107.732 25.1931 107.732H29.8929C32.1835 107.732 33.8688 105.845 34.0705 103.554L34.664 96.659L33.3941 78.0021C31.0323 76.2337 29.6081 73.4565 29.6081 70.4776V56.9834C29.6081 53.8858 31.0323 50.6339 33.4059 48.6282C33.4415 48.3552 33.4653 48.0822 33.4653 47.8093V47.2515C33.9756 47.204 34.391 46.2664 34.391 45.127C34.391 43.9877 33.9875 43.0501 33.4653 43.0026V42.9433V42.5991V42.4092C33.6433 40.7833 34.3198 38.7775 32.7176 38.1129C27.8397 35.2052 25.1931 36.9498 22.6652 38.3028C20.8849 39.2523 22.3922 41.2936 22.1192 43.1569C21.775 43.4773 21.5258 44.2369 21.5258 45.1152C21.5258 45.9934 21.7632 46.753 22.1192 47.0734V47.7974C22.1192 48.8181 22.3922 49.7913 22.8788 50.622C18.7605 50.7526 15.746 55.0489 15.746 59.2146V72.1154C15.746 74.8333 17.1702 77.2425 19.3183 78.6074ZM24.0775 51.6664L26.012 52.8177L26.4274 58.2889L25.7272 53.0194L24.0775 51.6783V51.6664ZM23.7452 40.6408C26.3324 41.6378 28.8248 40.9138 31.3646 41.0444C28.896 41.0088 27.4481 41.9701 23.9707 40.9494L23.5197 43.2875L23.7452 40.629V40.6408Z" fill="#0396D6"/>
</svg>
